<?xml version="1.0" standalone="no"?>
<!DOCTYPE svg PUBLIC "-//W3C//DTD SVG 1.1//EN" "http://www.w3.org/Graphics/SVG/1.1/DTD/svg11.dtd" >
<svg xmlns="http://www.w3.org/2000/svg" xmlns:xlink="http://www.w3.org/1999/xlink" version="1.1">
<metadata>
Created by FontForge 20170731 at Mon Oct 26 19:50:35 2015
 By Aleksey,,,
(c) by:- Arslan -- Dev-Point.com.
</metadata>
<defs>
<font id="AArslanWessamA-AArslanWessamA" horiz-adv-x="790" >
  <font-face 
    font-family="(A) Arslan Wessam A"
    font-weight="400"
    font-stretch="normal"
    units-per-em="2048"
    panose-1="3 2 4 2 4 4 6 3 2 3"
    ascent="1638"
    descent="-410"
    x-height="571"
    cap-height="960"
    bbox="-547 -1054 3505 1540"
    underline-thickness="20"
    underline-position="-430"
    unicode-range="U+0001-FEFC"
  />
<missing-glyph horiz-adv-x="684" 
d="M684 960v-960h-684v960h684zM627 57v846h-570v-846h570zM300 313l-2 22q0 74 22 117q7 13 21 30.5t36 39.5q43 43 55 64q12 22 12 48q0 50 -31 81q-30 33 -69 33q-45 0 -74.5 -30t-36.5 -97l-67 11q9 95 58.5 139t121.5 44q71 0 119 -49q48 -48 48 -126q0 -45 -16 -76
q-8 -16 -25 -36t-42 -45q-51 -48 -58 -76q-10 -19 -10 -94h-62zM293 156v90h76v-90h-76z" />
    <glyph glyph-name="uniFC00" unicode="&#xfe8b;&#xfe9e;" horiz-adv-x="876" arabic-form="isolated" 
d="M755 520q109 0 109 -67v-2q0 -52 -51 -72q-32 -8 -83 -8q-85 2 -85 5q-4 3 -12 5q-66 -24 -148 -89q-54 -49 -70 -72v-1q84 -8 119 -19q35 -10 61 -24q16 -7 34 -27q23 -33 23 -64q0 -79 -158 -178l-222 -146q-67 -55 -92 -95q-31 -47 -31 -89v-10q0 -84 87 -129
q78 -35 212 -35q162 0 444 39q93 17 124 22q9 1 22 1h9q1 0 1 -1v-32q-40 -27 -145 -62q-276 -76 -455 -76q-265 0 -365 133q-43 62 -43 138v12q0 146 203 299q77 56 151 98q76 39 131 82q17 16 19 25q-29 15 -185 37q-50 6 -64 11q-17 8 -23 22q-7 12 -7 25q0 21 25 55
q24 42 85 110q64 62 95 80q144 99 285 99zM739 791q0 -58 -62.5 -108.5t-121.5 -50.5q-33 0 -33 31q0 25 27 35q86 31 104 80q-73 18 -73 61q0 35 35 79q30 38 66 60q12 7 25 7q37 0 37 -31q0 -16 -17 -30q-47 -37 -61 -73q43 -12 50 -16q24 -13 24 -44zM683 -283l-34 -55
q-18 -29 -49 -29q-25 0 -44 17.5t-19 42.5q0 16 10 33l34 55q18 29 49 29q25 0 44 -17.5t19 -42.5q0 -16 -10 -33z" />
    <glyph glyph-name="uniFC01" unicode="&#xfe8b;&#xfea2;" horiz-adv-x="861" arabic-form="isolated" 
d="M755 520q109 0 109 -67v-2q0 -52 -51 -72q-32 -8 -83 -8q-85 2 -85 5q-4 3 -12 5q-66 -24 -148 -89q-54 -49 -70 -72v-1q84 -8 119 -19q35 -10 61 -24q16 -7 34 -27q23 -33 23 -64q0 -79 -158 -178l-222 -146q-67 -55 -92 -95q-31 -47 -31 -89v-10q0 -84 87 -129
q78 -35 212 -35q162 0 444 39q93 17 124 22q9 1 22 1h9q1 0 1 -1v-32q-40 -27 -145 -62q-276 -76 -455 -76q-265 0 -365 133q-43 62 -43 138v12q0 146 203 299q77 56 151 98q76 39 131 82q17 16 19 25q-29 15 -185 37q-50 6 -64 11q-17 8 -23 22q-7 12 -7 25q0 21 25 55
q24 42 85 110q64 62 95 80q144 99 285 99zM678 1039q0 -58 -62.5 -108.5t-121.5 -50.5q-33 0 -33 31q0 25 27 35q86 31 104 80q-73 18 -73 61q0 35 35 79q30 38 66 60q12 7 25 7q37 0 37 -31q0 -16 -17 -30q-47 -37 -61 -73q43 -12 50 -16q24 -13 24 -44z" />
    <glyph glyph-name="uniFC02" unicode="&#xfe8b;&#xfee2;" horiz-adv-x="866" arabic-form="isolated" 
d="M751 746q96 0 96 -58v-5q0 -51 -52 -64q-20 -4 -67 -6q-81 3 -81 8h-5q-70 -24 -153 -99q-9 -11 -9 -12q22 0 47 -27q5 -11 8 -31q0 -60 -31 -94q-132 -75 -216 -91q-127 -30 -150 -69q-31 -35 -31 -83v-13q0 -64 75 -245q23 -70 23 -146v-17q0 -104 -31 -104
q-18 0 -18 56q0 69 -102 323q-41 113 -41 156v18q0 105 128 174q123 38 165 62q0 118 170 262q141 105 275 105zM726 991q0 -58 -62.5 -108.5t-121.5 -50.5q-33 0 -33 31q0 25 27 35q86 31 104 80q-73 18 -73 61q0 35 35 79q30 38 66 60q12 7 25 7q37 0 37 -31
q0 -16 -17 -30q-47 -37 -61 -73q43 -12 50 -16q24 -13 24 -44z" />
    <glyph glyph-name="uniFC03" unicode="&#xfe8b;&#xfef0;" horiz-adv-x="1335" arabic-form="isolated" 
d="M1093 773q55 0 80 -104q21 -66 21 -162v-8q0 -97 -49 -133q0 -4 -19 -20q138 -20 138 -31q54 -25 54 -68v-21q0 -96 -137 -192q-76 -53 -219 -106q-193 -63 -374 -63h-38q-327 0 -461 158q-46 61 -46 136q0 244 445 350q117 25 245 25h24q95 0 95 -29q0 -30 -135 -36
q-164 -26 -269 -61q-299 -99 -299 -250v-8q0 -79 150 -139q112 -40 270 -40q287 0 532 139q99 72 99 103q0 18 -105 26q-165 25 -165 91q12 67 63 67q116 40 116 101v3q0 40 -69 198q-4 7 -4 15v10q0 49 57 49zM1136 998q0 -58 -62.5 -108.5t-121.5 -50.5q-33 0 -33 31
q0 25 27 35q86 31 104 80q-73 18 -73 61q0 35 35 79q30 38 66 60q12 7 25 7q37 0 37 -31q0 -16 -17 -30q-47 -37 -61 -73q43 -12 50 -16q24 -13 24 -44zM641 754q0 -42 -7 -71q-10 -41 -25 -41t-15 35q0 58 -14 89q-15 23 -39 66q-4 10 -4 19q0 31 27 31q16 0 32 -16
q45 -46 45 -112z" />
    <glyph glyph-name="uniFC04" unicode="&#xfe8b;&#xfef2;" horiz-adv-x="1340" arabic-form="isolated" 
d="M1093 773q55 0 80 -104q21 -66 21 -162v-8q0 -97 -49 -133q0 -4 -19 -20q138 -20 138 -31q54 -25 54 -68v-21q0 -96 -137 -192q-76 -53 -219 -106q-193 -63 -374 -63h-38q-327 0 -461 158q-46 61 -46 136q0 244 445 350q117 25 245 25h24q95 0 95 -29q0 -30 -135 -36
q-164 -26 -269 -61q-299 -99 -299 -250v-8q0 -79 150 -139q112 -40 270 -40q287 0 532 139q99 72 99 103q0 18 -105 26q-165 25 -165 91q12 67 63 67q116 40 116 101v3q0 40 -69 198q-4 7 -4 15v10q0 49 57 49zM1008 918q0 -58 -62.5 -108.5t-121.5 -50.5q-33 0 -33 31
q0 25 27 35q86 31 104 80q-73 18 -73 61q0 35 35 79q30 38 66 60q12 7 25 7q37 0 37 -31q0 -16 -17 -30q-47 -37 -61 -73q43 -12 50 -16q24 -13 24 -44zM711 -368q-84 -36 -202 -36q-107 0 -107 45q0 32 91 46q62 9 171 55q13 6 26 6q58 0 58 -63q0 -38 -37 -53z" />
    <glyph glyph-name="uniFC05" unicode="&#xfe91;&#xfe9e;" horiz-adv-x="861" arabic-form="isolated" 
d="M755 520q109 0 109 -67v-2q0 -52 -51 -72q-32 -8 -83 -8q-85 2 -85 5q-4 3 -12 5q-66 -24 -148 -89q-54 -49 -70 -72v-1q84 -8 119 -19q35 -10 61 -24q16 -7 34 -27q23 -33 23 -64q0 -79 -158 -178l-222 -146q-67 -55 -92 -95q-31 -47 -31 -89v-10q0 -84 87 -129
q78 -35 212 -35q162 0 444 39q93 17 124 22q9 1 22 1h9q1 0 1 -1v-32q-40 -27 -145 -62q-276 -76 -455 -76q-265 0 -365 133q-43 62 -43 138v12q0 146 203 299q77 56 151 98q76 39 131 82q17 16 19 25q-29 15 -185 37q-50 6 -64 11q-17 8 -23 22q-7 12 -7 25q0 21 25 55
q24 42 85 110q64 62 95 80q144 99 285 99zM864 181l-34 -55q-18 -29 -49 -29q-25 0 -44 17.5t-19 42.5q0 16 10 33l34 55q18 29 49 29q25 0 44 -17.5t19 -42.5q0 -16 -10 -33zM662 -316l-34 -55q-18 -29 -49 -29q-25 0 -44 17.5t-19 42.5q0 16 10 33l34 55q18 29 49 29
q25 0 44 -17.5t19 -42.5q0 -16 -10 -33z" />
    <glyph glyph-name="uniFC06" unicode="&#xfe91;&#xfea2;" horiz-adv-x="861" arabic-form="isolated" 
d="M755 520q109 0 109 -67v-2q0 -52 -51 -72q-32 -8 -83 -8q-85 2 -85 5q-4 3 -12 5q-66 -24 -148 -89q-54 -49 -70 -72v-1q84 -8 119 -19q35 -10 61 -24q16 -7 34 -27q23 -33 23 -64q0 -79 -158 -178l-222 -146q-67 -55 -92 -95q-31 -47 -31 -89v-10q0 -84 87 -129
q78 -35 212 -35q162 0 444 39q93 17 124 22q9 1 22 1h9q1 0 1 -1v-32q-40 -27 -145 -62q-276 -76 -455 -76q-265 0 -365 133q-43 62 -43 138v12q0 146 203 299q77 56 151 98q76 39 131 82q17 16 19 25q-29 15 -185 37q-50 6 -64 11q-17 8 -23 22q-7 12 -7 25q0 21 25 55
q24 42 85 110q64 62 95 80q144 99 285 99zM842 37l-34 -55q-18 -29 -49 -29q-25 0 -44 17.5t-19 42.5q0 16 10 33l34 55q18 29 49 29q25 0 44 -17.5t19 -42.5q0 -16 -10 -33z" />
    <glyph glyph-name="uniFC07" unicode="&#xfe91;&#xfea6;" horiz-adv-x="861" arabic-form="isolated" 
d="M755 520q109 0 109 -67v-2q0 -52 -51 -72q-32 -8 -83 -8q-85 2 -85 5q-4 3 -12 5q-66 -24 -148 -89q-54 -49 -70 -72v-1q84 -8 119 -19q35 -10 61 -24q16 -7 34 -27q23 -33 23 -64q0 -79 -158 -178l-222 -146q-67 -55 -92 -95q-31 -47 -31 -89v-10q0 -84 87 -129
q78 -35 212 -35q162 0 444 39q93 17 124 22q9 1 22 1h9q1 0 1 -1v-32q-40 -27 -145 -62q-276 -76 -455 -76q-265 0 -365 133q-43 62 -43 138v12q0 146 203 299q77 56 151 98q76 39 131 82q17 16 19 25q-29 15 -185 37q-50 6 -64 11q-17 8 -23 22q-7 12 -7 25q0 21 25 55
q24 42 85 110q64 62 95 80q144 99 285 99zM837 165l-34 -55q-18 -29 -49 -29q-25 0 -44 17.5t-19 42.5q0 16 10 33l34 55q18 29 49 29q25 0 44 -17.5t19 -42.5q0 -16 -10 -33zM320 567l-34 -55q-18 -29 -49 -29q-25 0 -44 17.5t-19 42.5q0 16 10 33l34 55q18 29 49 29
q25 0 44 -17.5t19 -42.5q0 -16 -10 -33z" />
    <glyph glyph-name="uniFC08" unicode="&#xfe91;&#xfee2;" horiz-adv-x="871" arabic-form="isolated" 
d="M751 746q96 0 96 -58v-5q0 -51 -52 -64q-20 -4 -67 -6q-81 3 -81 8h-5q-70 -24 -153 -99q-9 -11 -9 -12q22 0 47 -27q5 -11 8 -31q0 -60 -31 -94q-132 -75 -216 -91q-127 -30 -150 -69q-31 -35 -31 -83v-13q0 -64 75 -245q23 -70 23 -146v-17q0 -104 -31 -104
q-18 0 -18 56q0 69 -102 323q-41 113 -41 156v18q0 105 128 174q123 38 165 62q0 118 170 262q141 105 275 105zM790 86l-34 -55q-18 -29 -49 -29q-25 0 -44 17.5t-19 42.5q0 16 10 33l34 55q18 29 49 29q25 0 44 -17.5t19 -42.5q0 -16 -10 -33z" />
    <glyph glyph-name="uniFC0A" unicode="&#xfe91;&#xfef2;" horiz-adv-x="1340" arabic-form="isolated" 
d="M1093 773q55 0 80 -104q21 -66 21 -162v-8q0 -97 -49 -133q0 -4 -19 -20q138 -20 138 -31q54 -25 54 -68v-21q0 -96 -137 -192q-76 -53 -219 -106q-193 -63 -374 -63h-38q-327 0 -461 158q-46 61 -46 136q0 244 445 350q117 25 245 25h24q95 0 95 -29q0 -30 -135 -36
q-164 -26 -269 -61q-299 -99 -299 -250v-8q0 -79 150 -139q112 -40 270 -40q287 0 532 139q99 72 99 103q0 18 -105 26q-165 25 -165 91q12 67 63 67q116 40 116 101v3q0 40 -69 198q-4 7 -4 15v10q0 49 57 49zM1285 -119l-34 -55q-18 -29 -49 -29q-25 0 -44 17.5t-19 42.5
q0 16 10 33l34 55q18 29 49 29q25 0 44 -17.5t19 -42.5q0 -16 -10 -33zM915 -277q-84 -36 -202 -36q-107 0 -107 45q0 32 91 46q62 9 171 55q13 6 26 6q58 0 58 -63q0 -38 -37 -53z" />
    <glyph glyph-name="uniFC0B" unicode="&#xfe97;&#xfe9e;" horiz-adv-x="861" arabic-form="isolated" 
d="M755 520q109 0 109 -67v-2q0 -52 -51 -72q-32 -8 -83 -8q-85 2 -85 5q-4 3 -12 5q-66 -24 -148 -89q-54 -49 -70 -72v-1q84 -8 119 -19q35 -10 61 -24q16 -7 34 -27q23 -33 23 -64q0 -79 -158 -178l-222 -146q-67 -55 -92 -95q-31 -47 -31 -89v-10q0 -84 87 -129
q78 -35 212 -35q162 0 444 39q93 17 124 22q9 1 22 1h9q1 0 1 -1v-32q-40 -27 -145 -62q-276 -76 -455 -76q-265 0 -365 133q-43 62 -43 138v12q0 146 203 299q77 56 151 98q76 39 131 82q17 16 19 25q-29 15 -185 37q-50 6 -64 11q-17 8 -23 22q-7 12 -7 25q0 21 25 55
q24 42 85 110q64 62 95 80q144 99 285 99zM720 873q-84 -36 -202 -36q-107 0 -107 45q0 32 91 46q62 9 171 55q13 6 26 6q58 0 58 -63q0 -38 -37 -53zM684 -279l-34 -55q-18 -29 -49 -29q-25 0 -44 17.5t-19 42.5q0 16 10 33l34 55q18 29 49 29q25 0 44 -17.5t19 -42.5
q0 -16 -10 -33z" />
    <glyph glyph-name="uniFC0C" unicode="&#xfe97;&#xfea2;" horiz-adv-x="861" arabic-form="isolated" 
d="M755 520q109 0 109 -67v-2q0 -52 -51 -72q-32 -8 -83 -8q-85 2 -85 5q-4 3 -12 5q-66 -24 -148 -89q-54 -49 -70 -72v-1q84 -8 119 -19q35 -10 61 -24q16 -7 34 -27q23 -33 23 -64q0 -79 -158 -178l-222 -146q-67 -55 -92 -95q-31 -47 -31 -89v-10q0 -84 87 -129
q78 -35 212 -35q162 0 444 39q93 17 124 22q9 1 22 1h9q1 0 1 -1v-32q-40 -27 -145 -62q-276 -76 -455 -76q-265 0 -365 133q-43 62 -43 138v12q0 146 203 299q77 56 151 98q76 39 131 82q17 16 19 25q-29 15 -185 37q-50 6 -64 11q-17 8 -23 22q-7 12 -7 25q0 21 25 55
q24 42 85 110q64 62 95 80q144 99 285 99zM703 857q-84 -36 -202 -36q-107 0 -107 45q0 32 91 46q62 9 171 55q13 6 26 6q58 0 58 -63q0 -38 -37 -53z" />
    <glyph glyph-name="uniFC0D" unicode="&#xfe97;&#xfea6;" horiz-adv-x="861" arabic-form="isolated" 
d="M755 520q109 0 109 -67v-2q0 -52 -51 -72q-32 -8 -83 -8q-85 2 -85 5q-4 3 -12 5q-66 -24 -148 -89q-54 -49 -70 -72v-1q84 -8 119 -19q35 -10 61 -24q16 -7 34 -27q23 -33 23 -64q0 -79 -158 -178l-222 -146q-67 -55 -92 -95q-31 -47 -31 -89v-10q0 -84 87 -129
q78 -35 212 -35q162 0 444 39q93 17 124 22q9 1 22 1h9q1 0 1 -1v-32q-40 -27 -145 -62q-276 -76 -455 -76q-265 0 -365 133q-43 62 -43 138v12q0 146 203 299q77 56 151 98q76 39 131 82q17 16 19 25q-29 15 -185 37q-50 6 -64 11q-17 8 -23 22q-7 12 -7 25q0 21 25 55
q24 42 85 110q64 62 95 80q144 99 285 99zM733 851q-84 -36 -202 -36q-107 0 -107 45q0 32 91 46q62 9 171 55q13 6 26 6q58 0 58 -63q0 -38 -37 -53zM287 582l-34 -55q-18 -29 -49 -29q-25 0 -44 17.5t-19 42.5q0 16 10 33l34 55q18 29 49 29q25 0 44 -17.5t19 -42.5
q0 -16 -10 -33z" />
    <glyph glyph-name="uniFC0E" unicode="&#xfe97;&#xfee2;" horiz-adv-x="856" arabic-form="isolated" 
d="M751 746q96 0 96 -58v-5q0 -51 -52 -64q-20 -4 -67 -6q-81 3 -81 8h-5q-70 -24 -153 -99q-9 -11 -9 -12q22 0 47 -27q5 -11 8 -31q0 -60 -31 -94q-132 -75 -216 -91q-127 -30 -150 -69q-31 -35 -31 -83v-13q0 -64 75 -245q23 -70 23 -146v-17q0 -104 -31 -104
q-18 0 -18 56q0 69 -102 323q-41 113 -41 156v18q0 105 128 174q123 38 165 62q0 118 170 262q141 105 275 105zM728 960q-84 -36 -202 -36q-107 0 -107 45q0 32 91 46q62 9 171 55q13 6 26 6q58 0 58 -63q0 -38 -37 -53z" />
    <glyph glyph-name="uniFC0F" unicode="&#xfe97;&#xfef0;" horiz-adv-x="1330" arabic-form="isolated" 
d="M1093 773q55 0 80 -104q21 -66 21 -162v-8q0 -97 -49 -133q0 -4 -19 -20q138 -20 138 -31q54 -25 54 -68v-21q0 -96 -137 -192q-76 -53 -219 -106q-193 -63 -374 -63h-38q-327 0 -461 158q-46 61 -46 136q0 244 445 350q117 25 245 25h24q95 0 95 -29q0 -30 -135 -36
q-164 -26 -269 -61q-299 -99 -299 -250v-8q0 -79 150 -139q112 -40 270 -40q287 0 532 139q99 72 99 103q0 18 -105 26q-165 25 -165 91q12 67 63 67q116 40 116 101v3q0 40 -69 198q-4 7 -4 15v10q0 49 57 49zM1168 987q-84 -36 -202 -36q-107 0 -107 45q0 32 91 46
q62 9 171 55q13 6 26 6q58 0 58 -63q0 -38 -37 -53zM631 810q0 -42 -7 -71q-10 -41 -25 -41t-15 35q0 58 -14 89q-15 23 -39 66q-4 10 -4 19q0 31 27 31q16 0 32 -16q45 -46 45 -112z" />
    <glyph glyph-name="uniFC10" unicode="&#xfe97;&#xfef2;" horiz-adv-x="1330" arabic-form="isolated" 
d="M1093 773q55 0 80 -104q21 -66 21 -162v-8q0 -97 -49 -133q0 -4 -19 -20q138 -20 138 -31q54 -25 54 -68v-21q0 -96 -137 -192q-76 -53 -219 -106q-193 -63 -374 -63h-38q-327 0 -461 158q-46 61 -46 136q0 244 445 350q117 25 245 25h24q95 0 95 -29q0 -30 -135 -36
q-164 -26 -269 -61q-299 -99 -299 -250v-8q0 -79 150 -139q112 -40 270 -40q287 0 532 139q99 72 99 103q0 18 -105 26q-165 25 -165 91q12 67 63 67q116 40 116 101v3q0 40 -69 198q-4 7 -4 15v10q0 49 57 49zM1061 844q-84 -36 -202 -36q-107 0 -107 45q0 32 91 46
q62 9 171 55q13 6 26 6q58 0 58 -63q0 -38 -37 -53zM746 -409q-84 -36 -202 -36q-107 0 -107 45q0 32 91 46q62 9 171 55q13 6 26 6q58 0 58 -63q0 -38 -37 -53z" />
    <glyph glyph-name="uniFC11" unicode="&#xfe9b;&#xfe9e;" horiz-adv-x="861" arabic-form="isolated" 
d="M755 520q109 0 109 -67v-2q0 -52 -51 -72q-32 -8 -83 -8q-85 2 -85 5q-4 3 -12 5q-66 -24 -148 -89q-54 -49 -70 -72v-1q84 -8 119 -19q35 -10 61 -24q16 -7 34 -27q23 -33 23 -64q0 -79 -158 -178l-222 -146q-67 -55 -92 -95q-31 -47 -31 -89v-10q0 -84 87 -129
q78 -35 212 -35q162 0 444 39q93 17 124 22q9 1 22 1h9q1 0 1 -1v-32q-40 -27 -145 -62q-276 -76 -455 -76q-265 0 -365 133q-43 62 -43 138v12q0 146 203 299q77 56 151 98q76 39 131 82q17 16 19 25q-29 15 -185 37q-50 6 -64 11q-17 8 -23 22q-7 12 -7 25q0 21 25 55
q24 42 85 110q64 62 95 80q144 99 285 99zM866 916q11 -17 11 -34q0 -25 -19 -42.5t-44 -17.5q-30 0 -48 27q-36 54 -61 54q-24 0 -72 -42q-39 -35 -60 -65q-42 -57 -69 -57q-16 0 -16 24q0 31 27 81q94 175 203 175q79 0 148 -103zM681 -268l-34 -55q-18 -29 -49 -29
q-25 0 -44 17.5t-19 42.5q0 16 10 33l34 55q18 29 49 29q25 0 44 -17.5t19 -42.5q0 -16 -10 -33z" />
    <glyph glyph-name="uniFC12" unicode="&#xfe9b;&#xfee2;" horiz-adv-x="866" arabic-form="isolated" 
d="M751 746q96 0 96 -58v-5q0 -51 -52 -64q-20 -4 -67 -6q-81 3 -81 8h-5q-70 -24 -153 -99q-9 -11 -9 -12q22 0 47 -27q5 -11 8 -31q0 -60 -31 -94q-132 -75 -216 -91q-127 -30 -150 -69q-31 -35 -31 -83v-13q0 -64 75 -245q23 -70 23 -146v-17q0 -104 -31 -104
q-18 0 -18 56q0 69 -102 323q-41 113 -41 156v18q0 105 128 174q123 38 165 62q0 118 170 262q141 105 275 105zM823 1070q11 -17 11 -34q0 -25 -19 -42.5t-44 -17.5q-30 0 -48 27q-36 54 -61 54q-24 0 -72 -42q-39 -35 -60 -65q-42 -57 -69 -57q-16 0 -16 24q0 31 27 81
q94 175 203 175q79 0 148 -103z" />
    <glyph glyph-name="uniFC13" unicode="&#xfe9b;&#xfef0;" horiz-adv-x="1330" arabic-form="isolated" 
d="M1093 773q55 0 80 -104q21 -66 21 -162v-8q0 -97 -49 -133q0 -4 -19 -20q138 -20 138 -31q54 -25 54 -68v-21q0 -96 -137 -192q-76 -53 -219 -106q-193 -63 -374 -63h-38q-327 0 -461 158q-46 61 -46 136q0 244 445 350q117 25 245 25h24q95 0 95 -29q0 -30 -135 -36
q-164 -26 -269 -61q-299 -99 -299 -250v-8q0 -79 150 -139q112 -40 270 -40q287 0 532 139q99 72 99 103q0 18 -105 26q-165 25 -165 91q12 67 63 67q116 40 116 101v3q0 40 -69 198q-4 7 -4 15v10q0 49 57 49zM1234 1034q11 -17 11 -34q0 -25 -19 -42.5t-44 -17.5
q-30 0 -48 27q-36 54 -61 54q-24 0 -72 -42q-39 -35 -60 -65q-42 -57 -69 -57q-16 0 -16 24q0 31 27 81q94 175 203 175q79 0 148 -103zM626 815q0 -42 -7 -71q-10 -41 -25 -41t-15 35q0 58 -14 89q-15 23 -39 66q-4 10 -4 19q0 31 27 31q16 0 32 -16q45 -46 45 -112z" />
    <glyph glyph-name="uniFC14" unicode="&#xfe9b;&#xfef2;" horiz-adv-x="1345" arabic-form="isolated" 
d="M1093 773q55 0 80 -104q21 -66 21 -162v-8q0 -97 -49 -133q0 -4 -19 -20q138 -20 138 -31q54 -25 54 -68v-21q0 -96 -137 -192q-76 -53 -219 -106q-193 -63 -374 -63h-38q-327 0 -461 158q-46 61 -46 136q0 244 445 350q117 25 245 25h24q95 0 95 -29q0 -30 -135 -36
q-164 -26 -269 -61q-299 -99 -299 -250v-8q0 -79 150 -139q112 -40 270 -40q287 0 532 139q99 72 99 103q0 18 -105 26q-165 25 -165 91q12 67 63 67q116 40 116 101v3q0 40 -69 198q-4 7 -4 15v10q0 49 57 49zM1214 1005q11 -17 11 -34q0 -25 -19 -42.5t-44 -17.5
q-30 0 -48 27q-36 54 -61 54q-24 0 -72 -42q-39 -35 -60 -65q-42 -57 -69 -57q-16 0 -16 24q0 31 27 81q94 175 203 175q79 0 148 -103zM721 -450q-84 -36 -202 -36q-107 0 -107 45q0 32 91 46q62 9 171 55q13 6 26 6q58 0 58 -63q0 -38 -37 -53z" />
    <glyph glyph-name="uniFC15" unicode="&#xfe9f;&#xfea2;" horiz-adv-x="902" arabic-form="isolated" 
d="M663 814h27q103 0 151 -50q21 -23 21 -48v-1q0 -121 -372 -307q-75 -41 -115 -74l-29 -31v-1q80 -9 130 -26q77 -31 77 -88v-12q0 -73 -195 -188q-137 -90 -166 -115q-84 -77 -84 -140v-16q0 -87 116 -123q58 -17 141 -17h13q189 0 487 51q0 3 34 3h4q22 0 22 -10
q0 -23 -154 -77q-247 -65 -399 -65q-295 0 -353 182q-9 27 -9 68q0 190 370 384q77 50 77 65q-46 17 -219 41q-27 15 -27 45q0 44 111 146q67 51 163 102v2q-72 61 -72 132q0 106 156 158q52 10 94 10zM509 649q0 -37 68 -84q163 89 163 126v3q0 26 -75 26q-105 0 -151 -52z
M862 327l-34 -55q-18 -29 -49 -29q-25 0 -44 17.5t-19 42.5q0 16 10 33l34 55q18 29 49 29q25 0 44 -17.5t19 -42.5q0 -16 -10 -33z" />
    <glyph glyph-name="uniFC16" unicode="&#xfe9f;&#xfee2;" horiz-adv-x="1223" arabic-form="isolated" 
d="M977 783h12q166 0 217 -85q9 -21 9 -41q0 -145 -440 -370q-110 -57 -166 -102l-5 -7q34 0 59 -39q8 -13 8 -36q0 -94 -50 -124q-59 -38 -194 -89q-177 -47 -210 -66q-85 -54 -85 -143v-14q0 -85 85 -290q39 -100 39 -220q-7 -128 -22 -128q0 -8 -17 -11h-2q-20 0 -20 50
q0 107 -123 405q-61 166 -61 229q0 149 167 234q108 32 205 74v2q0 206 360 392v2q-89 80 -89 162v7q0 125 178 190q70 18 145 18zM775 575q0 -45 83 -104q207 112 207 160q0 33 -97 33q-131 0 -188 -63q-5 -14 -5 -26zM1075 138l-34 -55q-18 -29 -49 -29q-25 0 -44 17.5
t-19 42.5q0 16 10 33l34 55q18 29 49 29q25 0 44 -17.5t19 -42.5q0 -16 -10 -33z" />
    <glyph glyph-name="uniFC17" unicode="&#xfea3;&#xfe9e;" horiz-adv-x="897" arabic-form="isolated" 
d="M663 814h27q103 0 151 -50q21 -23 21 -48v-1q0 -121 -372 -307q-75 -41 -115 -74l-29 -31v-1q80 -9 130 -26q77 -31 77 -88v-12q0 -73 -195 -188q-137 -90 -166 -115q-84 -77 -84 -140v-16q0 -87 116 -123q58 -17 141 -17h13q189 0 487 51q0 3 34 3h4q22 0 22 -10
q0 -23 -154 -77q-247 -65 -399 -65q-295 0 -353 182q-9 27 -9 68q0 190 370 384q77 50 77 65q-46 17 -219 41q-27 15 -27 45q0 44 111 146q67 51 163 102v2q-72 61 -72 132q0 106 156 158q52 10 94 10zM509 649q0 -37 68 -84q163 89 163 126v3q0 26 -75 26q-105 0 -151 -52z
M467 -225l-34 -55q-18 -29 -49 -29q-25 0 -44 17.5t-19 42.5q0 16 10 33l34 55q18 29 49 29q25 0 44 -17.5t19 -42.5q0 -16 -10 -33z" />
    <glyph glyph-name="uniFC18" unicode="&#xfea3;&#xfee2;" horiz-adv-x="1223" arabic-form="isolated" 
d="M977 783h12q166 0 217 -85q9 -21 9 -41q0 -145 -440 -370q-110 -57 -166 -102l-5 -7q34 0 59 -39q8 -13 8 -36q0 -94 -50 -124q-59 -38 -194 -89q-177 -47 -210 -66q-85 -54 -85 -143v-14q0 -85 85 -290q39 -100 39 -220q-7 -128 -22 -128q0 -8 -17 -11h-2q-20 0 -20 50
q0 107 -123 405q-61 166 -61 229q0 149 167 234q108 32 205 74v2q0 206 360 392v2q-89 80 -89 162v7q0 125 178 190q70 18 145 18zM775 575q0 -45 83 -104q207 112 207 160q0 33 -97 33q-131 0 -188 -63q-5 -14 -5 -26z" />
    <glyph glyph-name="uniFC19" unicode="&#xfea7;&#xfe9e;" horiz-adv-x="902" arabic-form="isolated" 
d="M663 814h27q103 0 151 -50q21 -23 21 -48v-1q0 -121 -372 -307q-75 -41 -115 -74l-29 -31v-1q80 -9 130 -26q77 -31 77 -88v-12q0 -73 -195 -188q-137 -90 -166 -115q-84 -77 -84 -140v-16q0 -87 116 -123q58 -17 141 -17h13q189 0 487 51q0 3 34 3h4q22 0 22 -10
q0 -23 -154 -77q-247 -65 -399 -65q-295 0 -353 182q-9 27 -9 68q0 190 370 384q77 50 77 65q-46 17 -219 41q-27 15 -27 45q0 44 111 146q67 51 163 102v2q-72 61 -72 132q0 106 156 158q52 10 94 10zM509 649q0 -37 68 -84q163 89 163 126v3q0 26 -75 26q-105 0 -151 -52z
M610 -206l-34 -55q-18 -29 -49 -29q-25 0 -44 17.5t-19 42.5q0 16 10 33l34 55q18 29 49 29q25 0 44 -17.5t19 -42.5q0 -16 -10 -33zM663 1043l-34 -55q-18 -29 -49 -29q-25 0 -44 17.5t-19 42.5q0 16 10 33l34 55q18 29 49 29q25 0 44 -17.5t19 -42.5q0 -16 -10 -33z" />
    <glyph glyph-name="uniFC1A" unicode="&#xfea7;&#xfea2;" horiz-adv-x="902" arabic-form="isolated" 
d="M663 814h27q103 0 151 -50q21 -23 21 -48v-1q0 -121 -372 -307q-75 -41 -115 -74l-29 -31v-1q80 -9 130 -26q77 -31 77 -88v-12q0 -73 -195 -188q-137 -90 -166 -115q-84 -77 -84 -140v-16q0 -87 116 -123q58 -17 141 -17h13q189 0 487 51q0 3 34 3h4q22 0 22 -10
q0 -23 -154 -77q-247 -65 -399 -65q-295 0 -353 182q-9 27 -9 68q0 190 370 384q77 50 77 65q-46 17 -219 41q-27 15 -27 45q0 44 111 146q67 51 163 102v2q-72 61 -72 132q0 106 156 158q52 10 94 10zM509 649q0 -37 68 -84q163 89 163 126v3q0 26 -75 26q-105 0 -151 -52z
M696 1002l-34 -55q-18 -29 -49 -29q-25 0 -44 17.5t-19 42.5q0 16 10 33l34 55q18 29 49 29q25 0 44 -17.5t19 -42.5q0 -16 -10 -33z" />
    <glyph glyph-name="uniFC1B" unicode="&#xfea7;&#xfee2;" horiz-adv-x="1223" arabic-form="isolated" 
d="M977 783h12q166 0 217 -85q9 -21 9 -41q0 -145 -440 -370q-110 -57 -166 -102l-5 -7q34 0 59 -39q8 -13 8 -36q0 -94 -50 -124q-59 -38 -194 -89q-177 -47 -210 -66q-85 -54 -85 -143v-14q0 -85 85 -290q39 -100 39 -220q-7 -128 -22 -128q0 -8 -17 -11h-2q-20 0 -20 50
q0 107 -123 405q-61 166 -61 229q0 149 167 234q108 32 205 74v2q0 206 360 392v2q-89 80 -89 162v7q0 125 178 190q70 18 145 18zM775 575q0 -45 83 -104q207 112 207 160q0 33 -97 33q-131 0 -188 -63q-5 -14 -5 -26zM856 1004l-34 -55q-18 -29 -49 -29q-25 0 -44 17.5
t-19 42.5q0 16 10 33l34 55q18 29 49 29q25 0 44 -17.5t19 -42.5q0 -16 -10 -33z" />
    <glyph glyph-name="uniFC1C" unicode="&#xfeb3;&#xfe9e;" horiz-adv-x="1426" arabic-form="isolated" 
d="M1348 520h17q39 0 50 -36v-25q-8 -53 -63 -129q-71 -80 -169 -80q-49 0 -118 27h-2q-66 -51 -157 -51q-114 0 -158 133q-16 17 -44 17q-81 0 -224 -99q-35 -26 -72 -70v-2q116 -12 154 -33q51 -17 68 -49q17 -33 17 -55q0 -88 -205 -209q-179 -118 -211 -145
q-99 -88 -99 -171q0 -171 304 -171q225 0 565 59q0 3 38 4h15q19 -1 19 -11q0 -22 -122 -69q-71 -30 -296 -74q-135 -21 -217 -21q-300 0 -391 167q-25 51 -25 107v21q0 199 384 412q76 38 127 89q2 7 2 8q-64 23 -243 44q-40 13 -40 55q2 40 101 150q90 87 188 131
q98 42 154 42h24q89 0 130 -88q33 -57 81 -57h2q92 0 154 154q18 19 34 19h17q42 0 50 -40v-19q0 -12 -40 -89h2q18 -4 28 -4h14q83 0 119 133q19 25 38 25zM672 -362l-34 -55q-18 -29 -49 -29q-25 0 -44 17.5t-19 42.5q0 16 10 33l34 55q18 29 49 29q25 0 44 -17.5
t19 -42.5q0 -16 -10 -33z" />
    <glyph glyph-name="uniFC1D" unicode="&#xfeb3;&#xfea2;" horiz-adv-x="1431" arabic-form="isolated" 
d="M1348 520h17q39 0 50 -36v-25q-8 -53 -63 -129q-71 -80 -169 -80q-49 0 -118 27h-2q-66 -51 -157 -51q-114 0 -158 133q-16 17 -44 17q-81 0 -224 -99q-35 -26 -72 -70v-2q116 -12 154 -33q51 -17 68 -49q17 -33 17 -55q0 -88 -205 -209q-179 -118 -211 -145
q-99 -88 -99 -171q0 -171 304 -171q225 0 565 59q0 3 38 4h15q19 -1 19 -11q0 -22 -122 -69q-71 -30 -296 -74q-135 -21 -217 -21q-300 0 -391 167q-25 51 -25 107v21q0 199 384 412q76 38 127 89q2 7 2 8q-64 23 -243 44q-40 13 -40 55q2 40 101 150q90 87 188 131
q98 42 154 42h24q89 0 130 -88q33 -57 81 -57h2q92 0 154 154q18 19 34 19h17q42 0 50 -40v-19q0 -12 -40 -89h2q18 -4 28 -4h14q83 0 119 133q19 25 38 25z" />
    <glyph glyph-name="uniFC1E" unicode="&#xfeb3;&#xfea6;" horiz-adv-x="1426" arabic-form="isolated" 
d="M1348 520h17q39 0 50 -36v-25q-8 -53 -63 -129q-71 -80 -169 -80q-49 0 -118 27h-2q-66 -51 -157 -51q-114 0 -158 133q-16 17 -44 17q-81 0 -224 -99q-35 -26 -72 -70v-2q116 -12 154 -33q51 -17 68 -49q17 -33 17 -55q0 -88 -205 -209q-179 -118 -211 -145
q-99 -88 -99 -171q0 -171 304 -171q225 0 565 59q0 3 38 4h15q19 -1 19 -11q0 -22 -122 -69q-71 -30 -296 -74q-135 -21 -217 -21q-300 0 -391 167q-25 51 -25 107v21q0 199 384 412q76 38 127 89q2 7 2 8q-64 23 -243 44q-40 13 -40 55q2 40 101 150q90 87 188 131
q98 42 154 42h24q89 0 130 -88q33 -57 81 -57h2q92 0 154 154q18 19 34 19h17q42 0 50 -40v-19q0 -12 -40 -89h2q18 -4 28 -4h14q83 0 119 133q19 25 38 25zM493 682l-34 -55q-18 -29 -49 -29q-25 0 -44 17.5t-19 42.5q0 16 10 33l34 55q18 29 49 29q25 0 44 -17.5t19 -42.5
q0 -16 -10 -33z" />
    <glyph glyph-name="uniFC1F" unicode="&#xfeb3;&#xfee2;" horiz-adv-x="1676" arabic-form="isolated" 
d="M1598 746q63 0 63 -58q-12 -68 -65 -141q-78 -93 -185 -93q-53 0 -129 30q-70 -54 -153 -54h-28q-109 0 -159 141q-17 18 -42 18h-4q-83 0 -228 -95q-38 -30 -58 -50v-2q33 0 58 -38q6 -13 6 -28v-12q0 -107 -80 -135q-118 -66 -270 -101q-181 -40 -181 -177v-10
q0 -88 96 -320q27 -93 27 -187q0 -116 -33 -135h-8q-20 0 -20 52q0 102 -127 411q-54 150 -54 215q0 142 165 228q87 24 201 72v4q0 147 214 316q177 113 292 113q110 0 147 -85q44 -70 82 -70q0 -2 12 -2h4q97 0 163 163q18 24 49 24q62 0 62 -58q0 -23 -44 -101
q14 -6 40 -6h4q94 0 133 145q18 26 50 26z" />
    <glyph glyph-name="uniFC20" unicode="&#xfebb;&#xfea2;" horiz-adv-x="1747" arabic-form="isolated" 
d="M1536 757h17q177 0 177 -125q0 -93 -118 -192q-81 -53 -181 -86q-193 -64 -338 -64q-206 0 -259 133q0 22 -34 38q-5 0 -32 5q-92 0 -253 -110q-62 -55 -78 -78q122 -8 215 -57q49 -43 49 -95q0 -95 -220 -226q-204 -135 -223 -150q-123 -103 -123 -202q0 -119 148 -165
q80 -21 177 -21h19q240 0 644 70h17q29 0 29 -13q0 -30 -194 -97q-306 -82 -491 -82h-28q-346 5 -426 209q-17 44 -17 101q0 246 468 492q59 31 95 75l2 5q-49 21 -274 50q-38 19 -38 57q0 49 129 184q102 93 207 133q105 46 170 46h24q98 0 137 -112q47 -67 141 -67
q45 70 179 202q165 142 283 142zM1224 430h2q142 29 232 65q135 64 135 114v4q0 30 -57 30h-21q-89 0 -291 -213z" />
    <glyph glyph-name="uniFC21" unicode="&#xfebb;&#xfee2;" horiz-adv-x="1824" arabic-form="isolated" 
d="M1628 820q134 0 172 -67q8 -25 8 -44v-15q0 -81 -104 -172q-52 -39 -148 -78q-213 -74 -357 -74q-204 0 -256 137q0 25 -50 30h-13q-91 0 -240 -104q-41 -36 -41 -39q63 -15 63 -63v-13q0 -88 -50 -120q-122 -68 -261 -107q-88 -19 -128 -39q-85 -55 -85 -148
q0 -85 98 -322q24 -85 24 -182q0 -133 -39 -133q-20 0 -20 57q0 92 -122 393q-56 150 -56 218q0 141 161 224q17 0 198 72q0 126 158 271q134 115 296 153q30 6 55 6h17q93 0 128 -93q37 -79 142 -79q256 331 450 331zM1321 505h2q152 31 235 67q120 59 120 107v2
q0 30 -70 30q-89 0 -287 -206z" />
    <glyph glyph-name="uniFC22" unicode="&#xfebf;&#xfe9e;" horiz-adv-x="1742" arabic-form="isolated" 
d="M1536 757h17q177 0 177 -125q0 -93 -118 -192q-81 -53 -181 -86q-193 -64 -338 -64q-206 0 -259 133q0 22 -34 38q-5 0 -32 5q-92 0 -253 -110q-62 -55 -78 -78q122 -8 215 -57q49 -43 49 -95q0 -95 -220 -226q-204 -135 -223 -150q-123 -103 -123 -202q0 -119 148 -165
q80 -21 177 -21h19q240 0 644 70h17q29 0 29 -13q0 -30 -194 -97q-306 -82 -491 -82h-28q-346 5 -426 209q-17 44 -17 101q0 246 468 492q59 31 95 75l2 5q-49 21 -274 50q-38 19 -38 57q0 49 129 184q102 93 207 133q105 46 170 46h24q98 0 137 -112q47 -67 141 -67
q45 70 179 202q165 142 283 142zM1224 430h2q142 29 232 65q135 64 135 114v4q0 30 -57 30h-21q-89 0 -291 -213zM700 -350l-34 -55q-18 -29 -49 -29q-25 0 -44 17.5t-19 42.5q0 16 10 33l34 55q18 29 49 29q25 0 44 -17.5t19 -42.5q0 -16 -10 -33zM1306 1026l-34 -55
q-18 -29 -49 -29q-25 0 -44 17.5t-19 42.5q0 16 10 33l34 55q18 29 49 29q25 0 44 -17.5t19 -42.5q0 -16 -10 -33z" />
    <glyph glyph-name="uniFC23" unicode="&#xfebf;&#xfea2;" horiz-adv-x="1742" arabic-form="isolated" 
d="M1536 757h17q177 0 177 -125q0 -93 -118 -192q-81 -53 -181 -86q-193 -64 -338 -64q-206 0 -259 133q0 22 -34 38q-5 0 -32 5q-92 0 -253 -110q-62 -55 -78 -78q122 -8 215 -57q49 -43 49 -95q0 -95 -220 -226q-204 -135 -223 -150q-123 -103 -123 -202q0 -119 148 -165
q80 -21 177 -21h19q240 0 644 70h17q29 0 29 -13q0 -30 -194 -97q-306 -82 -491 -82h-28q-346 5 -426 209q-17 44 -17 101q0 246 468 492q59 31 95 75l2 5q-49 21 -274 50q-38 19 -38 57q0 49 129 184q102 93 207 133q105 46 170 46h24q98 0 137 -112q47 -67 141 -67
q45 70 179 202q165 142 283 142zM1224 430h2q142 29 232 65q135 64 135 114v4q0 30 -57 30h-21q-89 0 -291 -213zM1210 997l-34 -55q-18 -29 -49 -29q-25 0 -44 17.5t-19 42.5q0 16 10 33l34 55q18 29 49 29q25 0 44 -17.5t19 -42.5q0 -16 -10 -33z" />
    <glyph glyph-name="uniFC24" unicode="&#xfebf;&#xfea6;" horiz-adv-x="1742" arabic-form="isolated" 
d="M1536 757h17q177 0 177 -125q0 -93 -118 -192q-81 -53 -181 -86q-193 -64 -338 -64q-206 0 -259 133q0 22 -34 38q-5 0 -32 5q-92 0 -253 -110q-62 -55 -78 -78q122 -8 215 -57q49 -43 49 -95q0 -95 -220 -226q-204 -135 -223 -150q-123 -103 -123 -202q0 -119 148 -165
q80 -21 177 -21h19q240 0 644 70h17q29 0 29 -13q0 -30 -194 -97q-306 -82 -491 -82h-28q-346 5 -426 209q-17 44 -17 101q0 246 468 492q59 31 95 75l2 5q-49 21 -274 50q-38 19 -38 57q0 49 129 184q102 93 207 133q105 46 170 46h24q98 0 137 -112q47 -67 141 -67
q45 70 179 202q165 142 283 142zM1224 430h2q142 29 232 65q135 64 135 114v4q0 30 -57 30h-21q-89 0 -291 -213zM424 724l-34 -55q-18 -29 -49 -29q-25 0 -44 17.5t-19 42.5q0 16 10 33l34 55q18 29 49 29q25 0 44 -17.5t19 -42.5q0 -16 -10 -33zM1312 1017l-34 -55
q-18 -29 -49 -29q-25 0 -44 17.5t-19 42.5q0 16 10 33l34 55q18 29 49 29q25 0 44 -17.5t19 -42.5q0 -16 -10 -33z" />
    <glyph glyph-name="uniFC25" unicode="&#xfebf;&#xfee2;" horiz-adv-x="1824" arabic-form="isolated" 
d="M1628 820q134 0 172 -67q8 -25 8 -44v-15q0 -81 -104 -172q-52 -39 -148 -78q-213 -74 -357 -74q-204 0 -256 137q0 25 -50 30h-13q-91 0 -240 -104q-41 -36 -41 -39q63 -15 63 -63v-13q0 -88 -50 -120q-122 -68 -261 -107q-88 -19 -128 -39q-85 -55 -85 -148
q0 -85 98 -322q24 -85 24 -182q0 -133 -39 -133q-20 0 -20 57q0 92 -122 393q-56 150 -56 218q0 141 161 224q17 0 198 72q0 126 158 271q134 115 296 153q30 6 55 6h17q93 0 128 -93q37 -79 142 -79q256 331 450 331zM1321 505h2q152 31 235 67q120 59 120 107v2
q0 30 -70 30q-89 0 -287 -206zM1339 1055l-34 -55q-18 -29 -49 -29q-25 0 -44 17.5t-19 42.5q0 16 10 33l34 55q18 29 49 29q25 0 44 -17.5t19 -42.5q0 -16 -10 -33z" />
    <glyph glyph-name="uniFC29" unicode="&#xfecb;&#xfe9e;" horiz-adv-x="1182" arabic-form="isolated" 
d="M836 943h4q109 0 149 -123v-14q0 -56 -61 -56q-44 0 -64 56q-17 16 -40 16q-47 0 -92 -66q-8 -15 -10 -38q0 -93 130 -126q155 54 235 96q9 4 20 4q49 0 60 -66q0 -46 -88 -76q-120 -50 -415 -149q-164 -66 -221 -118q99 -10 155 -32q92 -38 92 -116q0 -98 -235 -235
q-183 -121 -216 -148q-109 -97 -109 -187q0 -151 217 -182q59 -6 104 -6h18q206 0 552 54q31 10 100 16q32 -3 32 -10v-2q0 -40 -237 -110q-271 -69 -451 -69h-4q-371 0 -443 229q-10 36 -10 82q0 239 463 483q96 59 96 81q-48 20 -270 50q-38 19 -38 54q0 51 106 144
q80 61 164 97q155 62 163 62v2q-98 92 -98 176q0 109 134 201q51 26 108 26zM545 -270h16q53 -14 53 -52v-13q0 -22 -55 -100q-18 -12 -36 -12h-8q-46 0 -58 60q0 27 58 105q17 12 30 12z" />
    <glyph glyph-name="uniFC2A" unicode="&#xfecb;&#xfee2;" horiz-adv-x="1340" arabic-form="isolated" 
d="M988 923h15q107 0 149 -126v-12q0 -44 -38 -56q-11 -2 -18 -2h-9q-42 0 -64 58q-19 14 -33 14h-8q-50 0 -96 -75q-4 -18 -4 -25v-12q0 -90 131 -120q161 54 240 97q3 2 19 4q42 0 60 -55v-13q0 -46 -81 -73q-126 -54 -379 -138q-162 -59 -230 -106q43 -19 43 -70
q0 -94 -55 -127q-134 -79 -301 -118q-101 -26 -131 -54q-64 -54 -64 -137q0 -91 98 -327q29 -93 29 -201q0 -117 -31 -139h-15q-17 0 -17 91q-4 66 -95 297q-89 226 -89 300v19q0 138 166 226q22 0 211 78v4q0 236 460 386v2q-101 90 -101 180q0 104 128 199q57 31 110 31z
" />
    <glyph glyph-name="uniFC2B" unicode="&#xfecf;&#xfe9e;" horiz-adv-x="1182" arabic-form="isolated" 
d="M836 943h4q109 0 149 -123v-14q0 -56 -61 -56q-44 0 -64 56q-17 16 -40 16q-47 0 -92 -66q-8 -15 -10 -38q0 -93 130 -126q155 54 235 96q9 4 20 4q49 0 60 -66q0 -46 -88 -76q-120 -50 -415 -149q-164 -66 -221 -118q99 -10 155 -32q92 -38 92 -116q0 -98 -235 -235
q-183 -121 -216 -148q-109 -97 -109 -187q0 -151 217 -182q59 -6 104 -6h18q206 0 552 54q31 10 100 16q32 -3 32 -10v-2q0 -40 -237 -110q-271 -69 -451 -69h-4q-371 0 -443 229q-10 36 -10 82q0 239 463 483q96 59 96 81q-48 20 -270 50q-38 19 -38 54q0 51 106 144
q80 61 164 97q155 62 163 62v2q-98 92 -98 176q0 109 134 201q51 26 108 26zM545 -270h16q53 -14 53 -52v-13q0 -22 -55 -100q-18 -12 -36 -12h-8q-46 0 -58 60q0 27 58 105q17 12 30 12zM778 1190l-34 -55q-18 -29 -49 -29q-25 0 -44 17.5t-19 42.5q0 16 10 33l34 55
q18 29 49 29q25 0 44 -17.5t19 -42.5q0 -16 -10 -33z" />
    <glyph glyph-name="uniFC2C" unicode="&#xfecf;&#xfee2;" horiz-adv-x="1340" arabic-form="isolated" 
d="M988 923h15q107 0 149 -126v-12q0 -44 -38 -56q-11 -2 -18 -2h-9q-42 0 -64 58q-19 14 -33 14h-8q-50 0 -96 -75q-4 -18 -4 -25v-12q0 -90 131 -120q161 54 240 97q3 2 19 4q42 0 60 -55v-13q0 -46 -81 -73q-126 -54 -379 -138q-162 -59 -230 -106q43 -19 43 -70
q0 -94 -55 -127q-134 -79 -301 -118q-101 -26 -131 -54q-64 -54 -64 -137q0 -91 98 -327q29 -93 29 -201q0 -117 -31 -139h-15q-17 0 -17 91q-4 66 -95 297q-89 226 -89 300v19q0 138 166 226q22 0 211 78v4q0 236 460 386v2q-101 90 -101 180q0 104 128 199q57 31 110 31z
M889 1037l-34 -55q-18 -29 -49 -29q-25 0 -44 17.5t-19 42.5q0 16 10 33l34 55q18 29 49 29q25 0 44 -17.5t19 -42.5q0 -16 -10 -33z" />
    <glyph glyph-name="uniFC2D" unicode="&#xfed3;&#xfe9e;" horiz-adv-x="839" arabic-form="isolated" 
d="M431 834q66 0 112 -98q16 -54 16 -102q0 -140 -130 -203v-2q47 0 123 -39q40 -33 40 -77q0 -79 -183 -186q-27 -20 -159 -106q-118 -92 -118 -170v-16q0 -93 127 -129q57 -16 141 -16h4q203 0 522 56q12 2 24 2q23 -3 23 -9q0 -37 -222 -99q-212 -50 -349 -50
q-269 0 -349 152q-22 44 -22 97v12q0 186 362 382q66 35 98 75v3q-60 18 -230 42q-22 15 -22 41v5q0 62 127 111q93 44 93 95q0 23 -16 23q-28 -5 -43 -5h-23q-65 0 -75 61q0 7 -2 14q0 74 80 125q17 7 51 11zM415 1045l-34 -55q-18 -29 -49 -29q-25 0 -44 17.5t-19 42.5
q0 16 10 33l34 55q18 29 49 29q25 0 44 -17.5t19 -42.5q0 -16 -10 -33zM609 -77l-34 -55q-18 -29 -49 -29q-25 0 -44 17.5t-19 42.5q0 16 10 33l34 55q18 29 49 29q25 0 44 -17.5t19 -42.5q0 -16 -10 -33z" />
    <glyph glyph-name="uniFC2E" unicode="&#xfed3;&#xfea2;" horiz-adv-x="839" arabic-form="isolated" 
d="M431 834q66 0 112 -98q16 -54 16 -102q0 -140 -130 -203v-2q47 0 123 -39q40 -33 40 -77q0 -79 -183 -186q-27 -20 -159 -106q-118 -92 -118 -170v-16q0 -93 127 -129q57 -16 141 -16h4q203 0 522 56q12 2 24 2q23 -3 23 -9q0 -37 -222 -99q-212 -50 -349 -50
q-269 0 -349 152q-22 44 -22 97v12q0 186 362 382q66 35 98 75v3q-60 18 -230 42q-22 15 -22 41v5q0 62 127 111q93 44 93 95q0 23 -16 23q-28 -5 -43 -5h-23q-65 0 -75 61q0 7 -2 14q0 74 80 125q17 7 51 11zM469 1086l-34 -55q-18 -29 -49 -29q-25 0 -44 17.5t-19 42.5
q0 16 10 33l34 55q18 29 49 29q25 0 44 -17.5t19 -42.5q0 -16 -10 -33z" />
    <glyph glyph-name="uniFC2F" unicode="&#xfed3;&#xfea6;" horiz-adv-x="839" arabic-form="isolated" 
d="M431 834q66 0 112 -98q16 -54 16 -102q0 -140 -130 -203v-2q47 0 123 -39q40 -33 40 -77q0 -79 -183 -186q-27 -20 -159 -106q-118 -92 -118 -170v-16q0 -93 127 -129q57 -16 141 -16h4q203 0 522 56q12 2 24 2q23 -3 23 -9q0 -37 -222 -99q-212 -50 -349 -50
q-269 0 -349 152q-22 44 -22 97v12q0 186 362 382q66 35 98 75v3q-60 18 -230 42q-22 15 -22 41v5q0 62 127 111q93 44 93 95q0 23 -16 23q-28 -5 -43 -5h-23q-65 0 -75 61q0 7 -2 14q0 74 80 125q17 7 51 11zM465 1131l-34 -55q-18 -29 -49 -29q-25 0 -44 17.5t-19 42.5
q0 16 10 33l34 55q18 29 49 29q25 0 44 -17.5t19 -42.5q0 -16 -10 -33zM215 670l-34 -55q-18 -29 -49 -29q-25 0 -44 17.5t-19 42.5q0 16 10 33l34 55q18 29 49 29q25 0 44 -17.5t19 -42.5q0 -16 -10 -33z" />
    <glyph glyph-name="uniFC30" unicode="&#xfed3;&#xfee2;" horiz-adv-x="830" arabic-form="isolated" 
d="M698 1071h6q58 0 99 -82q18 -41 18 -93q0 -156 -191 -217q-102 -42 -125 -58q35 -14 35 -51q0 -90 -71 -114q-91 -50 -263 -93q-87 -41 -87 -128q0 -67 81 -262q16 -69 16 -126v-26q-5 -93 -24 -93h-10q-12 8 -12 20v2q0 107 -103 348q-40 116 -40 163q0 110 125 177
q81 24 162 60q0 180 306 273q111 45 111 95q-5 12 -13 12l-56 -6q-67 0 -82 52v28q0 53 60 101q27 18 58 18zM697 1290l-34 -55q-18 -29 -49 -29q-25 0 -44 17.5t-19 42.5q0 16 10 33l34 55q18 29 49 29q25 0 44 -17.5t19 -42.5q0 -16 -10 -33z" />
    <glyph glyph-name="uniFC31" unicode="&#xfed3;&#xfef0;" horiz-adv-x="1498" arabic-form="isolated" 
d="M1270 901h20q57 0 114 -86q36 -70 36 -152v-14q0 -181 -192 -262q-1 -4 -20 -10v-4h2q149 -19 174 -33q78 -28 78 -92v-6q0 -224 -482 -378q-194 -52 -382 -52q-382 0 -541 166q-66 74 -66 172v6q0 277 508 401q151 30 293 30q103 0 128 -20q0 -3 4 -8v-6q0 -33 -148 -42
q-51 0 -269 -54q-396 -119 -396 -309q0 -107 210 -178q125 -34 277 -34q326 0 606 156q107 72 120 118v8q0 17 -124 28q-184 31 -184 96v10q0 56 90 115q129 53 168 96q22 26 22 58q0 26 -18 26q-47 -8 -70 -8q-82 0 -104 58q-4 18 -4 26v16q0 79 84 142q36 20 66 20z
M1257 1148l-34 -55q-18 -29 -49 -29q-25 0 -44 17.5t-19 42.5q0 16 10 33l34 55q18 29 49 29q25 0 44 -17.5t19 -42.5q0 -16 -10 -33z" />
    <glyph glyph-name="uniFC32" unicode="&#xfed3;&#xfef2;" horiz-adv-x="1498" arabic-form="isolated" 
d="M1270 901h20q57 0 114 -86q36 -70 36 -152v-14q0 -181 -192 -262q-1 -4 -20 -10v-4h2q149 -19 174 -33q78 -28 78 -92v-6q0 -224 -482 -378q-194 -52 -382 -52q-382 0 -541 166q-66 74 -66 172v6q0 277 508 401q151 30 293 30q103 0 128 -20q0 -3 4 -8v-6q0 -33 -148 -42
q-51 0 -269 -54q-396 -119 -396 -309q0 -107 210 -178q125 -34 277 -34q326 0 606 156q107 72 120 118v8q0 17 -124 28q-184 31 -184 96v10q0 56 90 115q129 53 168 96q22 26 22 58q0 26 -18 26q-47 -8 -70 -8q-82 0 -104 58q-4 18 -4 26v16q0 79 84 142q36 20 66 20z
M1292 1142l-34 -55q-18 -29 -49 -29q-25 0 -44 17.5t-19 42.5q0 16 10 33l34 55q18 29 49 29q25 0 44 -17.5t19 -42.5q0 -16 -10 -33zM813 -434q-84 -36 -202 -36q-107 0 -107 45q0 32 91 46q62 9 171 55q13 6 26 6q58 0 58 -63q0 -38 -37 -53z" />
    <glyph glyph-name="uniFC33" unicode="&#xfed7;&#xfea2;" horiz-adv-x="839" arabic-form="isolated" 
d="M431 834q66 0 112 -98q16 -54 16 -102q0 -140 -130 -203v-2q47 0 123 -39q40 -33 40 -77q0 -79 -183 -186q-27 -20 -159 -106q-118 -92 -118 -170v-16q0 -93 127 -129q57 -16 141 -16h4q203 0 522 56q12 2 24 2q23 -3 23 -9q0 -37 -222 -99q-212 -50 -349 -50
q-269 0 -349 152q-22 44 -22 97v12q0 186 362 382q66 35 98 75v3q-60 18 -230 42q-22 15 -22 41v5q0 62 127 111q93 44 93 95q0 23 -16 23q-28 -5 -43 -5h-23q-65 0 -75 61q0 7 -2 14q0 74 80 125q17 7 51 11zM489 979q-84 -36 -202 -36q-107 0 -107 45q0 32 91 46
q62 9 171 55q13 6 26 6q58 0 58 -63q0 -38 -37 -53z" />
    <glyph glyph-name="uniFC34" unicode="&#xfed7;&#xfee2;" horiz-adv-x="835" arabic-form="isolated" 
d="M698 1071h6q58 0 99 -82q18 -41 18 -93q0 -156 -191 -217q-102 -42 -125 -58q35 -14 35 -51q0 -90 -71 -114q-91 -50 -263 -93q-87 -41 -87 -128q0 -67 81 -262q16 -69 16 -126v-26q-5 -93 -24 -93h-10q-12 8 -12 20v2q0 107 -103 348q-40 116 -40 163q0 110 125 177
q81 24 162 60q0 180 306 273q111 45 111 95q-5 12 -13 12l-56 -6q-67 0 -82 52v28q0 53 60 101q27 18 58 18zM778 1323q-84 -36 -202 -36q-107 0 -107 45q0 32 91 46q62 9 171 55q13 6 26 6q58 0 58 -63q0 -38 -37 -53z" />
    <glyph glyph-name="uniFC35" unicode="&#xfed7;&#xfef0;" horiz-adv-x="1498" arabic-form="isolated" 
d="M1270 901h20q57 0 114 -86q36 -70 36 -152v-14q0 -181 -192 -262q-1 -4 -20 -10v-4h2q149 -19 174 -33q78 -28 78 -92v-6q0 -224 -482 -378q-194 -52 -382 -52q-382 0 -541 166q-66 74 -66 172v6q0 277 508 401q151 30 293 30q103 0 128 -20q0 -3 4 -8v-6q0 -33 -148 -42
q-51 0 -269 -54q-396 -119 -396 -309q0 -107 210 -178q125 -34 277 -34q326 0 606 156q107 72 120 118v8q0 17 -124 28q-184 31 -184 96v10q0 56 90 115q129 53 168 96q22 26 22 58q0 26 -18 26q-47 -8 -70 -8q-82 0 -104 58q-4 18 -4 26v16q0 79 84 142q36 20 66 20z
M1372 1116q-84 -36 -202 -36q-107 0 -107 45q0 32 91 46q62 9 171 55q13 6 26 6q58 0 58 -63q0 -38 -37 -53z" />
    <glyph glyph-name="uniFC36" unicode="&#xfed7;&#xfef2;" horiz-adv-x="1498" arabic-form="isolated" 
d="M1270 901h20q57 0 114 -86q36 -70 36 -152v-14q0 -181 -192 -262q-1 -4 -20 -10v-4h2q149 -19 174 -33q78 -28 78 -92v-6q0 -224 -482 -378q-194 -52 -382 -52q-382 0 -541 166q-66 74 -66 172v6q0 277 508 401q151 30 293 30q103 0 128 -20q0 -3 4 -8v-6q0 -33 -148 -42
q-51 0 -269 -54q-396 -119 -396 -309q0 -107 210 -178q125 -34 277 -34q326 0 606 156q107 72 120 118v8q0 17 -124 28q-184 31 -184 96v10q0 56 90 115q129 53 168 96q22 26 22 58q0 26 -18 26q-47 -8 -70 -8q-82 0 -104 58q-4 18 -4 26v16q0 79 84 142q36 20 66 20z
M1361 1092q-84 -36 -202 -36q-107 0 -107 45q0 32 91 46q62 9 171 55q13 6 26 6q58 0 58 -63q0 -38 -37 -53zM716 -541q-84 -36 -202 -36q-107 0 -107 45q0 32 91 46q62 9 171 55q13 6 26 6q58 0 58 -63q0 -38 -37 -53z" />
    <glyph glyph-name="uniFC37" unicode="&#xfb90;&#xfe8e;" horiz-adv-x="700" arabic-form="isolated" 
d="M743 1214h9q52 0 52 -52q-15 -73 -149 -248q-95 -103 -141 -135q-98 -72 -187 -110q-46 -22 -67 -22h-10q-21 0 -21 18v4q0 28 75 76q73 52 194 171q128 141 179 238q25 60 66 60zM82 997h7q39 0 39 -71q2 -1 44 -441q110 86 187 99q26 5 64 6q144 0 193 -141
q9 -34 9 -62v-8q0 -208 -259 -308q-54 -18 -101 -18q-146 0 -175 91q-5 0 -19 225q-31 315 -62 554q0 52 59 73q6 1 14 1zM187 346q12 -159 19 -159q17 -15 59 -15q96 0 200 99q41 52 41 103v13q0 85 -85 85q-87 0 -202 -103q-28 -23 -32 -23z" />
    <glyph glyph-name="uniFC3B" unicode="&#xfb90;&#xfede;" horiz-adv-x="2002" arabic-form="isolated" 
d="M1992 1186h13q52 0 52 -52q-18 -70 -119 -207q-107 -137 -213 -202q-154 -100 -213 -101q-26 3 -26 21q0 29 99 95q70 50 207 192q113 138 161 235q21 19 39 19zM1318 897q60 0 60 -92l34 -356q137 119 265 119h7q137 0 187 -140q7 -33 9 -67q0 -213 -271 -313
q-46 -10 -69 -10h-39q-30 0 -61 8q-12 -91 -45 -153q-86 -169 -373 -263q-172 -51 -372 -51q-320 0 -519 127q-119 87 -119 220q0 273 489 366q142 19 265 19q218 0 218 -41v-8q0 -28 -108 -35q-157 0 -424 -56q-321 -92 -321 -239v-6q0 -172 385 -222q67 -7 129 -7h18
q335 0 545 155q116 102 116 237q-8 157 -69 759q0 49 63 49zM1430 322h-5v-2q8 -132 18 -132q0 -34 79 -34q101 0 205 106q35 49 35 105q0 73 -67 84q-15 0 -18 2q-88 0 -228 -125q-14 -4 -19 -4z" />
    <glyph glyph-name="uniFC3C" unicode="&#xfb90;&#xfee2;" horiz-adv-x="902" arabic-form="isolated" 
d="M965 1419q60 0 60 -55q0 -40 -139 -180q-161 -145 -207 -155q-144 -76 -194 -76q-19 6 -19 22q0 34 145 120q60 48 212 190q25 26 109 123q19 11 33 11zM458 901h8q41 0 46 -107q11 -141 17 -213q0 -9 -9 -117h58q93 -9 93 -66v-14q0 -106 -71 -136q-122 -69 -353 -126
q-112 -54 -112 -153v-25q0 -76 99 -319q24 -86 24 -186q-6 -134 -33 -134h-5q-25 0 -25 69q0 89 -134 420q-46 131 -46 194q0 148 167 232q70 20 202 71q0 55 38 156v11q0 134 -33 366v14q23 63 69 63z" />
    <glyph glyph-name="uniFC3D" unicode="&#xfb90;&#xfbfd;" horiz-adv-x="1699" arabic-form="isolated" 
d="M1638 1427h8q51 -3 51 -38v-21q-28 -80 -211 -236q-19 -18 -130 -71q-109 -52 -141 -52q-14 0 -22 14v8q0 34 79 76q180 117 233 196q28 23 103 113q14 11 30 11zM1188 947q29 0 35 -84q22 -69 38 -259q0 -86 -78 -149v-3h2q214 -18 214 -102v-27q0 -166 -341 -309
q-231 -84 -457 -84h-32q-394 0 -525 203q-27 56 -27 114v5q0 274 517 384q108 19 208 19h70q81 -3 81 -24v-5q0 -34 -148 -41q-614 -104 -614 -344q0 -105 232 -173q108 -21 222 -21q339 0 606 167q76 64 78 90v8q0 14 -143 30q-146 28 -146 89v8q0 56 89 84q73 43 73 84
q0 57 -38 259q0 48 65 81h19z" />
    <glyph glyph-name="uniFC3E" unicode="&#xfb90;&#xfef2;" horiz-adv-x="1699" arabic-form="isolated" 
d="M1638 1427h8q51 -3 51 -38v-21q-28 -80 -211 -236q-19 -18 -130 -71q-109 -52 -141 -52q-14 0 -22 14v8q0 34 79 76q180 117 233 196q28 23 103 113q14 11 30 11zM1188 947q29 0 35 -84q22 -69 38 -259q0 -86 -78 -149v-3h2q214 -18 214 -102v-27q0 -166 -341 -309
q-231 -84 -457 -84h-32q-394 0 -525 203q-27 56 -27 114v5q0 274 517 384q108 19 208 19h70q81 -3 81 -24v-5q0 -34 -148 -41q-614 -104 -614 -344q0 -105 232 -173q108 -21 222 -21q339 0 606 167q76 64 78 90v8q0 14 -143 30q-146 28 -146 89v8q0 56 89 84q73 43 73 84
q0 57 -38 259q0 48 65 81h19zM770 -480q-84 -36 -202 -36q-107 0 -107 45q0 32 91 46q62 9 171 55q13 6 26 6q58 0 58 -63q0 -38 -37 -53z" />
    <glyph glyph-name="uniFC3F" unicode="&#xfedf;&#xfe9e;" horiz-adv-x="698" arabic-form="isolated" 
d="M436 1058h12q24 0 27 -45q29 -215 57 -554q0 -64 -46 -117v-2q80 -11 131 -41q52 -36 52 -87v-14q0 -86 -245 -231q-158 -104 -187 -128q-103 -93 -103 -175v-7q0 -109 127 -151q75 -25 192 -25q229 0 606 65q11 2 26 2q29 -2 29 -11q0 -36 -217 -102q-275 -71 -442 -71
q-330 3 -415 184q-22 50 -22 114q0 231 449 466q54 32 84 67l3 7q-55 22 -262 48q-33 12 -33 56q0 48 71 70q85 43 85 89q-13 195 -51 509q0 48 60 82zM531 -277l-34 -55q-18 -29 -49 -29q-25 0 -44 17.5t-19 42.5q0 16 10 33l34 55q18 29 49 29q25 0 44 -17.5t19 -42.5
q0 -16 -10 -33z" />
    <glyph glyph-name="uniFC40" unicode="&#xfedf;&#xfea2;" horiz-adv-x="698" arabic-form="isolated" 
d="M436 1058h12q24 0 27 -45q29 -215 57 -554q0 -64 -46 -117v-2q80 -11 131 -41q52 -36 52 -87v-14q0 -86 -245 -231q-158 -104 -187 -128q-103 -93 -103 -175v-7q0 -109 127 -151q75 -25 192 -25q229 0 606 65q11 2 26 2q29 -2 29 -11q0 -36 -217 -102q-275 -71 -442 -71
q-330 3 -415 184q-22 50 -22 114q0 231 449 466q54 32 84 67l3 7q-55 22 -262 48q-33 12 -33 56q0 48 71 70q85 43 85 89q-13 195 -51 509q0 48 60 82z" />
    <glyph glyph-name="uniFC41" unicode="&#xfedf;&#xfea6;" horiz-adv-x="698" arabic-form="isolated" 
d="M436 1058h12q24 0 27 -45q29 -215 57 -554q0 -64 -46 -117v-2q80 -11 131 -41q52 -36 52 -87v-14q0 -86 -245 -231q-158 -104 -187 -128q-103 -93 -103 -175v-7q0 -109 127 -151q75 -25 192 -25q229 0 606 65q11 2 26 2q29 -2 29 -11q0 -36 -217 -102q-275 -71 -442 -71
q-330 3 -415 184q-22 50 -22 114q0 231 449 466q54 32 84 67l3 7q-55 22 -262 48q-33 12 -33 56q0 48 71 70q85 43 85 89q-13 195 -51 509q0 48 60 82zM283 659l-34 -55q-18 -29 -49 -29q-25 0 -44 17.5t-19 42.5q0 16 10 33l34 55q18 29 49 29q25 0 44 -17.5t19 -42.5
q0 -16 -10 -33z" />
    <glyph glyph-name="uniFC42" unicode="&#xfedf;&#xfee2;" horiz-adv-x="693" arabic-form="isolated" 
d="M453 834q36 -4 36 -35q17 -260 42 -488v-36q0 -49 -8 -87q12 0 43 1q107 0 107 -77q0 -108 -72 -137q-122 -66 -251 -98q-112 -26 -143 -53q-66 -51 -66 -137t75 -268q47 -106 47 -241q-5 -136 -31 -136l-8 -1q-20 0 -20 52q0 104 -119 389q-63 171 -63 233
q0 146 163 230q99 30 201 73q8 72 24 104q17 27 17 72q-41 429 -50 560q0 49 57 77q12 3 19 3z" />
    <glyph glyph-name="uniFC43" unicode="&#xfedf;&#xfef0;" horiz-adv-x="1299" arabic-form="isolated" 
d="M1068 916h9q29 0 29 -57q26 -178 50 -495v-7q0 -78 -74 -128v-2q164 -17 187 -59q17 -18 17 -46v-6q0 -194 -417 -327q-167 -45 -331 -45q-329 0 -467 144q-57 63 -57 149v5q0 240 440 346q130 26 252 26q90 0 111 -17q0 -3 3 -7v-5q0 -29 -128 -37q-43 0 -232 -46
q-342 -102 -342 -267q0 -93 182 -154q108 -29 238 -29q283 0 525 135q92 62 104 102v7q0 14 -108 24q-159 27 -159 83v9q0 38 42 62q107 42 107 95q0 55 -47 469v4q0 41 56 72z" />
    <glyph glyph-name="uniFC44" unicode="&#xfedf;&#xfef2;" horiz-adv-x="982" arabic-form="isolated" 
d="M1068 916h9q29 0 29 -57q26 -178 50 -495v-7q0 -78 -74 -128v-2q164 -17 187 -59q17 -18 17 -46v-6q0 -194 -417 -327q-167 -45 -331 -45q-329 0 -467 144q-57 63 -57 149v5q0 240 440 346q130 26 252 26q90 0 111 -17q0 -3 3 -7v-5q0 -29 -128 -37q-43 0 -232 -46
q-342 -102 -342 -267q0 -93 182 -154q108 -29 238 -29q283 0 525 135q92 62 104 102v7q0 14 -108 24q-159 27 -159 83v9q0 38 42 62q107 42 107 95q0 55 -47 469v4q0 41 56 72zM606 -546q-84 -36 -202 -36q-107 0 -107 45q0 32 91 46q62 9 171 55q13 6 26 6q58 0 58 -63
q0 -38 -37 -53z" />
    <glyph glyph-name="uniFC48" unicode="&#xfee3;&#xfee2;" horiz-adv-x="1070" arabic-form="isolated" 
d="M935 827h12q79 0 101 -61q3 -15 3 -23q0 -94 -49 -124q-98 -55 -321 -118q-46 -17 -84 -37q42 -22 42 -59v-14q0 -95 -71 -125q-117 -63 -260 -98q-172 -35 -172 -169v-5q0 -88 91 -303q25 -93 25 -179q0 -113 -32 -130h-5q-20 0 -20 34v8q0 110 -112 376
q-59 157 -59 223v1q0 136 150 215q91 27 196 71v2q0 207 344 322q55 14 67 19q0 95 64 150q36 24 90 24z" />
    <glyph glyph-name="uniFC49" unicode="&#xfee3;&#xfef0;" horiz-adv-x="1630" arabic-form="isolated" 
d="M1512 783q81 0 105 -58q4 -14 4 -29q0 -116 -84 -140q-87 -42 -326 -114q-69 -32 -116 -82v-2q186 -23 213 -43q51 -29 51 -71v-12q0 -193 -400 -332q-185 -60 -382 -60h-31q-417 7 -518 217q-18 42 -18 84v17q0 251 472 365q127 25 260 25h23q101 0 101 -29
q0 -30 -99 -35q-142 -17 -233 -41q-413 -106 -413 -300q0 -86 165 -150q116 -40 279 -40q305 0 565 147q103 73 103 111q0 16 -107 25q-177 28 -177 91v6q0 53 111 147q70 53 169 92q59 19 120 34q0 102 70 156q35 21 93 21z" />
    <glyph glyph-name="uniFC4A" unicode="&#xfee3;&#xfef2;" horiz-adv-x="1630" arabic-form="isolated" 
d="M1512 783q81 0 105 -58q4 -14 4 -29q0 -116 -84 -140q-87 -42 -326 -114q-69 -32 -116 -82v-2q186 -23 213 -43q51 -29 51 -71v-12q0 -193 -400 -332q-185 -60 -382 -60h-31q-417 7 -518 217q-18 42 -18 84v17q0 251 472 365q127 25 260 25h23q101 0 101 -29
q0 -30 -99 -35q-142 -17 -233 -41q-413 -106 -413 -300q0 -86 165 -150q116 -40 279 -40q305 0 565 147q103 73 103 111q0 16 -107 25q-177 28 -177 91v6q0 53 111 147q70 53 169 92q59 19 120 34q0 102 70 156q35 21 93 21zM716 -541q-84 -36 -202 -36q-107 0 -107 45
q0 32 91 46q62 9 171 55q13 6 26 6q58 0 58 -63q0 -38 -37 -53z" />
    <glyph glyph-name="uniFC4B" unicode="&#xfee7;&#xfe9e;" horiz-adv-x="861" arabic-form="isolated" 
d="M755 520q109 0 109 -67v-2q0 -52 -51 -72q-32 -8 -83 -8q-85 2 -85 5q-4 3 -12 5q-66 -24 -148 -89q-54 -49 -70 -72v-1q84 -8 119 -19q35 -10 61 -24q16 -7 34 -27q23 -33 23 -64q0 -79 -158 -178l-222 -146q-67 -55 -92 -95q-31 -47 -31 -89v-10q0 -84 87 -129
q78 -35 212 -35q162 0 444 39q93 17 124 22q9 1 22 1h9q1 0 1 -1v-32q-40 -27 -145 -62q-276 -76 -455 -76q-265 0 -365 133q-43 62 -43 138v12q0 146 203 299q77 56 151 98q76 39 131 82q17 16 19 25q-29 15 -185 37q-50 6 -64 11q-17 8 -23 22q-7 12 -7 25q0 21 25 55
q24 42 85 110q64 62 95 80q144 99 285 99zM807 883l-34 -55q-18 -29 -49 -29q-25 0 -44 17.5t-19 42.5q0 16 10 33l34 55q18 29 49 29q25 0 44 -17.5t19 -42.5q0 -16 -10 -33zM684 -272l-34 -55q-18 -29 -49 -29q-25 0 -44 17.5t-19 42.5q0 16 10 33l34 55q18 29 49 29
q25 0 44 -17.5t19 -42.5q0 -16 -10 -33z" />
    <glyph glyph-name="uniFC4C" unicode="&#xfee7;&#xfea2;" horiz-adv-x="861" arabic-form="isolated" 
d="M755 520q109 0 109 -67v-2q0 -52 -51 -72q-32 -8 -83 -8q-85 2 -85 5q-4 3 -12 5q-66 -24 -148 -89q-54 -49 -70 -72v-1q84 -8 119 -19q35 -10 61 -24q16 -7 34 -27q23 -33 23 -64q0 -79 -158 -178l-222 -146q-67 -55 -92 -95q-31 -47 -31 -89v-10q0 -84 87 -129
q78 -35 212 -35q162 0 444 39q93 17 124 22q9 1 22 1h9q1 0 1 -1v-32q-40 -27 -145 -62q-276 -76 -455 -76q-265 0 -365 133q-43 62 -43 138v12q0 146 203 299q77 56 151 98q76 39 131 82q17 16 19 25q-29 15 -185 37q-50 6 -64 11q-17 8 -23 22q-7 12 -7 25q0 21 25 55
q24 42 85 110q64 62 95 80q144 99 285 99zM650 931l-34 -55q-18 -29 -49 -29q-25 0 -44 17.5t-19 42.5q0 16 10 33l34 55q18 29 49 29q25 0 44 -17.5t19 -42.5q0 -16 -10 -33z" />
    <glyph glyph-name="uniFC4D" unicode="&#xfee7;&#xfea6;" horiz-adv-x="861" arabic-form="isolated" 
d="M755 520q109 0 109 -67v-2q0 -52 -51 -72q-32 -8 -83 -8q-85 2 -85 5q-4 3 -12 5q-66 -24 -148 -89q-54 -49 -70 -72v-1q84 -8 119 -19q35 -10 61 -24q16 -7 34 -27q23 -33 23 -64q0 -79 -158 -178l-222 -146q-67 -55 -92 -95q-31 -47 -31 -89v-10q0 -84 87 -129
q78 -35 212 -35q162 0 444 39q93 17 124 22q9 1 22 1h9q1 0 1 -1v-32q-40 -27 -145 -62q-276 -76 -455 -76q-265 0 -365 133q-43 62 -43 138v12q0 146 203 299q77 56 151 98q76 39 131 82q17 16 19 25q-29 15 -185 37q-50 6 -64 11q-17 8 -23 22q-7 12 -7 25q0 21 25 55
q24 42 85 110q64 62 95 80q144 99 285 99zM641 923l-34 -55q-18 -29 -49 -29q-25 0 -44 17.5t-19 42.5q0 16 10 33l34 55q18 29 49 29q25 0 44 -17.5t19 -42.5q0 -16 -10 -33zM282 590l-34 -55q-18 -29 -49 -29q-25 0 -44 17.5t-19 42.5q0 16 10 33l34 55q18 29 49 29
q25 0 44 -17.5t19 -42.5q0 -16 -10 -33z" />
    <glyph glyph-name="uniFC4E" unicode="&#xfee7;&#xfee2;" horiz-adv-x="871" arabic-form="isolated" 
d="M751 746q96 0 96 -58v-5q0 -51 -52 -64q-20 -4 -67 -6q-81 3 -81 8h-5q-70 -24 -153 -99q-9 -11 -9 -12q22 0 47 -27q5 -11 8 -31q0 -60 -31 -94q-132 -75 -216 -91q-127 -30 -150 -69q-31 -35 -31 -83v-13q0 -64 75 -245q23 -70 23 -146v-17q0 -104 -31 -104
q-18 0 -18 56q0 69 -102 323q-41 113 -41 156v18q0 105 128 174q123 38 165 62q0 118 170 262q141 105 275 105zM695 1078l-34 -55q-18 -29 -49 -29q-25 0 -44 17.5t-19 42.5q0 16 10 33l34 55q18 29 49 29q25 0 44 -17.5t19 -42.5q0 -16 -10 -33z" />
    <glyph glyph-name="uniFC4F" unicode="&#xfee7;&#xfef0;" horiz-adv-x="1330" arabic-form="isolated" 
d="M1093 773q55 0 80 -104q21 -66 21 -162v-8q0 -97 -49 -133q0 -4 -19 -20q138 -20 138 -31q54 -25 54 -68v-21q0 -96 -137 -192q-76 -53 -219 -106q-193 -63 -374 -63h-38q-327 0 -461 158q-46 61 -46 136q0 244 445 350q117 25 245 25h24q95 0 95 -29q0 -30 -135 -36
q-164 -26 -269 -61q-299 -99 -299 -250v-8q0 -79 150 -139q112 -40 270 -40q287 0 532 139q99 72 99 103q0 18 -105 26q-165 25 -165 91q12 67 63 67q116 40 116 101v3q0 40 -69 198q-4 7 -4 15v10q0 49 57 49zM992 978l-34 -55q-18 -29 -49 -29q-25 0 -44 17.5t-19 42.5
q0 16 10 33l34 55q18 29 49 29q25 0 44 -17.5t19 -42.5q0 -16 -10 -33zM651 835q0 -42 -7 -71q-10 -41 -25 -41t-15 35q0 58 -14 89q-15 23 -39 66q-4 10 -4 19q0 31 27 31q16 0 32 -16q45 -46 45 -112z" />
    <glyph glyph-name="uniFC50" unicode="&#xfee7;&#xfef2;" horiz-adv-x="1335" arabic-form="isolated" 
d="M1093 773q55 0 80 -104q21 -66 21 -162v-8q0 -97 -49 -133q0 -4 -19 -20q138 -20 138 -31q54 -25 54 -68v-21q0 -96 -137 -192q-76 -53 -219 -106q-193 -63 -374 -63h-38q-327 0 -461 158q-46 61 -46 136q0 244 445 350q117 25 245 25h24q95 0 95 -29q0 -30 -135 -36
q-164 -26 -269 -61q-299 -99 -299 -250v-8q0 -79 150 -139q112 -40 270 -40q287 0 532 139q99 72 99 103q0 18 -105 26q-165 25 -165 91q12 67 63 67q116 40 116 101v3q0 40 -69 198q-4 7 -4 15v10q0 49 57 49zM931 850l-34 -55q-18 -29 -49 -29q-25 0 -44 17.5t-19 42.5
q0 16 10 33l34 55q18 29 49 29q25 0 44 -17.5t19 -42.5q0 -16 -10 -33zM746 -409q-84 -36 -202 -36q-107 0 -107 45q0 32 91 46q62 9 171 55q13 6 26 6q58 0 58 -63q0 -38 -37 -53z" />
    <glyph glyph-name="uniFC51" unicode="&#xfeeb;&#xfe9e;" horiz-adv-x="1089" arabic-form="isolated" 
d="M847 1093q119 0 185 -253q35 -121 35 -228q0 -100 -59 -138q-61 -58 -186 -88q-69 -15 -135 -15h-39l-11 2q-131 -46 -174 -82q-17 -12 -39 -34v-2q108 -10 152 -31q53 -16 78 -51q19 -38 19 -63q0 -94 -235 -232q-169 -111 -200 -137q-108 -93 -108 -182v-2
q0 -120 147 -160q79 -21 176 -21q210 0 565 58q41 10 75 10q29 -2 29 -8v-2q0 -37 -208 -100q-275 -74 -447 -74h-33q-291 0 -392 171q-29 57 -29 129q0 216 384 432q86 45 146 96q12 14 12 19q-54 22 -239 44q-59 8 -59 56q-2 0 -2 2q0 53 135 166q76 52 111 64
q-9 26 -9 41v11q0 97 128 187q47 23 82 23q75 0 106 -74q3 -17 3 -31v-3q0 -43 -29 -102h2q22 0 109 39q51 27 60 60l5 39q0 49 -53 240q-35 94 -71 94q-59 0 -178 -134q-35 -60 -63 -60h-12q-19 0 -22 27v14q9 69 126 198q89 85 162 85zM607 514v-8q0 -13 15 -19
q50 17 73 58q12 25 12 34q0 11 -20 14q-43 0 -79 -67zM532 -281h15q31 0 51 -41q2 -6 2 -13v-11q0 -17 -51 -92q-18 -15 -40 -15q-42 0 -59 44q-2 9 -2 17q0 22 53 98q19 13 31 13z" />
    <glyph glyph-name="uniFC52" unicode="&#xfeeb;&#xfee2;" horiz-adv-x="1165" arabic-form="isolated" 
d="M943 1093q142 0 205 -380q5 -37 5 -83q0 -79 -35 -111q-118 -120 -347 -120q-9 0 -33 2q-133 -48 -166 -80q52 -15 52 -52q2 0 2 -12q0 -104 -64 -128q-121 -70 -295 -110q-78 -21 -115 -69q-28 -43 -28 -90v-12q0 -77 77 -261q38 -93 38 -199v-28q-5 -114 -30 -114h-12
q-11 0 -15 41l1 9q0 95 -119 385q-51 142 -51 194v11q0 133 151 211q16 0 193 70q0 150 199 270q23 16 52 28v2q-7 22 -7 36v12q0 96 129 183q38 17 67 17h14q55 0 89 -57q7 -19 8 -44q0 -41 -29 -100q114 27 156 76q12 26 12 54v7q0 62 -57 248q-31 69 -61 69
q-59 0 -171 -132q-34 -55 -63 -55h-3q-28 0 -28 36q1 53 111 182q92 94 168 94zM711 536v-7q0 -9 12 -17h2q42 12 64 43q15 27 19 42q0 16 -21 16q-42 0 -75 -66z" />
    <glyph glyph-name="uniFC53" unicode="&#xfeeb;&#xfef0;" horiz-adv-x="1798" arabic-form="isolated" 
d="M1569 1094q147 0 211 -395q4 -25 4 -61v-35q0 -82 -63 -125q-128 -98 -322 -98q-20 2 -39 2q-147 -50 -197 -99q-38 -40 -38 -43q217 -30 217 -44q55 -27 55 -75v-8q0 -212 -455 -355q-172 -47 -348 -47h-15q-386 0 -521 187q-36 57 -36 127v6q0 264 488 378
q125 24 260 24h20q104 0 104 -31q0 -27 -85 -34q-98 0 -341 -67q-333 -108 -333 -274v-6q0 -104 213 -168q106 -26 240 -26q315 0 575 150q106 77 106 109q0 20 -110 29q-180 28 -180 93v4q0 56 120 158q83 64 127 79q-8 18 -10 47q0 86 102 170q53 41 107 41q75 0 103 -73
q5 -9 5 -33q0 -44 -29 -101h2q28 0 126 49q45 26 45 87q-20 158 -67 275q-29 55 -55 55q-61 0 -177 -136q-36 -56 -60 -56h-9q-26 3 -26 24v16q8 66 120 191q88 89 166 89zM1330 520v-4q0 -10 14 -20q53 16 75 61q10 18 10 32q-4 10 -16 10h-2q-50 0 -79 -69q-2 -3 -2 -10z
" />
    <glyph glyph-name="uniFC54" unicode="&#xfeeb;&#xfef2;" horiz-adv-x="1798" arabic-form="isolated" 
d="M1569 1094q147 0 211 -395q4 -25 4 -61v-35q0 -82 -63 -125q-128 -98 -322 -98q-20 2 -39 2q-147 -50 -197 -99q-38 -40 -38 -43q217 -30 217 -44q55 -27 55 -75v-8q0 -212 -455 -355q-172 -47 -348 -47h-15q-386 0 -521 187q-36 57 -36 127v6q0 264 488 378
q125 24 260 24h20q104 0 104 -31q0 -27 -85 -34q-98 0 -341 -67q-333 -108 -333 -274v-6q0 -104 213 -168q106 -26 240 -26q315 0 575 150q106 77 106 109q0 20 -110 29q-180 28 -180 93v4q0 56 120 158q83 64 127 79q-8 18 -10 47q0 86 102 170q53 41 107 41q75 0 103 -73
q5 -9 5 -33q0 -44 -29 -101h2q28 0 126 49q45 26 45 87q-20 158 -67 275q-29 55 -55 55q-61 0 -177 -136q-36 -56 -60 -56h-9q-26 3 -26 24v16q8 66 120 191q88 89 166 89zM1330 520v-4q0 -10 14 -20q53 16 75 61q10 18 10 32q-4 10 -16 10h-2q-50 0 -79 -69q-2 -3 -2 -10z
M854 -495q-84 -36 -202 -36q-107 0 -107 45q0 32 91 46q62 9 171 55q13 6 26 6q58 0 58 -63q0 -38 -37 -53z" />
    <glyph glyph-name="uniFC55" unicode="&#xfbfe;&#xfe9e;" horiz-adv-x="958" arabic-form="isolated" 
d="M755 520q109 0 109 -67v-2q0 -52 -51 -72q-32 -8 -83 -8q-85 2 -85 5q-4 3 -12 5q-66 -24 -148 -89q-54 -49 -70 -72v-1q84 -8 119 -19q35 -10 61 -24q16 -7 34 -27q23 -33 23 -64q0 -79 -158 -178l-222 -146q-67 -55 -92 -95q-31 -47 -31 -89v-10q0 -84 87 -129
q78 -35 212 -35q162 0 444 39q93 17 124 22q9 1 22 1h9q1 0 1 -1v-32q-40 -27 -145 -62q-276 -76 -455 -76q-265 0 -365 133q-43 62 -43 138v12q0 146 203 299q77 56 151 98q76 39 131 82q17 16 19 25q-29 15 -185 37q-50 6 -64 11q-17 8 -23 22q-7 12 -7 25q0 21 25 55
q24 42 85 110q64 62 95 80q144 99 285 99zM908 234q-84 -36 -202 -36q-107 0 -107 45q0 32 91 46q62 9 171 55q13 6 26 6q58 0 58 -63q0 -38 -37 -53zM684 -272l-34 -55q-18 -29 -49 -29q-25 0 -44 17.5t-19 42.5q0 16 10 33l34 55q18 29 49 29q25 0 44 -17.5t19 -42.5
q0 -16 -10 -33z" />
    <glyph glyph-name="uniFC56" unicode="&#xfbfe;&#xfea2;" horiz-adv-x="978" arabic-form="isolated" 
d="M755 520q109 0 109 -67v-2q0 -52 -51 -72q-32 -8 -83 -8q-85 2 -85 5q-4 3 -12 5q-66 -24 -148 -89q-54 -49 -70 -72v-1q84 -8 119 -19q35 -10 61 -24q16 -7 34 -27q23 -33 23 -64q0 -79 -158 -178l-222 -146q-67 -55 -92 -95q-31 -47 -31 -89v-10q0 -84 87 -129
q78 -35 212 -35q162 0 444 39q93 17 124 22q9 1 22 1h9q1 0 1 -1v-32q-40 -27 -145 -62q-276 -76 -455 -76q-265 0 -365 133q-43 62 -43 138v12q0 146 203 299q77 56 151 98q76 39 131 82q17 16 19 25q-29 15 -185 37q-50 6 -64 11q-17 8 -23 22q-7 12 -7 25q0 21 25 55
q24 42 85 110q64 62 95 80q144 99 285 99zM922 200q-84 -36 -202 -36q-107 0 -107 45q0 32 91 46q62 9 171 55q13 6 26 6q58 0 58 -63q0 -38 -37 -53z" />
    <glyph glyph-name="uniFC57" unicode="&#xfbfe;&#xfea6;" horiz-adv-x="978" arabic-form="isolated" 
d="M755 520q109 0 109 -67v-2q0 -52 -51 -72q-32 -8 -83 -8q-85 2 -85 5q-4 3 -12 5q-66 -24 -148 -89q-54 -49 -70 -72v-1q84 -8 119 -19q35 -10 61 -24q16 -7 34 -27q23 -33 23 -64q0 -79 -158 -178l-222 -146q-67 -55 -92 -95q-31 -47 -31 -89v-10q0 -84 87 -129
q78 -35 212 -35q162 0 444 39q93 17 124 22q9 1 22 1h9q1 0 1 -1v-32q-40 -27 -145 -62q-276 -76 -455 -76q-265 0 -365 133q-43 62 -43 138v12q0 146 203 299q77 56 151 98q76 39 131 82q17 16 19 25q-29 15 -185 37q-50 6 -64 11q-17 8 -23 22q-7 12 -7 25q0 21 25 55
q24 42 85 110q64 62 95 80q144 99 285 99zM932 192q-84 -36 -202 -36q-107 0 -107 45q0 32 91 46q62 9 171 55q13 6 26 6q58 0 58 -63q0 -38 -37 -53zM384 708l-34 -55q-18 -29 -49 -29q-25 0 -44 17.5t-19 42.5q0 16 10 33l34 55q18 29 49 29q25 0 44 -17.5t19 -42.5
q0 -16 -10 -33z" />
    <glyph glyph-name="uniFC58" unicode="&#xfbfe;&#xfee2;" horiz-adv-x="866" arabic-form="isolated" 
d="M751 746q96 0 96 -58v-5q0 -51 -52 -64q-20 -4 -67 -6q-81 3 -81 8h-5q-70 -24 -153 -99q-9 -11 -9 -12q22 0 47 -27q5 -11 8 -31q0 -60 -31 -94q-132 -75 -216 -91q-127 -30 -150 -69q-31 -35 -31 -83v-13q0 -64 75 -245q23 -70 23 -146v-17q0 -104 -31 -104
q-18 0 -18 56q0 69 -102 323q-41 113 -41 156v18q0 105 128 174q123 38 165 62q0 118 170 262q141 105 275 105zM790 127q-84 -36 -202 -36q-107 0 -107 45q0 32 91 46q62 9 171 55q13 6 26 6q58 0 58 -63q0 -38 -37 -53z" />
    <glyph glyph-name="uniFC66" unicode="&#xfe8c;&#xfee2;" horiz-adv-x="1053" arabic-form="final" 
d="M901 293q83 0 105 -64q16 -93 50 -93q19 -5 19 -10v-105q0 -5 -5 -5q-92 0 -141 77q-11 28 -21 71q-12 10 -29 10q-120 0 -296 -146q28 0 53 -43q2 -13 2 -21v-5q0 -83 -43 -114q-127 -76 -314 -122q-85 -21 -120 -71q-26 -47 -26 -94q0 -86 93 -307q24 -88 24 -177
q0 -126 -36 -126h-7q-17 0 -17 88q-24 115 -88 277q-81 196 -81 272q0 140 157 219q85 24 189 69q0 188 334 372q112 48 198 48zM808 715q0 -58 -62.5 -108.5t-121.5 -50.5q-33 0 -33 31q0 25 27 35q86 31 104 80q-73 18 -73 61q0 35 35 79q30 38 66 60q12 7 25 7
q37 0 37 -31q0 -16 -17 -30q-47 -37 -61 -73q43 -12 50 -16q24 -13 24 -44z" />
    <glyph glyph-name="uniFC68" unicode="&#xfe8c;&#xfef0;" horiz-adv-x="1671" arabic-form="final" 
d="M1504 318h13q86 0 107 -81q9 -81 52 -81q22 -3 22 -8v-108q0 -4 -4 -4q-113 0 -157 85q-14 53 -22 70q-11 7 -24 7q-134 0 -333 -173l-32 -39q220 -29 220 -46q51 -26 51 -72v-13q0 -192 -398 -333q-194 -63 -378 -63h-68q-292 0 -452 138q-77 76 -77 179q0 267 496 380
q121 22 223 22h68q83 0 83 -28v-2q0 -33 -151 -40q-605 -103 -605 -341q0 -96 194 -162q108 -30 230 -30h50q274 0 535 138q106 69 123 118q0 19 -66 26q-225 21 -225 103q9 66 142 188q211 170 383 170zM1489 697q0 -58 -62.5 -108.5t-121.5 -50.5q-33 0 -33 31q0 25 27 35
q86 31 104 80q-73 18 -73 61q0 35 35 79q30 38 66 60q12 7 25 7q37 0 37 -31q0 -16 -17 -30q-47 -37 -61 -73q43 -12 50 -16q24 -13 24 -44zM793 432q0 -42 -7 -71q-10 -41 -25 -41t-15 35q0 58 -14 89q-15 23 -39 66q-4 10 -4 19q0 31 27 31q16 0 32 -16q45 -46 45 -112z
" />
    <glyph glyph-name="uniFC69" unicode="&#xfe8c;&#xfef2;" horiz-adv-x="1666" arabic-form="final" 
d="M1504 318h13q86 0 107 -81q9 -81 52 -81q22 -3 22 -8v-108q0 -4 -4 -4q-113 0 -157 85q-14 53 -22 70q-11 7 -24 7q-134 0 -333 -173l-32 -39q220 -29 220 -46q51 -26 51 -72v-13q0 -192 -398 -333q-194 -63 -378 -63h-68q-292 0 -452 138q-77 76 -77 179q0 267 496 380
q121 22 223 22h68q83 0 83 -28v-2q0 -33 -151 -40q-605 -103 -605 -341q0 -96 194 -162q108 -30 230 -30h50q274 0 535 138q106 69 123 118q0 19 -66 26q-225 21 -225 103q9 66 142 188q211 170 383 170zM1421 716q0 -58 -62.5 -108.5t-121.5 -50.5q-33 0 -33 31q0 25 27 35
q86 31 104 80q-73 18 -73 61q0 35 35 79q30 38 66 60q12 7 25 7q37 0 37 -31q0 -16 -17 -30q-47 -37 -61 -73q43 -12 50 -16q24 -13 24 -44zM687 -773q-84 -36 -202 -36q-107 0 -107 45q0 32 91 46q62 9 171 55q13 6 26 6q58 0 58 -63q0 -38 -37 -53z" />
    <glyph glyph-name="uniFC6C" unicode="&#xfe92;&#xfee2;" horiz-adv-x="1053" arabic-form="final" 
d="M901 293q83 0 105 -64q16 -93 50 -93q19 -5 19 -10v-105q0 -5 -5 -5q-92 0 -141 77q-11 28 -21 71q-12 10 -29 10q-120 0 -296 -146q28 0 53 -43q2 -13 2 -21v-5q0 -83 -43 -114q-127 -76 -314 -122q-85 -21 -120 -71q-26 -47 -26 -94q0 -86 93 -307q24 -88 24 -177
q0 -126 -36 -126h-7q-17 0 -17 88q-24 115 -88 277q-81 196 -81 272q0 140 157 219q85 24 189 69q0 188 334 372q112 48 198 48zM936 -251l-34 -55q-18 -29 -49 -29q-25 0 -44 17.5t-19 42.5q0 16 10 33l34 55q18 29 49 29q25 0 44 -17.5t19 -42.5q0 -16 -10 -33z" />
    <glyph glyph-name="uniFC72" unicode="&#xfe98;&#xfee2;" horiz-adv-x="1053" arabic-form="final" 
d="M901 293q83 0 105 -64q16 -93 50 -93q19 -5 19 -10v-105q0 -5 -5 -5q-92 0 -141 77q-11 28 -21 71q-12 10 -29 10q-120 0 -296 -146q28 0 53 -43q2 -13 2 -21v-5q0 -83 -43 -114q-127 -76 -314 -122q-85 -21 -120 -71q-26 -47 -26 -94q0 -86 93 -307q24 -88 24 -177
q0 -126 -36 -126h-7q-17 0 -17 88q-24 115 -88 277q-81 196 -81 272q0 140 157 219q85 24 189 69q0 188 334 372q112 48 198 48zM922 625q-84 -36 -202 -36q-107 0 -107 45q0 32 91 46q62 9 171 55q13 6 26 6q58 0 58 -63q0 -38 -37 -53z" />
    <glyph glyph-name="uniFC74" unicode="&#xfe98;&#xfef0;" horiz-adv-x="1671" arabic-form="final" 
d="M1504 318h13q86 0 107 -81q9 -81 52 -81q22 -3 22 -8v-108q0 -4 -4 -4q-113 0 -157 85q-14 53 -22 70q-11 7 -24 7q-134 0 -333 -173l-32 -39q220 -29 220 -46q51 -26 51 -72v-13q0 -192 -398 -333q-194 -63 -378 -63h-68q-292 0 -452 138q-77 76 -77 179q0 267 496 380
q121 22 223 22h68q83 0 83 -28v-2q0 -33 -151 -40q-605 -103 -605 -341q0 -96 194 -162q108 -30 230 -30h50q274 0 535 138q106 69 123 118q0 19 -66 26q-225 21 -225 103q9 66 142 188q211 170 383 170zM1543 634q-84 -36 -202 -36q-107 0 -107 45q0 32 91 46q62 9 171 55
q13 6 26 6q58 0 58 -63q0 -38 -37 -53zM789 382q0 -42 -7 -71q-10 -41 -25 -41t-15 35q0 58 -14 89q-15 23 -39 66q-4 10 -4 19q0 31 27 31q16 0 32 -16q45 -46 45 -112z" />
    <glyph glyph-name="uniFC75" unicode="&#xfe98;&#xfef2;" horiz-adv-x="1671" arabic-form="final" 
d="M1504 318h13q86 0 107 -81q9 -81 52 -81q22 -3 22 -8v-108q0 -4 -4 -4q-113 0 -157 85q-14 53 -22 70q-11 7 -24 7q-134 0 -333 -173l-32 -39q220 -29 220 -46q51 -26 51 -72v-13q0 -192 -398 -333q-194 -63 -378 -63h-68q-292 0 -452 138q-77 76 -77 179q0 267 496 380
q121 22 223 22h68q83 0 83 -28v-2q0 -33 -151 -40q-605 -103 -605 -341q0 -96 194 -162q108 -30 230 -30h50q274 0 535 138q106 69 123 118q0 19 -66 26q-225 21 -225 103q9 66 142 188q211 170 383 170zM1522 613q-84 -36 -202 -36q-107 0 -107 45q0 32 91 46q62 9 171 55
q13 6 26 6q58 0 58 -63q0 -38 -37 -53zM614 -769q-84 -36 -202 -36q-107 0 -107 45q0 32 91 46q62 9 171 55q13 6 26 6q58 0 58 -63q0 -38 -37 -53z" />
    <glyph glyph-name="uniFC78" unicode="&#xfe9c;&#xfee2;" horiz-adv-x="1053" arabic-form="final" 
d="M901 293q83 0 105 -64q16 -93 50 -93q19 -5 19 -10v-105q0 -5 -5 -5q-92 0 -141 77q-11 28 -21 71q-12 10 -29 10q-120 0 -296 -146q28 0 53 -43q2 -13 2 -21v-5q0 -83 -43 -114q-127 -76 -314 -122q-85 -21 -120 -71q-26 -47 -26 -94q0 -86 93 -307q24 -88 24 -177
q0 -126 -36 -126h-7q-17 0 -17 88q-24 115 -88 277q-81 196 -81 272q0 140 157 219q85 24 189 69q0 188 334 372q112 48 198 48zM990 721q11 -17 11 -34q0 -25 -19 -42.5t-44 -17.5q-30 0 -48 27q-36 54 -61 54q-24 0 -72 -42q-39 -35 -60 -65q-42 -57 -69 -57q-16 0 -16 24
q0 31 27 81q94 175 203 175q79 0 148 -103z" />
    <glyph glyph-name="uniFC7A" unicode="&#xfe9c;&#xfef0;" horiz-adv-x="1671" arabic-form="final" 
d="M1504 318h13q86 0 107 -81q9 -81 52 -81q22 -3 22 -8v-108q0 -4 -4 -4q-113 0 -157 85q-14 53 -22 70q-11 7 -24 7q-134 0 -333 -173l-32 -39q220 -29 220 -46q51 -26 51 -72v-13q0 -192 -398 -333q-194 -63 -378 -63h-68q-292 0 -452 138q-77 76 -77 179q0 267 496 380
q121 22 223 22h68q83 0 83 -28v-2q0 -33 -151 -40q-605 -103 -605 -341q0 -96 194 -162q108 -30 230 -30h50q274 0 535 138q106 69 123 118q0 19 -66 26q-225 21 -225 103q9 66 142 188q211 170 383 170zM1551 768q11 -17 11 -34q0 -25 -19 -42.5t-44 -17.5q-30 0 -48 27
q-36 54 -61 54q-24 0 -72 -42q-39 -35 -60 -65q-42 -57 -69 -57q-16 0 -16 24q0 31 27 81q94 175 203 175q79 0 148 -103zM799 392q0 -42 -7 -71q-10 -41 -25 -41t-15 35q0 58 -14 89q-15 23 -39 66q-4 10 -4 19q0 31 27 31q16 0 32 -16q45 -46 45 -112z" />
    <glyph glyph-name="uniFC7B" unicode="&#xfe9c;&#xfef2;" horiz-adv-x="1671" arabic-form="final" 
d="M1504 318h13q86 0 107 -81q9 -81 52 -81q22 -3 22 -8v-108q0 -4 -4 -4q-113 0 -157 85q-14 53 -22 70q-11 7 -24 7q-134 0 -333 -173l-32 -39q220 -29 220 -46q51 -26 51 -72v-13q0 -192 -398 -333q-194 -63 -378 -63h-68q-292 0 -452 138q-77 76 -77 179q0 267 496 380
q121 22 223 22h68q83 0 83 -28v-2q0 -33 -151 -40q-605 -103 -605 -341q0 -96 194 -162q108 -30 230 -30h50q274 0 535 138q106 69 123 118q0 19 -66 26q-225 21 -225 103q9 66 142 188q211 170 383 170zM1627 732q11 -17 11 -34q0 -25 -19 -42.5t-44 -17.5q-30 0 -48 27
q-36 54 -61 54q-24 0 -72 -42q-39 -35 -60 -65q-42 -57 -69 -57q-16 0 -16 24q0 31 27 81q94 175 203 175q79 0 148 -103zM608 -774q-84 -36 -202 -36q-107 0 -107 45q0 32 91 46q62 9 171 55q13 6 26 6q58 0 58 -63q0 -38 -37 -53z" />
    <glyph glyph-name="uniFC80" unicode="&#xfb91;&#xfe8e;" horiz-adv-x="723" arabic-form="final" 
d="M761 1205q55 0 55 -50q0 -45 -117 -212q-112 -139 -207 -198q-72 -54 -177 -99q-23 -10 -48 -13q-29 2 -29 18v7q0 25 64 67q73 49 220 193q143 167 182 256q20 31 57 31zM92 987q30 0 40 -29q25 -230 48 -487h2q127 105 245 105h7q144 0 193 -140q9 -32 9 -62v-17
q0 -91 -61 -170q26 -32 66 -32h71q56 0 56 -60q0 -49 -46 -58h-98q-78 0 -140 70q-110 -70 -206 -70h-11q-142 0 -170 95q-5 19 -21 249q-28 282 -60 530q0 51 59 74q9 2 17 2zM195 329q13 -157 18 -157q17 -17 62 -17q95 0 202 102q40 52 40 110q0 91 -85 91
q-88 0 -204 -104z" />
    <glyph glyph-name="uniFC81" unicode="&#xfb91;&#xfede;" horiz-adv-x="1915" arabic-form="final" 
d="M1940 1150h8q41 0 47 -37v-18q-28 -100 -174 -270q-117 -114 -185 -147q-124 -72 -167 -72q-24 2 -24 20q0 30 94 91q81 63 193 178q102 120 156 220q14 35 52 35zM1280 871q60 0 60 -89l33 -345h2q131 115 257 115q144 0 189 -148q4 -30 4 -51v-6q0 -92 -58 -167
q27 -28 84 -28h85q4 -1 4 -4v-107q0 -4 -4 -4h-58q-145 0 -199 67q-103 -67 -201 -67q-37 0 -79 10q0 -75 -65 -187q-105 -149 -378 -228q-153 -37 -302 -37h-33q-318 0 -510 138q-94 84 -94 197q0 240 399 339q141 33 301 33h66q150 0 171 -27l4 -14v-3q0 -30 -89 -34
q-82 0 -318 -33q-419 -83 -419 -261q0 -163 355 -212q70 -10 150 -10q327 0 528 144q124 101 124 238q-15 204 -68 729q0 52 59 52zM1385 312q8 -120 19 -134q0 -21 67 -26h13q90 0 187 94q41 49 41 107q0 70 -62 84h-25q-83 0 -213 -117q-22 -8 -27 -8z" />
    <glyph glyph-name="uniFC82" unicode="&#xfb91;&#xfee2;" horiz-adv-x="1248" arabic-form="final" 
d="M1510 1454q51 0 51 -51q0 -52 -197 -230q-139 -108 -245 -156q-109 -54 -141 -54q-17 0 -23 13v12q0 24 61 62q140 88 310 235q98 98 148 161q20 8 36 8zM927 909q51 0 51 -89q23 -278 64 -645q15 -20 74 -20h136q5 -1 5 -6v-104q0 -6 -5 -6h-131q-142 0 -176 72
q-21 0 -49 335q-212 -51 -307 -135q51 -17 51 -54v-23q0 -102 -89 -133q-118 -61 -287 -103q-37 0 -102 -61q-31 -48 -31 -92v-15q0 -83 97 -318q21 -94 21 -168q-7 -128 -31 -128h-13q-15 9 -15 30v13q0 109 -125 412q-49 140 -49 192q0 143 161 222q129 39 189 72
q0 167 261 317q89 44 256 90q-23 276 -23 302q0 37 49 43h18z" />
    <glyph glyph-name="uniFC83" unicode="&#xfb91;&#xfef0;" horiz-adv-x="1893" arabic-form="final" 
d="M2086 1446q53 0 53 -51v-2q0 -46 -184 -219q-155 -119 -271 -172q-97 -44 -120 -44h-9q-19 0 -19 17v3q0 33 97 88q149 98 313 252q36 35 107 119q21 9 33 9zM1500 905q60 0 60 -87q0 -74 64 -647q17 -18 51 -18h201q59 0 59 -53v-15q0 -34 -40 -46h-216q-128 0 -163 90
q-14 43 -40 314q-138 -37 -219 -77q-76 -39 -148 -115v-3q217 -30 217 -46q50 -24 50 -73v-9q0 -202 -430 -342q-175 -51 -347 -51h-47q-415 9 -512 219q-18 38 -18 84v20q0 232 424 351q145 37 321 37h6q109 0 109 -28q0 -35 -155 -42q-595 -103 -595 -334q0 -105 219 -170
q101 -22 199 -22h55q282 0 539 146q106 75 106 108q0 20 -110 29q-175 30 -175 86v18q15 62 118 154q84 69 163 104q118 49 221 71q-2 4 -2 6q0 16 -24 285q0 56 59 56z" />
    <glyph glyph-name="uniFC84" unicode="&#xfb91;&#xfef2;" horiz-adv-x="1893" arabic-form="final" 
d="M2086 1446q53 0 53 -51v-2q0 -46 -184 -219q-155 -119 -271 -172q-97 -44 -120 -44h-9q-19 0 -19 17v3q0 33 97 88q149 98 313 252q36 35 107 119q21 9 33 9zM1500 905q60 0 60 -87q0 -74 64 -647q17 -18 51 -18h201q59 0 59 -53v-15q0 -34 -40 -46h-216q-128 0 -163 90
q-14 43 -40 314q-138 -37 -219 -77q-76 -39 -148 -115v-3q217 -30 217 -46q50 -24 50 -73v-9q0 -202 -430 -342q-175 -51 -347 -51h-47q-415 9 -512 219q-18 38 -18 84v20q0 232 424 351q145 37 321 37h6q109 0 109 -28q0 -35 -155 -42q-595 -103 -595 -334q0 -105 219 -170
q101 -22 199 -22h55q282 0 539 146q106 75 106 108q0 20 -110 29q-175 30 -175 86v18q15 62 118 154q84 69 163 104q118 49 221 71q-2 4 -2 6q0 16 -24 285q0 56 59 56zM889 -536q-84 -36 -202 -36q-107 0 -107 45q0 32 91 46q62 9 171 55q13 6 26 6q58 0 58 -63
q0 -38 -37 -53z" />
    <glyph glyph-name="uniFC85" unicode="&#xfee0;&#xfee2;" horiz-adv-x="1139" arabic-form="final" 
d="M911 967q53 0 53 -83q38 -435 71 -712q14 -19 56 -19h25q43 0 56 -19v-72q0 -24 -66 -24h-80q-29 0 -64 42q-36 37 -40 74q-16 109 -40 357h-2q-90 -22 -162 -52q-78 -33 -136 -78q-1 0 -1 -2q29 -8 45 -33q7 -20 7 -33q0 -96 -58 -124q-62 -36 -182 -82
q-136 -33 -185 -55q-80 -52 -80 -134v-14q0 -83 91 -298q24 -84 24 -162v-34q-5 -114 -31 -114h-5q-20 5 -20 28v9q0 114 -109 376q-61 160 -61 221v17q0 125 151 207q19 0 193 70q0 163 237 303q74 40 200 80q71 19 73 19l-24 291q6 50 45 50h19z" />
    <glyph glyph-name="uniFC86" unicode="&#xfee0;&#xfef0;" horiz-adv-x="1844" arabic-form="final" 
d="M1554 1015h25q50 0 50 -94q38 -413 76 -745q14 -21 77 -21h42q28 0 42 -19v-79q-14 -21 -46 -21h-53q-188 0 -188 173q-16 116 -35 326q-136 -35 -221 -77q-74 -34 -159 -117q0 -3 -4 -8q196 -25 227 -46q52 -31 52 -75v-15q0 -198 -417 -347q-205 -62 -384 -62h-69
q-287 0 -455 129q-92 83 -92 184v31q0 149 196 265q254 136 576 136q126 0 126 -31v-2q0 -33 -149 -40q-150 -23 -265 -56q-369 -115 -369 -293q0 -118 250 -185q107 -19 211 -19h11q321 0 590 154q109 80 109 113q0 21 -98 27q-201 30 -201 96v15q17 72 144 181
q125 94 328 149q14 5 52 14q-6 54 -27 307q6 52 48 52z" />
    <glyph glyph-name="uniFC87" unicode="&#xfee0;&#xfef2;" horiz-adv-x="1844" arabic-form="final" 
d="M1554 1015h25q50 0 50 -94q38 -413 76 -745q14 -21 77 -21h42q28 0 42 -19v-79q-14 -21 -46 -21h-53q-188 0 -188 173q-16 116 -35 326q-136 -35 -221 -77q-74 -34 -159 -117q0 -3 -4 -8q196 -25 227 -46q52 -31 52 -75v-15q0 -198 -417 -347q-205 -62 -384 -62h-69
q-287 0 -455 129q-92 83 -92 184v31q0 149 196 265q254 136 576 136q126 0 126 -31v-2q0 -33 -149 -40q-150 -23 -265 -56q-369 -115 -369 -293q0 -118 250 -185q107 -19 211 -19h11q321 0 590 154q109 80 109 113q0 21 -98 27q-201 30 -201 96v15q17 72 144 181
q125 94 328 149q14 5 52 14q-6 54 -27 307q6 52 48 52zM832 -574q-84 -36 -202 -36q-107 0 -107 45q0 32 91 46q62 9 171 55q13 6 26 6q58 0 58 -63q0 -38 -37 -53z" />
    <glyph glyph-name="uniFC88" unicode="&#xfee4;&#xfe8e;" horiz-adv-x="958" arabic-form="final" 
d="M92 749q21 0 31 -22q6 -38 74 -714q14 -16 63 -31q24 -7 61 -7q40 0 95 8l-2 3v30q0 109 120 204q109 92 170 102q22 3 41 3q35 0 63 -10q43 -17 80 -94q24 -66 74 -66h9v-119h-4q-127 0 -173 139q-17 17 -40 17q-83 0 -148 -53q-47 -43 -56 -56q76 -24 76 -66v-15
q0 -101 -148 -117q-92 -17 -166 -17q-41 0 -76 5q-99 15 -133 78q-16 10 -20 145q-24 283 -63 587q0 45 57 66h15z" />
    <glyph glyph-name="uniFC8C" unicode="&#xfee8;&#xfee2;" horiz-adv-x="1053" arabic-form="final" 
d="M901 293q83 0 105 -64q16 -93 50 -93q19 -5 19 -10v-105q0 -5 -5 -5q-92 0 -141 77q-11 28 -21 71q-12 10 -29 10q-120 0 -296 -146q28 0 53 -43q2 -13 2 -21v-5q0 -83 -43 -114q-127 -76 -314 -122q-85 -21 -120 -71q-26 -47 -26 -94q0 -86 93 -307q24 -88 24 -177
q0 -126 -36 -126h-7q-17 0 -17 88q-24 115 -88 277q-81 196 -81 272q0 140 157 219q85 24 189 69q0 188 334 372q112 48 198 48zM913 635l-34 -55q-18 -29 -49 -29q-25 0 -44 17.5t-19 42.5q0 16 10 33l34 55q18 29 49 29q25 0 44 -17.5t19 -42.5q0 -16 -10 -33z" />
    <glyph glyph-name="uniFC8E" unicode="&#xfee8;&#xfef0;" horiz-adv-x="1671" arabic-form="final" 
d="M1504 318h13q86 0 107 -81q9 -81 52 -81q22 -3 22 -8v-108q0 -4 -4 -4q-113 0 -157 85q-14 53 -22 70q-11 7 -24 7q-134 0 -333 -173l-32 -39q220 -29 220 -46q51 -26 51 -72v-13q0 -192 -398 -333q-194 -63 -378 -63h-68q-292 0 -452 138q-77 76 -77 179q0 267 496 380
q121 22 223 22h68q83 0 83 -28v-2q0 -33 -151 -40q-605 -103 -605 -341q0 -96 194 -162q108 -30 230 -30h50q274 0 535 138q106 69 123 118q0 19 -66 26q-225 21 -225 103q9 66 142 188q211 170 383 170zM1444 670l-34 -55q-18 -29 -49 -29q-25 0 -44 17.5t-19 42.5
q0 16 10 33l34 55q18 29 49 29q25 0 44 -17.5t19 -42.5q0 -16 -10 -33zM800 427q0 -42 -7 -71q-10 -41 -25 -41t-15 35q0 58 -14 89q-15 23 -39 66q-4 10 -4 19q0 31 27 31q16 0 32 -16q45 -46 45 -112z" />
    <glyph glyph-name="uniFC8F" unicode="&#xfee8;&#xfef2;" horiz-adv-x="1671" arabic-form="final" 
d="M1504 318h13q86 0 107 -81q9 -81 52 -81q22 -3 22 -8v-108q0 -4 -4 -4q-113 0 -157 85q-14 53 -22 70q-11 7 -24 7q-134 0 -333 -173l-32 -39q220 -29 220 -46q51 -26 51 -72v-13q0 -192 -398 -333q-194 -63 -378 -63h-68q-292 0 -452 138q-77 76 -77 179q0 267 496 380
q121 22 223 22h68q83 0 83 -28v-2q0 -33 -151 -40q-605 -103 -605 -341q0 -96 194 -162q108 -30 230 -30h50q274 0 535 138q106 69 123 118q0 19 -66 26q-225 21 -225 103q9 66 142 188q211 170 383 170zM1399 670l-34 -55q-18 -29 -49 -29q-25 0 -44 17.5t-19 42.5
q0 16 10 33l34 55q18 29 49 29q25 0 44 -17.5t19 -42.5q0 -16 -10 -33zM681 -806q-84 -36 -202 -36q-107 0 -107 45q0 32 91 46q62 9 171 55q13 6 26 6q58 0 58 -63q0 -38 -37 -53z" />
    <glyph glyph-name="uniFC93" unicode="&#xfbff;&#xfee2;" horiz-adv-x="1053" arabic-form="final" 
d="M901 293q83 0 105 -64q16 -93 50 -93q19 -5 19 -10v-105q0 -5 -5 -5q-92 0 -141 77q-11 28 -21 71q-12 10 -29 10q-120 0 -296 -146q28 0 53 -43q2 -13 2 -21v-5q0 -83 -43 -114q-127 -76 -314 -122q-85 -21 -120 -71q-26 -47 -26 -94q0 -86 93 -307q24 -88 24 -177
q0 -126 -36 -126h-7q-17 0 -17 88q-24 115 -88 277q-81 196 -81 272q0 140 157 219q85 24 189 69q0 188 334 372q112 48 198 48zM982 -262q-84 -36 -202 -36q-107 0 -107 45q0 32 91 46q62 9 171 55q13 6 26 6q58 0 58 -63q0 -38 -37 -53z" />
    <glyph glyph-name="uniFC97" unicode="&#xfe8b;&#xfea0;" arabic-form="initial" 
d="M687 781q117 0 117 -66v-14q0 -67 -80 -78q-34 -5 -66 -5q-77 0 -102 10q-89 -22 -224 -156q0 -5 -10 -15v-2q108 -6 192 -49q56 -35 56 -90v-12q0 -66 -104 -139q-258 -131 -492 -131q-12 3 -12 7v107q1 5 5 5q165 0 411 100q54 29 73 54q-43 17 -263 48q-31 18 -31 54
q7 59 136 194q195 178 394 178zM681 1060q0 -58 -62.5 -108.5t-121.5 -50.5q-33 0 -33 31q0 25 27 35q86 31 104 80q-73 18 -73 61q0 35 35 79q30 38 66 60q12 7 25 7q37 0 37 -31q0 -16 -17 -30q-47 -37 -61 -73q43 -12 50 -16q24 -13 24 -44zM405 -169l-34 -55
q-18 -29 -49 -29q-25 0 -44 17.5t-19 42.5q0 16 10 33l34 55q18 29 49 29q25 0 44 -17.5t19 -42.5q0 -16 -10 -33z" />
    <glyph glyph-name="uniFC98" unicode="&#xfe8b;&#xfea4;" arabic-form="initial" 
d="M687 781q117 0 117 -66v-14q0 -67 -80 -78q-34 -5 -66 -5q-77 0 -102 10q-89 -22 -224 -156q0 -5 -10 -15v-2q108 -6 192 -49q56 -35 56 -90v-12q0 -66 -104 -139q-258 -131 -492 -131q-12 3 -12 7v107q1 5 5 5q165 0 411 100q54 29 73 54q-43 17 -263 48q-31 18 -31 54
q7 59 136 194q195 178 394 178zM681 1060q0 -58 -62.5 -108.5t-121.5 -50.5q-33 0 -33 31q0 25 27 35q86 31 104 80q-73 18 -73 61q0 35 35 79q30 38 66 60q12 7 25 7q37 0 37 -31q0 -16 -17 -30q-47 -37 -61 -73q43 -12 50 -16q24 -13 24 -44z" />
    <glyph glyph-name="uniFC99" unicode="&#xfe8b;&#xfea8;" arabic-form="initial" 
d="M687 781q117 0 117 -66v-14q0 -67 -80 -78q-34 -5 -66 -5q-77 0 -102 10q-89 -22 -224 -156q0 -5 -10 -15v-2q108 -6 192 -49q56 -35 56 -90v-12q0 -66 -104 -139q-258 -131 -492 -131q-12 3 -12 7v107q1 5 5 5q165 0 411 100q54 29 73 54q-43 17 -263 48q-31 18 -31 54
q7 59 136 194q195 178 394 178zM681 1060q0 -58 -62.5 -108.5t-121.5 -50.5q-33 0 -33 31q0 25 27 35q86 31 104 80q-73 18 -73 61q0 35 35 79q30 38 66 60q12 7 25 7q37 0 37 -31q0 -16 -17 -30q-47 -37 -61 -73q43 -12 50 -16q24 -13 24 -44zM276 699l-34 -55
q-18 -29 -49 -29q-25 0 -44 17.5t-19 42.5q0 16 10 33l34 55q18 29 49 29q25 0 44 -17.5t19 -42.5q0 -16 -10 -33z" />
    <glyph glyph-name="uniFC9A" unicode="&#xfe8b;&#xfee4;" horiz-adv-x="871" arabic-form="initial" 
d="M735 678q117 0 117 -71v-5q0 -61 -66 -77q-25 -5 -77 -7q-98 2 -98 10h-6q-87 -31 -185 -119l-38 -43q84 -23 84 -80q0 -109 -170 -174q-179 -74 -272 -74h-35q-3 0 -3 3v109q1 4 3 4h22q63 0 180 46q0 1 5 3q-2 17 -2 25v5q0 80 66 166q36 58 125 137q177 142 350 142z
M749 966q0 -58 -62.5 -108.5t-121.5 -50.5q-33 0 -33 31q0 25 27 35q86 31 104 80q-73 18 -73 61q0 35 35 79q30 38 66 60q12 7 25 7q37 0 37 -31q0 -16 -17 -30q-47 -37 -61 -73q43 -12 50 -16q24 -13 24 -44z" />
    <glyph glyph-name="uniFC9B" unicode="&#xfe8b;&#xfeec;" horiz-adv-x="881" arabic-form="initial" 
d="M754 293q116 0 116 -71v-3q0 -59 -55 -77q-31 -9 -86 -9q-83 0 -103 9h-2q-200 -77 -305 -287q-113 -263 -198 -263q-91 0 -91 126q0 116 68 337h-2q-74 -19 -108 -19l-2 4v108q0 4 51 10q92 23 128 72q26 32 53 32q56 0 56 -55v-4q0 -15 -40 -108q-77 -234 -77 -282
q-2 0 -5 -31v-1h2q81 180 150 266q68 82 128 126q168 120 322 120zM715 672q0 -58 -62.5 -108.5t-121.5 -50.5q-33 0 -33 31q0 25 27 35q86 31 104 80q-73 18 -73 61q0 35 35 79q30 38 66 60q12 7 25 7q37 0 37 -31q0 -16 -17 -30q-47 -37 -61 -73q43 -12 50 -16
q24 -13 24 -44z" />
    <glyph glyph-name="uniFC9C" unicode="&#xfe91;&#xfea0;" arabic-form="initial" 
d="M687 781q117 0 117 -66v-14q0 -67 -80 -78q-34 -5 -66 -5q-77 0 -102 10q-89 -22 -224 -156q0 -5 -10 -15v-2q108 -6 192 -49q56 -35 56 -90v-12q0 -66 -104 -139q-258 -131 -492 -131q-12 3 -12 7v107q1 5 5 5q165 0 411 100q54 29 73 54q-43 17 -263 48q-31 18 -31 54
q7 59 136 194q195 178 394 178zM801 313l-34 -55q-18 -29 -49 -29q-25 0 -44 17.5t-19 42.5q0 16 10 33l34 55q18 29 49 29q25 0 44 -17.5t19 -42.5q0 -16 -10 -33zM405 -169l-34 -55q-18 -29 -49 -29q-25 0 -44 17.5t-19 42.5q0 16 10 33l34 55q18 29 49 29q25 0 44 -17.5
t19 -42.5q0 -16 -10 -33z" />
    <glyph glyph-name="uniFC9D" unicode="&#xfe91;&#xfea4;" arabic-form="initial" 
d="M687 781q117 0 117 -66v-14q0 -67 -80 -78q-34 -5 -66 -5q-77 0 -102 10q-89 -22 -224 -156q0 -5 -10 -15v-2q108 -6 192 -49q56 -35 56 -90v-12q0 -66 -104 -139q-258 -131 -492 -131q-12 3 -12 7v107q1 5 5 5q165 0 411 100q54 29 73 54q-43 17 -263 48q-31 18 -31 54
q7 59 136 194q195 178 394 178zM721 -63l-34 -55q-18 -29 -49 -29q-25 0 -44 17.5t-19 42.5q0 16 10 33l34 55q18 29 49 29q25 0 44 -17.5t19 -42.5q0 -16 -10 -33z" />
    <glyph glyph-name="uniFC9E" unicode="&#xfe91;&#xfea8;" arabic-form="initial" 
d="M687 781q117 0 117 -66v-14q0 -67 -80 -78q-34 -5 -66 -5q-77 0 -102 10q-89 -22 -224 -156q0 -5 -10 -15v-2q108 -6 192 -49q56 -35 56 -90v-12q0 -66 -104 -139q-258 -131 -492 -131q-12 3 -12 7v107q1 5 5 5q165 0 411 100q54 29 73 54q-43 17 -263 48q-31 18 -31 54
q7 59 136 194q195 178 394 178zM721 -63l-34 -55q-18 -29 -49 -29q-25 0 -44 17.5t-19 42.5q0 16 10 33l34 55q18 29 49 29q25 0 44 -17.5t19 -42.5q0 -16 -10 -33zM276 699l-34 -55q-18 -29 -49 -29q-25 0 -44 17.5t-19 42.5q0 16 10 33l34 55q18 29 49 29q25 0 44 -17.5
t19 -42.5q0 -16 -10 -33z" />
    <glyph glyph-name="uniFC9F" unicode="&#xfe91;&#xfee4;" horiz-adv-x="871" arabic-form="initial" 
d="M735 678q117 0 117 -71v-5q0 -61 -66 -77q-25 -5 -77 -7q-98 2 -98 10h-6q-87 -31 -185 -119l-38 -43q84 -23 84 -80q0 -109 -170 -174q-179 -74 -272 -74h-35q-3 0 -3 3v109q1 4 3 4h22q63 0 180 46q0 1 5 3q-2 17 -2 25v5q0 80 66 166q36 58 125 137q177 142 350 142z
M737 173l-34 -55q-18 -29 -49 -29q-25 0 -44 17.5t-19 42.5q0 16 10 33l34 55q18 29 49 29q25 0 44 -17.5t19 -42.5q0 -16 -10 -33z" />
    <glyph glyph-name="uniFCA0" unicode="&#xfe91;&#xfeec;" horiz-adv-x="881" arabic-form="initial" 
d="M754 293q116 0 116 -71v-3q0 -59 -55 -77q-31 -9 -86 -9q-83 0 -103 9h-2q-200 -77 -305 -287q-113 -263 -198 -263q-91 0 -91 126q0 116 68 337h-2q-74 -19 -108 -19l-2 4v108q0 4 51 10q92 23 128 72q26 32 53 32q56 0 56 -55v-4q0 -15 -40 -108q-77 -234 -77 -282
q-2 0 -5 -31v-1h2q81 180 150 266q68 82 128 126q168 120 322 120zM786 -347l-34 -55q-18 -29 -49 -29q-25 0 -44 17.5t-19 42.5q0 16 10 33l34 55q18 29 49 29q25 0 44 -17.5t19 -42.5q0 -16 -10 -33z" />
    <glyph glyph-name="uniFCA1" unicode="&#xfe97;&#xfea0;" arabic-form="initial" 
d="M687 781q117 0 117 -66v-14q0 -67 -80 -78q-34 -5 -66 -5q-77 0 -102 10q-89 -22 -224 -156q0 -5 -10 -15v-2q108 -6 192 -49q56 -35 56 -90v-12q0 -66 -104 -139q-258 -131 -492 -131q-12 3 -12 7v107q1 5 5 5q165 0 411 100q54 29 73 54q-43 17 -263 48q-31 18 -31 54
q7 59 136 194q195 178 394 178zM405 -169l-34 -55q-18 -29 -49 -29q-25 0 -44 17.5t-19 42.5q0 16 10 33l34 55q18 29 49 29q25 0 44 -17.5t19 -42.5q0 -16 -10 -33zM726 924q-84 -36 -202 -36q-107 0 -107 45q0 32 91 46q62 9 171 55q13 6 26 6q58 0 58 -63q0 -38 -37 -53z
" />
    <glyph glyph-name="uniFCA2" unicode="&#xfe97;&#xfea4;" arabic-form="initial" 
d="M687 781q117 0 117 -66v-14q0 -67 -80 -78q-34 -5 -66 -5q-77 0 -102 10q-89 -22 -224 -156q0 -5 -10 -15v-2q108 -6 192 -49q56 -35 56 -90v-12q0 -66 -104 -139q-258 -131 -492 -131q-12 3 -12 7v107q1 5 5 5q165 0 411 100q54 29 73 54q-43 17 -263 48q-31 18 -31 54
q7 59 136 194q195 178 394 178zM726 924q-84 -36 -202 -36q-107 0 -107 45q0 32 91 46q62 9 171 55q13 6 26 6q58 0 58 -63q0 -38 -37 -53z" />
    <glyph glyph-name="uniFCA3" unicode="&#xfe97;&#xfea8;" arabic-form="initial" 
d="M687 781q117 0 117 -66v-14q0 -67 -80 -78q-34 -5 -66 -5q-77 0 -102 10q-89 -22 -224 -156q0 -5 -10 -15v-2q108 -6 192 -49q56 -35 56 -90v-12q0 -66 -104 -139q-258 -131 -492 -131q-12 3 -12 7v107q1 5 5 5q165 0 411 100q54 29 73 54q-43 17 -263 48q-31 18 -31 54
q7 59 136 194q195 178 394 178zM726 924q-84 -36 -202 -36q-107 0 -107 45q0 32 91 46q62 9 171 55q13 6 26 6q58 0 58 -63q0 -38 -37 -53zM276 699l-34 -55q-18 -29 -49 -29q-25 0 -44 17.5t-19 42.5q0 16 10 33l34 55q18 29 49 29q25 0 44 -17.5t19 -42.5q0 -16 -10 -33z
" />
    <glyph glyph-name="uniFCA4" unicode="&#xfe97;&#xfee4;" horiz-adv-x="871" arabic-form="initial" 
d="M735 678q117 0 117 -71v-5q0 -61 -66 -77q-25 -5 -77 -7q-98 2 -98 10h-6q-87 -31 -185 -119l-38 -43q84 -23 84 -80q0 -109 -170 -174q-179 -74 -272 -74h-35q-3 0 -3 3v109q1 4 3 4h22q63 0 180 46q0 1 5 3q-2 17 -2 25v5q0 80 66 166q36 58 125 137q177 142 350 142z
M750 918q-84 -36 -202 -36q-107 0 -107 45q0 32 91 46q62 9 171 55q13 6 26 6q58 0 58 -63q0 -38 -37 -53z" />
    <glyph glyph-name="uniFCA5" unicode="&#xfe97;&#xfeec;" horiz-adv-x="897" arabic-form="initial" 
d="M754 293q116 0 116 -71v-3q0 -59 -55 -77q-31 -9 -86 -9q-83 0 -103 9h-2q-200 -77 -305 -287q-113 -263 -198 -263q-91 0 -91 126q0 116 68 337h-2q-74 -19 -108 -19l-2 4v108q0 4 51 10q92 23 128 72q26 32 53 32q56 0 56 -55v-4q0 -15 -40 -108q-77 -234 -77 -282
q-2 0 -5 -31v-1h2q81 180 150 266q68 82 128 126q168 120 322 120zM791 532q-84 -36 -202 -36q-107 0 -107 45q0 32 91 46q62 9 171 55q13 6 26 6q58 0 58 -63q0 -38 -37 -53z" />
    <glyph glyph-name="uniFCA6" unicode="&#xfe9b;&#xfee4;" horiz-adv-x="861" arabic-form="initial" 
d="M735 678q117 0 117 -71v-5q0 -61 -66 -77q-25 -5 -77 -7q-98 2 -98 10h-6q-87 -31 -185 -119l-38 -43q84 -23 84 -80q0 -109 -170 -174q-179 -74 -272 -74h-35q-3 0 -3 3v109q1 4 3 4h22q63 0 180 46q0 1 5 3q-2 17 -2 25v5q0 80 66 166q36 58 125 137q177 142 350 142z
M820 992q11 -17 11 -34q0 -25 -19 -42.5t-44 -17.5q-30 0 -48 27q-36 54 -61 54q-24 0 -72 -42q-39 -35 -60 -65q-42 -57 -69 -57q-16 0 -16 24q0 31 27 81q94 175 203 175q79 0 148 -103z" />
    <glyph glyph-name="uniFCA7" unicode="&#xfe9f;&#xfea4;" horiz-adv-x="1049" arabic-form="initial" 
d="M811 1101q176 0 221 -93q5 -15 5 -21v-16q0 -145 -484 -389q-73 -34 -149 -107l-7 -9v-3q119 -8 207 -55q47 -40 47 -86v-12q0 -78 -126 -154q-259 -123 -477 -123q-14 2 -32 2h-23q-5 0 -5 5v109q1 5 5 5h25q186 0 431 100q48 24 81 56v2q-67 21 -265 47q-35 16 -35 53
v5q5 65 151 193q76 55 188 114v5q-88 73 -88 153v16q0 118 177 184q70 19 153 19zM600 894q0 -43 83 -103h3q199 108 202 161q0 30 -91 30q-155 0 -195 -74q-2 -13 -2 -14zM934 531l-34 -55q-18 -29 -49 -29q-25 0 -44 17.5t-19 42.5q0 16 10 33l34 55q18 29 49 29
q25 0 44 -17.5t19 -42.5q0 -16 -10 -33z" />
    <glyph glyph-name="uniFCA8" unicode="&#xfe9f;&#xfee4;" horiz-adv-x="1070" arabic-form="initial" 
d="M822 1019q174 0 225 -91q7 -25 7 -36q0 -128 -336 -315q-213 -112 -270 -156q-41 -39 -41 -42q89 -25 89 -87q0 -117 -203 -190q-172 -69 -263 -69h-20q-56 0 -56 60v3q0 43 33 55q12 5 49 5h-6q2 0 2 -2q36 0 164 46q13 7 13 9q-2 25 -2 31q0 160 245 326q125 70 125 72
q-91 78 -91 162v11q0 126 189 192q69 16 147 16zM608 812v-3q0 -47 85 -105q207 111 207 161v2q0 32 -93 32q-111 0 -179 -49q-20 -20 -20 -38zM938 384l-34 -55q-18 -29 -49 -29q-25 0 -44 17.5t-19 42.5q0 16 10 33l34 55q18 29 49 29q25 0 44 -17.5t19 -42.5
q0 -16 -10 -33z" />
    <glyph glyph-name="uniFCA9" unicode="&#xfea3;&#xfea0;" horiz-adv-x="1049" arabic-form="initial" 
d="M811 1101q176 0 221 -93q5 -15 5 -21v-16q0 -145 -484 -389q-73 -34 -149 -107l-7 -9v-3q119 -8 207 -55q47 -40 47 -86v-12q0 -78 -126 -154q-259 -123 -477 -123q-14 2 -32 2h-23q-5 0 -5 5v109q1 5 5 5h25q186 0 431 100q48 24 81 56v2q-67 21 -265 47q-35 16 -35 53
v5q5 65 151 193q76 55 188 114v5q-88 73 -88 153v16q0 118 177 184q70 19 153 19zM600 894q0 -43 83 -103h3q199 108 202 161q0 30 -91 30q-155 0 -195 -74q-2 -13 -2 -14zM372 -166l-34 -55q-18 -29 -49 -29q-25 0 -44 17.5t-19 42.5q0 16 10 33l34 55q18 29 49 29
q25 0 44 -17.5t19 -42.5q0 -16 -10 -33z" />
    <glyph glyph-name="uniFCAA" unicode="&#xfea3;&#xfee4;" horiz-adv-x="1070" arabic-form="initial" 
d="M822 1019q174 0 225 -91q7 -25 7 -36q0 -128 -336 -315q-213 -112 -270 -156q-41 -39 -41 -42q89 -25 89 -87q0 -117 -203 -190q-172 -69 -263 -69h-20q-56 0 -56 60v3q0 43 33 55q12 5 49 5h-6q2 0 2 -2q36 0 164 46q13 7 13 9q-2 25 -2 31q0 160 245 326q125 70 125 72
q-91 78 -91 162v11q0 126 189 192q69 16 147 16zM608 812v-3q0 -47 85 -105q207 111 207 161v2q0 32 -93 32q-111 0 -179 -49q-20 -20 -20 -38z" />
    <glyph glyph-name="uniFCAB" unicode="&#xfea7;&#xfea0;" horiz-adv-x="1060" arabic-form="initial" 
d="M811 1101q176 0 221 -93q5 -15 5 -21v-16q0 -145 -484 -389q-73 -34 -149 -107l-7 -9v-3q119 -8 207 -55q47 -40 47 -86v-12q0 -78 -126 -154q-259 -123 -477 -123q-14 2 -32 2h-23q-5 0 -5 5v109q1 5 5 5h25q186 0 431 100q48 24 81 56v2q-67 21 -265 47q-35 16 -35 53
v5q5 65 151 193q76 55 188 114v5q-88 73 -88 153v16q0 118 177 184q70 19 153 19zM600 894q0 -43 83 -103h3q199 108 202 161q0 30 -91 30q-155 0 -195 -74q-2 -13 -2 -14zM372 -174l-34 -55q-18 -29 -49 -29q-25 0 -44 17.5t-19 42.5q0 16 10 33l34 55q18 29 49 29
q25 0 44 -17.5t19 -42.5q0 -16 -10 -33zM712 1302l-34 -55q-18 -29 -49 -29q-25 0 -44 17.5t-19 42.5q0 16 10 33l34 55q18 29 49 29q25 0 44 -17.5t19 -42.5q0 -16 -10 -33z" />
    <glyph glyph-name="uniFCAC" unicode="&#xfea7;&#xfee4;" horiz-adv-x="1070" arabic-form="initial" 
d="M822 1019q174 0 225 -91q7 -25 7 -36q0 -128 -336 -315q-213 -112 -270 -156q-41 -39 -41 -42q89 -25 89 -87q0 -117 -203 -190q-172 -69 -263 -69h-20q-56 0 -56 60v3q0 43 33 55q12 5 49 5h-6q2 0 2 -2q36 0 164 46q13 7 13 9q-2 25 -2 31q0 160 245 326q125 70 125 72
q-91 78 -91 162v11q0 126 189 192q69 16 147 16zM608 812v-3q0 -47 85 -105q207 111 207 161v2q0 32 -93 32q-111 0 -179 -49q-20 -20 -20 -38zM699 1220l-34 -55q-18 -29 -49 -29q-25 0 -44 17.5t-19 42.5q0 16 10 33l34 55q18 29 49 29q25 0 44 -17.5t19 -42.5
q0 -16 -10 -33z" />
    <glyph glyph-name="uniFCAD" unicode="&#xfeb3;&#xfea0;" horiz-adv-x="1452" arabic-form="initial" 
d="M1379 775q56 -6 56 -45v-15q0 -45 -64 -135q-74 -86 -174 -86q-54 0 -124 30q-67 -55 -167 -55q-115 0 -161 137q-19 19 -45 19q-88 -8 -204 -83q-37 -21 -104 -93q87 -10 150 -30q94 -37 94 -113q0 -62 -88 -131q-70 -45 -217 -94q-147 -43 -265 -43h-54q-55 0 -55 51
v13q0 39 40 50h41q164 0 399 94q52 25 83 56q-47 19 -257 47q-32 15 -32 57q0 21 38 71q113 172 348 249q45 13 85 13q102 0 137 -75q43 -73 80 -73q0 -2 12 -2h9q89 0 156 160q18 20 45 20q60 0 60 -56q0 -21 -44 -96v-1q20 -6 40 -6h4q87 0 123 131q14 34 55 34zM532 -145
l-34 -55q-18 -29 -49 -29q-25 0 -44 17.5t-19 42.5q0 16 10 33l34 55q18 29 49 29q25 0 44 -17.5t19 -42.5q0 -16 -10 -33z" />
    <glyph glyph-name="uniFCAE" unicode="&#xfeb3;&#xfea4;" horiz-adv-x="1452" arabic-form="initial" 
d="M1379 775q56 -6 56 -45v-15q0 -45 -64 -135q-74 -86 -174 -86q-54 0 -124 30q-67 -55 -167 -55q-115 0 -161 137q-19 19 -45 19q-88 -8 -204 -83q-37 -21 -104 -93q87 -10 150 -30q94 -37 94 -113q0 -62 -88 -131q-70 -45 -217 -94q-147 -43 -265 -43h-54q-55 0 -55 51
v13q0 39 40 50h41q164 0 399 94q52 25 83 56q-47 19 -257 47q-32 15 -32 57q0 21 38 71q113 172 348 249q45 13 85 13q102 0 137 -75q43 -73 80 -73q0 -2 12 -2h9q89 0 156 160q18 20 45 20q60 0 60 -56q0 -21 -44 -96v-1q20 -6 40 -6h4q87 0 123 131q14 34 55 34z" />
    <glyph glyph-name="uniFCAF" unicode="&#xfeb3;&#xfea8;" horiz-adv-x="1452" arabic-form="initial" 
d="M1379 775q56 -6 56 -45v-15q0 -45 -64 -135q-74 -86 -174 -86q-54 0 -124 30q-67 -55 -167 -55q-115 0 -161 137q-19 19 -45 19q-88 -8 -204 -83q-37 -21 -104 -93q87 -10 150 -30q94 -37 94 -113q0 -62 -88 -131q-70 -45 -217 -94q-147 -43 -265 -43h-54q-55 0 -55 51
v13q0 39 40 50h41q164 0 399 94q52 25 83 56q-47 19 -257 47q-32 15 -32 57q0 21 38 71q113 172 348 249q45 13 85 13q102 0 137 -75q43 -73 80 -73q0 -2 12 -2h9q89 0 156 160q18 20 45 20q60 0 60 -56q0 -21 -44 -96v-1q20 -6 40 -6h4q87 0 123 131q14 34 55 34zM296 981
l-34 -55q-18 -29 -49 -29q-25 0 -44 17.5t-19 42.5q0 16 10 33l34 55q18 29 49 29q25 0 44 -17.5t19 -42.5q0 -16 -10 -33z" />
    <glyph glyph-name="uniFCB0" unicode="&#xfeb3;&#xfee4;" horiz-adv-x="1513" arabic-form="initial" 
d="M1434 701h3q61 0 61 -58q-27 -111 -96 -173q-69 -59 -153 -59q-55 0 -127 29q-72 -54 -169 -54h-4q-121 0 -167 142q-16 17 -47 17q-75 0 -215 -87q-49 -34 -94 -86q0 -2 2 -2q80 -25 80 -71v-18q0 -119 -255 -200q-123 -45 -192 -45h-62q-52 0 -52 56v8q4 55 52 55h52
q51 0 171 44q0 2 10 6l-2 20v15q0 75 60 154q116 177 364 258q43 12 74 12h19q99 0 140 -89q40 -66 90 -66h3q96 0 164 163q16 23 46 23h2q61 0 61 -54v-2q0 -27 -45 -103q42 -6 43 -6q95 0 136 148q17 23 47 23z" />
    <glyph glyph-name="uniFCB1" unicode="&#xfebb;&#xfea4;" horiz-adv-x="1574" arabic-form="initial" 
d="M1375 894h28q126 -3 152 -76q6 -24 6 -38q0 -91 -112 -182q-73 -48 -173 -82q-184 -58 -310 -58q-182 0 -240 112q-12 48 -42 48q0 3 -24 4q-86 0 -237 -102q-61 -55 -74 -74q111 -7 191 -49q52 -35 52 -90v-4q0 -70 -106 -142q-240 -124 -503 -124h28q-66 0 -66 52v12
q0 52 66 52h10q134 0 370 90q53 26 87 58q-59 20 -255 46q-32 16 -32 42v20q4 38 116 163q78 67 140 100q141 70 231 70q101 0 136 -106q43 -62 130 -62h2q47 68 156 176q159 144 273 144zM1095 588q108 22 194 52q153 63 153 118v2q0 28 -54 28h-16q-87 0 -277 -198v-2z
" />
    <glyph glyph-name="uniFCB2" unicode="&#xfebb;&#xfea8;" horiz-adv-x="1574" arabic-form="initial" 
d="M1375 894h28q126 -3 152 -76q6 -24 6 -38q0 -91 -112 -182q-73 -48 -173 -82q-184 -58 -310 -58q-182 0 -240 112q-12 48 -42 48q0 3 -24 4q-86 0 -237 -102q-61 -55 -74 -74q111 -7 191 -49q52 -35 52 -90v-4q0 -70 -106 -142q-240 -124 -503 -124h28q-66 0 -66 52v12
q0 52 66 52h10q134 0 370 90q53 26 87 58q-59 20 -255 46q-32 16 -32 42v20q4 38 116 163q78 67 140 100q141 70 231 70q101 0 136 -106q43 -62 130 -62h2q47 68 156 176q159 144 273 144zM1095 588q108 22 194 52q153 63 153 118v2q0 28 -54 28h-16q-87 0 -277 -198v-2z
M271 781l-34 -55q-18 -29 -49 -29q-25 0 -44 17.5t-19 42.5q0 16 10 33l34 55q18 29 49 29q25 0 44 -17.5t19 -42.5q0 -16 -10 -33z" />
    <glyph glyph-name="uniFCB3" unicode="&#xfebb;&#xfee4;" horiz-adv-x="1645" arabic-form="initial" 
d="M1455 818q132 0 169 -68q10 -22 10 -44v-14q0 -73 -92 -161q-123 -91 -284 -126q-120 -33 -212 -33h-33q-183 0 -237 129q0 32 -58 36h-4q-100 0 -257 -118q-52 -48 -52 -53q82 -22 82 -76v-12q0 -115 -233 -191q-132 -50 -205 -50h-70q-36 0 -49 34q-2 11 -2 18v12
q0 44 43 52h52q71 0 189 47q1 4 4 4l-2 4v30q0 124 185 287q193 135 337 135q101 0 135 -107q45 -64 132 -64h4q50 65 109 132q195 197 339 197zM1150 503h2q173 37 259 80q94 55 94 93v2q0 30 -64 30h-6q-92 0 -285 -205z" />
    <glyph glyph-name="uniFCB4" unicode="&#xfebf;&#xfea0;" horiz-adv-x="1574" arabic-form="initial" 
d="M1375 894h28q126 -3 152 -76q6 -24 6 -38q0 -91 -112 -182q-73 -48 -173 -82q-184 -58 -310 -58q-182 0 -240 112q-12 48 -42 48q0 3 -24 4q-86 0 -237 -102q-61 -55 -74 -74q111 -7 191 -49q52 -35 52 -90v-4q0 -70 -106 -142q-240 -124 -503 -124h28q-66 0 -66 52v12
q0 52 66 52h10q134 0 370 90q53 26 87 58q-59 20 -255 46q-32 16 -32 42v20q4 38 116 163q78 67 140 100q141 70 231 70q101 0 136 -106q43 -62 130 -62h2q47 68 156 176q159 144 273 144zM1095 588q108 22 194 52q153 63 153 118v2q0 28 -54 28h-16q-87 0 -277 -198v-2z
M443 -162l-34 -55q-18 -29 -49 -29q-25 0 -44 17.5t-19 42.5q0 16 10 33l34 55q18 29 49 29q25 0 44 -17.5t19 -42.5q0 -16 -10 -33zM1107 1011l-34 -55q-18 -29 -49 -29q-25 0 -44 17.5t-19 42.5q0 16 10 33l34 55q18 29 49 29q25 0 44 -17.5t19 -42.5q0 -16 -10 -33z" />
    <glyph glyph-name="uniFCB5" unicode="&#xfebf;&#xfea4;" horiz-adv-x="1574" arabic-form="initial" 
d="M1375 894h28q126 -3 152 -76q6 -24 6 -38q0 -91 -112 -182q-73 -48 -173 -82q-184 -58 -310 -58q-182 0 -240 112q-12 48 -42 48q0 3 -24 4q-86 0 -237 -102q-61 -55 -74 -74q111 -7 191 -49q52 -35 52 -90v-4q0 -70 -106 -142q-240 -124 -503 -124h28q-66 0 -66 52v12
q0 52 66 52h10q134 0 370 90q53 26 87 58q-59 20 -255 46q-32 16 -32 42v20q4 38 116 163q78 67 140 100q141 70 231 70q101 0 136 -106q43 -62 130 -62h2q47 68 156 176q159 144 273 144zM1095 588q108 22 194 52q153 63 153 118v2q0 28 -54 28h-16q-87 0 -277 -198v-2z
M1104 1007l-34 -55q-18 -29 -49 -29q-25 0 -44 17.5t-19 42.5q0 16 10 33l34 55q18 29 49 29q25 0 44 -17.5t19 -42.5q0 -16 -10 -33z" />
    <glyph glyph-name="uniFCB6" unicode="&#xfebf;&#xfea8;" horiz-adv-x="1574" arabic-form="initial" 
d="M1375 894h28q126 -3 152 -76q6 -24 6 -38q0 -91 -112 -182q-73 -48 -173 -82q-184 -58 -310 -58q-182 0 -240 112q-12 48 -42 48q0 3 -24 4q-86 0 -237 -102q-61 -55 -74 -74q111 -7 191 -49q52 -35 52 -90v-4q0 -70 -106 -142q-240 -124 -503 -124h28q-66 0 -66 52v12
q0 52 66 52h10q134 0 370 90q53 26 87 58q-59 20 -255 46q-32 16 -32 42v20q4 38 116 163q78 67 140 100q141 70 231 70q101 0 136 -106q43 -62 130 -62h2q47 68 156 176q159 144 273 144zM1095 588q108 22 194 52q153 63 153 118v2q0 28 -54 28h-16q-87 0 -277 -198v-2z
M281 746l-34 -55q-18 -29 -49 -29q-25 0 -44 17.5t-19 42.5q0 16 10 33l34 55q18 29 49 29q25 0 44 -17.5t19 -42.5q0 -16 -10 -33zM1138 1053l-34 -55q-18 -29 -49 -29q-25 0 -44 17.5t-19 42.5q0 16 10 33l34 55q18 29 49 29q25 0 44 -17.5t19 -42.5q0 -16 -10 -33z" />
    <glyph glyph-name="uniFCB7" unicode="&#xfebf;&#xfee4;" horiz-adv-x="1645" arabic-form="initial" 
d="M1455 818q132 0 169 -68q10 -22 10 -44v-14q0 -73 -92 -161q-123 -91 -284 -126q-120 -33 -212 -33h-33q-183 0 -237 129q0 32 -58 36h-4q-100 0 -257 -118q-52 -48 -52 -53q82 -22 82 -76v-12q0 -115 -233 -191q-132 -50 -205 -50h-70q-36 0 -49 34q-2 11 -2 18v12
q0 44 43 52h52q71 0 189 47q1 4 4 4l-2 4v30q0 124 185 287q193 135 337 135q101 0 135 -107q45 -64 132 -64h4q50 65 109 132q195 197 339 197zM1150 503h2q173 37 259 80q94 55 94 93v2q0 30 -64 30h-6q-92 0 -285 -205zM1274 1022l-34 -55q-18 -29 -49 -29
q-25 0 -44 17.5t-19 42.5q0 16 10 33l34 55q18 29 49 29q25 0 44 -17.5t19 -42.5q0 -16 -10 -33z" />
    <glyph glyph-name="uniFCBA" unicode="&#xfecb;&#xfea0;" horiz-adv-x="1095" arabic-form="initial" 
d="M758 1112h1q111 0 150 -123v-10q0 -42 -36 -54q-10 -2 -16 -2h-18q-32 0 -54 54q-20 16 -38 16q-48 0 -96 -72q-5 -20 -5 -32v-2q0 -90 128 -121q166 58 234 95l11 2h11q34 0 52 -48q2 -10 2 -15q0 -47 -83 -74q-110 -47 -348 -126q-183 -66 -268 -126q-15 -11 -15 -13
q48 -1 152 -32q63 -27 79 -72q7 -20 7 -33v-14q0 -63 -95 -135q-258 -139 -511 -139h-27q-44 0 -56 36q-2 10 -2 16v15q0 41 41 52h16q178 0 412 90q63 26 103 67q-56 21 -259 47q-40 15 -40 50v11q0 23 29 58q65 81 121 110q68 47 194 95q81 29 83 32q-97 85 -97 174
q0 104 126 194q54 29 112 29z" />
    <glyph glyph-name="uniFCBB" unicode="&#xfecb;&#xfee4;" horiz-adv-x="1077" arabic-form="initial" 
d="M745 967q102 0 142 -110q2 -11 2 -19q-6 -49 -43 -49q0 -2 -10 -2h-12q-32 0 -54 51q-16 16 -39 16q-41 0 -86 -67q-7 -19 -7 -31q0 -89 122 -117q152 52 225 91q5 0 12 2q38 0 55 -45q2 -6 2 -13v-4q0 -43 -76 -68q-98 -43 -328 -119q-180 -64 -267 -127v-1
q68 -22 68 -76q0 -114 -211 -185q-142 -55 -216 -55h-21q-53 0 -53 53v7q0 53 55 53h11q107 15 171 48l-2 4v37q0 114 157 225q86 61 269 122v2q-91 84 -91 159v11q0 87 105 169q53 38 120 38z" />
    <glyph glyph-name="uniFCBC" unicode="&#xfecf;&#xfea0;" horiz-adv-x="1095" arabic-form="initial" 
d="M758 1112h1q111 0 150 -123v-10q0 -42 -36 -54q-10 -2 -16 -2h-18q-32 0 -54 54q-20 16 -38 16q-48 0 -96 -72q-5 -20 -5 -32v-2q0 -90 128 -121q166 58 234 95l11 2h11q34 0 52 -48q2 -10 2 -15q0 -47 -83 -74q-110 -47 -348 -126q-183 -66 -268 -126q-15 -11 -15 -13
q48 -1 152 -32q63 -27 79 -72q7 -20 7 -33v-14q0 -63 -95 -135q-258 -139 -511 -139h-27q-44 0 -56 36q-2 10 -2 16v15q0 41 41 52h16q178 0 412 90q63 26 103 67q-56 21 -259 47q-40 15 -40 50v11q0 23 29 58q65 81 121 110q68 47 194 95q81 29 83 32q-97 85 -97 174
q0 104 126 194q54 29 112 29zM664 1321l-34 -55q-18 -29 -49 -29q-25 0 -44 17.5t-19 42.5q0 16 10 33l34 55q18 29 49 29q25 0 44 -17.5t19 -42.5q0 -16 -10 -33z" />
    <glyph glyph-name="uniFCBD" unicode="&#xfecf;&#xfee4;" horiz-adv-x="1070" arabic-form="initial" 
d="M745 967q102 0 142 -110q2 -11 2 -19q-6 -49 -43 -49q0 -2 -10 -2h-12q-32 0 -54 51q-16 16 -39 16q-41 0 -86 -67q-7 -19 -7 -31q0 -89 122 -117q152 52 225 91q5 0 12 2q38 0 55 -45q2 -6 2 -13v-4q0 -43 -76 -68q-98 -43 -328 -119q-180 -64 -267 -127v-1
q68 -22 68 -76q0 -114 -211 -185q-142 -55 -216 -55h-21q-53 0 -53 53v7q0 53 55 53h11q107 15 171 48l-2 4v37q0 114 157 225q86 61 269 122v2q-91 84 -91 159v11q0 87 105 169q53 38 120 38zM759 1196l-34 -55q-18 -29 -49 -29q-25 0 -44 17.5t-19 42.5q0 16 10 33l34 55
q18 29 49 29q25 0 44 -17.5t19 -42.5q0 -16 -10 -33z" />
    <glyph glyph-name="uniFCBE" unicode="&#xfed3;&#xfea0;" horiz-adv-x="601" arabic-form="initial" 
d="M411 906q70 0 124 -106q22 -60 22 -115v-21q0 -147 -149 -221v-3q96 -12 156 -61q25 -37 25 -73v-2q0 -89 -152 -164q-226 -102 -423 -102h-26q-5 0 -5 5v106q1 5 5 5h16q150 0 390 94q43 19 80 56q-65 18 -261 47q-28 17 -28 54q0 70 186 146q70 40 70 96q-3 21 -16 21
q-37 -7 -61 -7h-5q-101 0 -101 87t94 146q36 12 59 12zM458 1154l-34 -55q-18 -29 -49 -29q-25 0 -44 17.5t-19 42.5q0 16 10 33l34 55q18 29 49 29q25 0 44 -17.5t19 -42.5q0 -16 -10 -33zM372 -169l-34 -55q-18 -29 -49 -29q-25 0 -44 17.5t-19 42.5q0 16 10 33l34 55
q18 29 49 29q25 0 44 -17.5t19 -42.5q0 -16 -10 -33z" />
    <glyph glyph-name="uniFCBF" unicode="&#xfed3;&#xfea4;" horiz-adv-x="591" arabic-form="initial" 
d="M411 906q70 0 124 -106q22 -60 22 -115v-21q0 -147 -149 -221v-3q96 -12 156 -61q25 -37 25 -73v-2q0 -89 -152 -164q-226 -102 -423 -102h-26q-5 0 -5 5v106q1 5 5 5h16q150 0 390 94q43 19 80 56q-65 18 -261 47q-28 17 -28 54q0 70 186 146q70 40 70 96q-3 21 -16 21
q-37 -7 -61 -7h-5q-101 0 -101 87t94 146q36 12 59 12zM420 1135l-34 -55q-18 -29 -49 -29q-25 0 -44 17.5t-19 42.5q0 16 10 33l34 55q18 29 49 29q25 0 44 -17.5t19 -42.5q0 -16 -10 -33z" />
    <glyph glyph-name="uniFCC0" unicode="&#xfed3;&#xfea8;" horiz-adv-x="601" arabic-form="initial" 
d="M411 906q70 0 124 -106q22 -60 22 -115v-21q0 -147 -149 -221v-3q96 -12 156 -61q25 -37 25 -73v-2q0 -89 -152 -164q-226 -102 -423 -102h-26q-5 0 -5 5v106q1 5 5 5h16q150 0 390 94q43 19 80 56q-65 18 -261 47q-28 17 -28 54q0 70 186 146q70 40 70 96q-3 21 -16 21
q-37 -7 -61 -7h-5q-101 0 -101 87t94 146q36 12 59 12zM438 1185l-34 -55q-18 -29 -49 -29q-25 0 -44 17.5t-19 42.5q0 16 10 33l34 55q18 29 49 29q25 0 44 -17.5t19 -42.5q0 -16 -10 -33zM220 636l-34 -55q-18 -29 -49 -29q-25 0 -44 17.5t-19 42.5q0 16 10 33l34 55
q18 29 49 29q25 0 44 -17.5t19 -42.5q0 -16 -10 -33z" />
    <glyph glyph-name="uniFCC1" unicode="&#xfed3;&#xfee4;" horiz-adv-x="861" arabic-form="initial" 
d="M682 970h14q58 0 116 -91q29 -68 29 -132q0 -176 -186 -254q-196 -79 -239 -108q-16 -12 -16 -14q71 -25 71 -72v-16q0 -116 -239 -194q-138 -53 -218 -53h-36q-3 0 -3 4v113q1 3 3 3h33q59 2 175 48q0 1 6 3q-2 17 -2 26v3q0 161 211 281q64 29 229 89q94 52 94 95v5
q0 17 -20 19q-38 -7 -54 -7h-24q-69 0 -89 54q-6 18 -6 36v1q0 76 77 137q36 24 74 24zM663 1205l-34 -55q-18 -29 -49 -29q-25 0 -44 17.5t-19 42.5q0 16 10 33l34 55q18 29 49 29q25 0 44 -17.5t19 -42.5q0 -16 -10 -33z" />
    <glyph glyph-name="uniFCC2" unicode="&#xfed7;&#xfea4;" horiz-adv-x="601" arabic-form="initial" 
d="M411 906q70 0 124 -106q22 -60 22 -115v-21q0 -147 -149 -221v-3q96 -12 156 -61q25 -37 25 -73v-2q0 -89 -152 -164q-226 -102 -423 -102h-26q-5 0 -5 5v106q1 5 5 5h16q150 0 390 94q43 19 80 56q-65 18 -261 47q-28 17 -28 54q0 70 186 146q70 40 70 96q-3 21 -16 21
q-37 -7 -61 -7h-5q-101 0 -101 87t94 146q36 12 59 12zM409 1041q-84 -36 -202 -36q-107 0 -107 45q0 32 91 46q62 9 171 55q13 6 26 6q58 0 58 -63q0 -38 -37 -53z" />
    <glyph glyph-name="uniFCC3" unicode="&#xfed7;&#xfee4;" horiz-adv-x="851" arabic-form="initial" 
d="M682 970h14q58 0 116 -91q29 -68 29 -132q0 -176 -186 -254q-196 -79 -239 -108q-16 -12 -16 -14q71 -25 71 -72v-16q0 -116 -239 -194q-138 -53 -218 -53h-36q-3 0 -3 4v113q1 3 3 3h33q59 2 175 48q0 1 6 3q-2 17 -2 26v3q0 161 211 281q64 29 229 89q94 52 94 95v5
q0 17 -20 19q-38 -7 -54 -7h-24q-69 0 -89 54q-6 18 -6 36v1q0 76 77 137q36 24 74 24zM782 1181q-84 -36 -202 -36q-107 0 -107 45q0 32 91 46q62 9 171 55q13 6 26 6q58 0 58 -63q0 -38 -37 -53z" />
    <glyph glyph-name="uniFCC7" unicode="&#xfb90;&#xfee0;" horiz-adv-x="953" arabic-form="initial" 
d="M935 1195h22q45 -5 45 -43v-13q-24 -95 -177 -277q-127 -128 -244 -188q-97 -45 -115 -45h-19q-19 0 -19 19v5q6 31 102 94q78 57 215 204q101 122 155 225q22 19 35 19zM281 980q48 0 48 -86q40 -401 40 -423l5 -3q127 105 247 105q139 0 191 -132q13 -37 13 -80
q0 -219 -284 -317q-38 -8 -62 -8h-35q-112 0 -150 75v3h-3q-123 -78 -260 -78h-32q-6 0 -6 5v108q1 5 6 5h8q160 0 247 83q16 22 16 51q0 75 -62 625q0 46 70 67h3zM385 323q13 -156 22 -156q16 -13 51 -13h5q114 0 217 121q24 43 24 80v16q0 69 -67 81h-16q-95 0 -236 -129
z" />
    <glyph glyph-name="uniFCC8" unicode="&#xfb90;&#xfee4;" horiz-adv-x="806" arabic-form="initial" 
d="M840 1439h13q50 0 50 -53q0 -37 -132 -172q-142 -131 -268 -196q-163 -83 -196 -83q-18 0 -25 13v15q0 27 122 101q156 105 303 249q54 51 106 118q19 8 27 8zM277 885q40 0 40 -61q22 -161 22 -295v-45q0 -50 -11 -105h2q55 0 118 -38q23 -25 23 -44v-19
q0 -123 -278 -207q-102 -35 -168 -35h-50q-59 0 -59 59t59 59h43q59 0 179 48q0 11 -2 32q0 54 40 137q0 3 2 29q0 125 -33 415q0 46 61 70h12z" />
    <glyph glyph-name="uniFCC9" unicode="&#xfedf;&#xfea0;" horiz-adv-x="627" arabic-form="initial" 
d="M381 1167h14q24 0 30 -56q34 -284 54 -549q0 -64 -47 -118q23 0 106 -29q45 -19 67 -60q9 -27 9 -42v-8q0 -57 -81 -124q-59 -44 -215 -96q-146 -50 -290 -50h-8q-57 0 -67 33q-3 14 -3 23v6q0 56 64 56h45q94 0 327 82q68 28 112 70q-56 20 -258 46q-35 13 -35 48v13
q0 45 69 67q89 46 89 89q-13 173 -53 514q0 46 57 82q10 3 14 3zM375 -170l-34 -55q-18 -29 -49 -29q-25 0 -44 17.5t-19 42.5q0 16 10 33l34 55q18 29 49 29q25 0 44 -17.5t19 -42.5q0 -16 -10 -33z" />
    <glyph glyph-name="uniFCCA" unicode="&#xfedf;&#xfea4;" horiz-adv-x="622" arabic-form="initial" 
d="M381 1167h14q24 0 30 -56q34 -284 54 -549q0 -64 -47 -118q23 0 106 -29q45 -19 67 -60q9 -27 9 -42v-8q0 -57 -81 -124q-59 -44 -215 -96q-146 -50 -290 -50h-8q-57 0 -67 33q-3 14 -3 23v6q0 56 64 56h45q94 0 327 82q68 28 112 70q-56 20 -258 46q-35 13 -35 48v13
q0 45 69 67q89 46 89 89q-13 173 -53 514q0 46 57 82q10 3 14 3z" />
    <glyph glyph-name="uniFCCB" unicode="&#xfedf;&#xfea8;" horiz-adv-x="622" arabic-form="initial" 
d="M381 1167h14q24 0 30 -56q34 -284 54 -549q0 -64 -47 -118q23 0 106 -29q45 -19 67 -60q9 -27 9 -42v-8q0 -57 -81 -124q-59 -44 -215 -96q-146 -50 -290 -50h-8q-57 0 -67 33q-3 14 -3 23v6q0 56 64 56h45q94 0 327 82q68 28 112 70q-56 20 -258 46q-35 13 -35 48v13
q0 45 69 67q89 46 89 89q-13 173 -53 514q0 46 57 82q10 3 14 3zM252 709l-34 -55q-18 -29 -49 -29q-25 0 -44 17.5t-19 42.5q0 16 10 33l34 55q18 29 49 29q25 0 44 -17.5t19 -42.5q0 -16 -10 -33z" />
    <glyph glyph-name="uniFCCC" unicode="&#xfedf;&#xfee4;" horiz-adv-x="499" arabic-form="initial" 
d="M271 1015h8q25 0 32 -35q0 -76 37 -452q2 -2 2 -33v-31q0 -45 -12 -90q60 -4 109 -32q32 -24 32 -59q0 -104 -163 -168q-177 -73 -268 -77q-26 1 -42 1h-9q-43 0 -49 53v5q0 57 59 57h34q102 14 170 48q-2 17 -2 24v6q0 61 36 123q5 21 5 34v13q0 11 -38 403
q-10 118 -10 136q0 45 53 71q6 3 16 3z" />
    <glyph glyph-name="uniFCCE" unicode="&#xfee3;&#xfea0;" horiz-adv-x="948" arabic-form="initial" 
d="M817 905q91 0 115 -66q4 -19 4 -30q0 -108 -66 -139q-108 -54 -372 -133q-63 -29 -102 -62v-2q95 -9 159 -33q91 -40 91 -112v-9q0 -71 -111 -149q-274 -136 -509 -136q-13 1 -20 1h-18q-54 0 -54 65q0 59 68 59h30q129 0 376 88q70 28 114 72q-50 19 -272 49
q-38 16 -38 59q0 46 103 140q62 49 125 77q71 35 174 62q28 7 28 10q0 116 81 169q36 20 94 20zM549 -130l-34 -55q-18 -29 -49 -29q-25 0 -44 17.5t-19 42.5q0 16 10 33l34 55q18 29 49 29q25 0 44 -17.5t19 -42.5q0 -16 -10 -33z" />
    <glyph glyph-name="uniFCCF" unicode="&#xfee3;&#xfea4;" horiz-adv-x="953" arabic-form="initial" 
d="M817 905q91 0 115 -66q4 -19 4 -30q0 -108 -66 -139q-108 -54 -372 -133q-63 -29 -102 -62v-2q95 -9 159 -33q91 -40 91 -112v-9q0 -71 -111 -149q-274 -136 -509 -136q-13 1 -20 1h-18q-54 0 -54 65q0 59 68 59h30q129 0 376 88q70 28 114 72q-50 19 -272 49
q-38 16 -38 59q0 46 103 140q62 49 125 77q71 35 174 62q28 7 28 10q0 116 81 169q36 20 94 20z" />
    <glyph glyph-name="uniFCD0" unicode="&#xfee3;&#xfea8;" horiz-adv-x="953" arabic-form="initial" 
d="M817 905q91 0 115 -66q4 -19 4 -30q0 -108 -66 -139q-108 -54 -372 -133q-63 -29 -102 -62v-2q95 -9 159 -33q91 -40 91 -112v-9q0 -71 -111 -149q-274 -136 -509 -136q-13 1 -20 1h-18q-54 0 -54 65q0 59 68 59h30q129 0 376 88q70 28 114 72q-50 19 -272 49
q-38 16 -38 59q0 46 103 140q62 49 125 77q71 35 174 62q28 7 28 10q0 116 81 169q36 20 94 20zM388 892l-34 -55q-18 -29 -49 -29q-25 0 -44 17.5t-19 42.5q0 16 10 33l34 55q18 29 49 29q25 0 44 -17.5t19 -42.5q0 -16 -10 -33z" />
    <glyph glyph-name="uniFCD1" unicode="&#xfee3;&#xfee4;" horiz-adv-x="913" arabic-form="initial" 
d="M785 765h8q83 0 106 -61l4 -29q0 -48 -24 -98q-35 -48 -252 -113q-142 -41 -194 -74q-24 -17 -30 -20q0 -3 27 -12q44 -26 44 -63v-11q0 -114 -235 -191q-129 -49 -215 -49h-16q-66 0 -66 59v1q0 57 61 57h31q47 0 163 43q8 5 8 6q0 6 -1 29q0 154 214 274q77 36 154 59
q55 12 55 19q0 95 67 151q38 23 91 23z" />
    <glyph glyph-name="uniFCD2" unicode="&#xfee7;&#xfea0;" arabic-form="initial" 
d="M687 781q117 0 117 -66v-14q0 -67 -80 -78q-34 -5 -66 -5q-77 0 -102 10q-89 -22 -224 -156q0 -5 -10 -15v-2q108 -6 192 -49q56 -35 56 -90v-12q0 -66 -104 -139q-258 -131 -492 -131q-12 3 -12 7v107q1 5 5 5q165 0 411 100q54 29 73 54q-43 17 -263 48q-31 18 -31 54
q7 59 136 194q195 178 394 178zM661 989l-34 -55q-18 -29 -49 -29q-25 0 -44 17.5t-19 42.5q0 16 10 33l34 55q18 29 49 29q25 0 44 -17.5t19 -42.5q0 -16 -10 -33zM405 -169l-34 -55q-18 -29 -49 -29q-25 0 -44 17.5t-19 42.5q0 16 10 33l34 55q18 29 49 29q25 0 44 -17.5
t19 -42.5q0 -16 -10 -33z" />
    <glyph glyph-name="uniFCD3" unicode="&#xfee7;&#xfea4;" arabic-form="initial" 
d="M687 781q117 0 117 -66v-14q0 -67 -80 -78q-34 -5 -66 -5q-77 0 -102 10q-89 -22 -224 -156q0 -5 -10 -15v-2q108 -6 192 -49q56 -35 56 -90v-12q0 -66 -104 -139q-258 -131 -492 -131q-12 3 -12 7v107q1 5 5 5q165 0 411 100q54 29 73 54q-43 17 -263 48q-31 18 -31 54
q7 59 136 194q195 178 394 178zM661 989l-34 -55q-18 -29 -49 -29q-25 0 -44 17.5t-19 42.5q0 16 10 33l34 55q18 29 49 29q25 0 44 -17.5t19 -42.5q0 -16 -10 -33z" />
    <glyph glyph-name="uniFCD4" unicode="&#xfee7;&#xfea8;" arabic-form="initial" 
d="M687 781q117 0 117 -66v-14q0 -67 -80 -78q-34 -5 -66 -5q-77 0 -102 10q-89 -22 -224 -156q0 -5 -10 -15v-2q108 -6 192 -49q56 -35 56 -90v-12q0 -66 -104 -139q-258 -131 -492 -131q-12 3 -12 7v107q1 5 5 5q165 0 411 100q54 29 73 54q-43 17 -263 48q-31 18 -31 54
q7 59 136 194q195 178 394 178zM661 989l-34 -55q-18 -29 -49 -29q-25 0 -44 17.5t-19 42.5q0 16 10 33l34 55q18 29 49 29q25 0 44 -17.5t19 -42.5q0 -16 -10 -33zM276 699l-34 -55q-18 -29 -49 -29q-25 0 -44 17.5t-19 42.5q0 16 10 33l34 55q18 29 49 29q25 0 44 -17.5
t19 -42.5q0 -16 -10 -33z" />
    <glyph glyph-name="uniFCD5" unicode="&#xfee7;&#xfee4;" horiz-adv-x="425" arabic-form="initial" 
d="M735 678q117 0 117 -71v-5q0 -61 -66 -77q-25 -5 -77 -7q-98 2 -98 10h-6q-87 -31 -185 -119l-38 -43q84 -23 84 -80q0 -109 -170 -174q-179 -74 -272 -74h-35q-3 0 -3 3v109q1 4 3 4h22q63 0 180 46q0 1 5 3q-2 17 -2 25v5q0 80 66 166q36 58 125 137q177 142 350 142z
M366 807l-34 -55q-18 -29 -49 -29q-25 0 -44 17.5t-19 42.5q0 16 10 33l34 55q18 29 49 29q25 0 44 -17.5t19 -42.5q0 -16 -10 -33z" />
    <glyph glyph-name="uniFCD6" unicode="&#xfee7;&#xfeec;" horiz-adv-x="881" arabic-form="initial" 
d="M754 293q116 0 116 -71v-3q0 -59 -55 -77q-31 -9 -86 -9q-83 0 -103 9h-2q-200 -77 -305 -287q-113 -263 -198 -263q-91 0 -91 126q0 116 68 337h-2q-74 -19 -108 -19l-2 4v108q0 4 51 10q92 23 128 72q26 32 53 32q56 0 56 -55v-4q0 -15 -40 -108q-77 -234 -77 -282
q-2 0 -5 -31v-1h2q81 180 150 266q68 82 128 126q168 120 322 120zM647 533l-34 -55q-18 -29 -49 -29q-25 0 -44 17.5t-19 42.5q0 16 10 33l34 55q18 29 49 29q25 0 44 -17.5t19 -42.5q0 -16 -10 -33z" />
    <glyph glyph-name="uniFCD7" unicode="&#xfeeb;&#xfea0;" horiz-adv-x="1038" arabic-form="initial" 
d="M791 1296h7q145 0 213 -400q5 -73 5 -78q0 -86 -37 -121q-58 -59 -120 -82q-113 -44 -241 -44q-6 0 -37 2q-131 -48 -169 -79q-27 -22 -42 -36v-2h2q102 -10 166 -37q76 -38 76 -103v-12q0 -53 -83 -124q-65 -44 -208 -92q-158 -51 -263 -51h-61q-51 5 -51 51v15
q0 46 52 51h32q133 0 373 92q50 21 92 62q-49 21 -253 45q-44 14 -44 58q0 51 130 160q64 45 117 72q-9 16 -9 44v5q0 93 119 181q49 30 92 30q77 0 107 -77l3 -29q0 -47 -31 -105h2q42 6 122 45q47 30 47 56q4 0 5 31v13q0 48 -47 221q-35 109 -79 109q-58 0 -181 -143
q-31 -53 -56 -53h-14q-23 4 -23 32v7q9 74 133 206q84 80 154 80zM539 716v-7q0 -10 14 -17q52 16 78 66q5 15 5 21v3q-1 14 -19 14q-43 0 -76 -67q-2 -6 -2 -13zM554 -291l-34 -55q-18 -29 -49 -29q-25 0 -44 17.5t-19 42.5q0 16 10 33l34 55q18 29 49 29q25 0 44 -17.5
t19 -42.5q0 -16 -10 -33z" />
    <glyph glyph-name="uniFCD8" unicode="&#xfeeb;&#xfee4;" horiz-adv-x="1055" arabic-form="initial" 
d="M804 1209h21q133 0 205 -385q7 -58 7 -101q0 -84 -36 -116q-50 -53 -91 -69q-120 -58 -258 -58h-41l-11 1q-135 -50 -162 -74q-24 -15 -46 -37q81 -23 81 -81q0 -121 -222 -196q-150 -57 -225 -57h-32q-53 0 -53 60q0 59 57 59h18q54 0 176 47q1 4 4 4l-2 12v25
q0 150 235 290q34 15 34 17q-9 25 -9 48q0 99 124 187q42 27 83 27h15q61 0 96 -66q5 -19 5 -32v-15q0 -42 -30 -99q24 0 113 40q54 28 60 60q5 22 5 41q-18 152 -61 265q-30 72 -62 72h-4q-57 0 -171 -129q-43 -67 -71 -67h-12q-21 0 -23 36q0 50 94 167q109 124 189 124z
M570 624v-8q0 -11 13 -18h2q47 13 70 51q16 23 16 43q0 12 -19 12q-44 0 -80 -67z" />
    <glyph glyph-name="uniFCDA" unicode="&#xfbfe;&#xfea0;" arabic-form="initial" 
d="M687 781q117 0 117 -66v-14q0 -67 -80 -78q-34 -5 -66 -5q-77 0 -102 10q-89 -22 -224 -156q0 -5 -10 -15v-2q108 -6 192 -49q56 -35 56 -90v-12q0 -66 -104 -139q-258 -131 -492 -131q-12 3 -12 7v107q1 5 5 5q165 0 411 100q54 29 73 54q-43 17 -263 48q-31 18 -31 54
q7 59 136 194q195 178 394 178zM811 -42q-84 -36 -202 -36q-107 0 -107 45q0 32 91 46q62 9 171 55q13 6 26 6q58 0 58 -63q0 -38 -37 -53zM405 -169l-34 -55q-18 -29 -49 -29q-25 0 -44 17.5t-19 42.5q0 16 10 33l34 55q18 29 49 29q25 0 44 -17.5t19 -42.5q0 -16 -10 -33z
" />
    <glyph glyph-name="uniFCDB" unicode="&#xfbfe;&#xfea4;" arabic-form="initial" 
d="M687 781q117 0 117 -66v-14q0 -67 -80 -78q-34 -5 -66 -5q-77 0 -102 10q-89 -22 -224 -156q0 -5 -10 -15v-2q108 -6 192 -49q56 -35 56 -90v-12q0 -66 -104 -139q-258 -131 -492 -131q-12 3 -12 7v107q1 5 5 5q165 0 411 100q54 29 73 54q-43 17 -263 48q-31 18 -31 54
q7 59 136 194q195 178 394 178zM786 -123q-84 -36 -202 -36q-107 0 -107 45q0 32 91 46q62 9 171 55q13 6 26 6q58 0 58 -63q0 -38 -37 -53z" />
    <glyph glyph-name="uniFCDC" unicode="&#xfbfe;&#xfea8;" arabic-form="initial" 
d="M687 781q117 0 117 -66v-14q0 -67 -80 -78q-34 -5 -66 -5q-77 0 -102 10q-89 -22 -224 -156q0 -5 -10 -15v-2q108 -6 192 -49q56 -35 56 -90v-12q0 -66 -104 -139q-258 -131 -492 -131q-12 3 -12 7v107q1 5 5 5q165 0 411 100q54 29 73 54q-43 17 -263 48q-31 18 -31 54
q7 59 136 194q195 178 394 178zM786 -123q-84 -36 -202 -36q-107 0 -107 45q0 32 91 46q62 9 171 55q13 6 26 6q58 0 58 -63q0 -38 -37 -53zM276 699l-34 -55q-18 -29 -49 -29q-25 0 -44 17.5t-19 42.5q0 16 10 33l34 55q18 29 49 29q25 0 44 -17.5t19 -42.5q0 -16 -10 -33z
" />
    <glyph glyph-name="uniFCDD" unicode="&#xfbfe;&#xfee4;" horiz-adv-x="871" arabic-form="initial" 
d="M735 678q117 0 117 -71v-5q0 -61 -66 -77q-25 -5 -77 -7q-98 2 -98 10h-6q-87 -31 -185 -119l-38 -43q84 -23 84 -80q0 -109 -170 -174q-179 -74 -272 -74h-35q-3 0 -3 3v109q1 4 3 4h22q63 0 180 46q0 1 5 3q-2 17 -2 25v5q0 80 66 166q36 58 125 137q177 142 350 142z
M806 99q-84 -36 -202 -36q-107 0 -107 45q0 32 91 46q62 9 171 55q13 6 26 6q58 0 58 -63q0 -38 -37 -53z" />
    <glyph glyph-name="uniFCDE" unicode="&#xfbfe;&#xfeec;" horiz-adv-x="881" arabic-form="initial" 
d="M754 293q116 0 116 -71v-3q0 -59 -55 -77q-31 -9 -86 -9q-83 0 -103 9h-2q-200 -77 -305 -287q-113 -263 -198 -263q-91 0 -91 126q0 116 68 337h-2q-74 -19 -108 -19l-2 4v108q0 4 51 10q92 23 128 72q26 32 53 32q56 0 56 -55v-4q0 -15 -40 -108q-77 -234 -77 -282
q-2 0 -5 -31v-1h2q81 180 150 266q68 82 128 126q168 120 322 120zM828 -292q-84 -36 -202 -36q-107 0 -107 45q0 32 91 46q62 9 171 55q13 6 26 6q58 0 58 -63q0 -38 -37 -53z" />
    <glyph glyph-name="uniFCDF" unicode="&#xfe8c;&#xfee4;" horiz-adv-x="518" arabic-form="medial" 
d="M518 312q-28 0 -60 13.5t-66 60.5q-17 23 -28 37.5t-20.5 22.5t-19.5 11t-23 4q-18 -2 -39.5 -10.5t-41 -24t-32.5 -37t-13 -48.5q0 -25 13 -51t31 -50t38.5 -43t35.5 -29q15 -5 31 -10.5t29.5 -11t24 -10t14.5 -7.5q20 -13 26.5 -30t6.5 -40q0 -11 -4.5 -28t-11 -33.5
t-13 -28.5t-10.5 -12q-17 0 -40.5 11t-47 27t-44 34t-30.5 33q-21 -2 -51 -12t-62.5 -21t-62 -20t-48.5 -9q-26 0 -37 9.5t-11 23.5q0 26 20 46.5t62 34.5q10 3 27.5 8.5t37 10.5t39.5 9.5t36 6.5q-5 7 -12.5 20.5t-15 31t-13 37t-5.5 38.5q0 53 19.5 104.5t50 91.5
t67.5 64.5t73 24.5q34 0 53 -12.5t34 -30.5t31 -39.5t44 -39.5q13 -8 29 -10.5t23 -2.5zM406 868q0 -58 -62.5 -108.5t-121.5 -50.5q-33 0 -33 31q0 25 27 35q86 31 104 80q-73 18 -73 61q0 35 35 79q30 38 66 60q12 7 25 7q37 0 37 -31q0 -16 -17 -30q-47 -37 -61 -73
q43 -12 50 -16q24 -13 24 -44z" />
    <glyph glyph-name="uniFCE0" unicode="&#xfe8c;&#xfeec;" horiz-adv-x="1044" arabic-form="medial" 
d="M834 325h4q82 0 106 -64q20 -96 42 -96q15 -10 41 -10h19q4 0 4 -3v-112q0 -4 -4 -4h-6q-152 0 -186 108q-6 58 -29 58h-12q-116 0 -298 -181q-103 -93 -133 -177q-73 -153 -116 -206q-46 -54 -86 -54q-60 0 -83 64q-8 29 -8 55v12q0 123 70 345q-71 -24 -160 -24l-2 4
v112q0 4 4 4h4q166 0 232 94q20 19 45 19h4q52 0 52 -55v-4q0 -17 -43 -114q-81 -251 -81 -312q-2 0 -2 -6v-1h2q96 201 127 233q68 86 147 140q186 175 346 175zM786 699q0 -58 -62.5 -108.5t-121.5 -50.5q-33 0 -33 31q0 25 27 35q86 31 104 80q-73 18 -73 61q0 35 35 79
q30 38 66 60q12 7 25 7q37 0 37 -31q0 -16 -17 -30q-47 -37 -61 -73q43 -12 50 -16q24 -13 24 -44z" />
    <glyph glyph-name="uniFCE1" unicode="&#xfe92;&#xfee4;" horiz-adv-x="518" arabic-form="medial" 
d="M518 312q-28 0 -60 13.5t-66 60.5q-17 23 -28 37.5t-20.5 22.5t-19.5 11t-23 4q-18 -2 -39.5 -10.5t-41 -24t-32.5 -37t-13 -48.5q0 -25 13 -51t31 -50t38.5 -43t35.5 -29q15 -5 31 -10.5t29.5 -11t24 -10t14.5 -7.5q20 -13 26.5 -30t6.5 -40q0 -11 -4.5 -28t-11 -33.5
t-13 -28.5t-10.5 -12q-17 0 -40.5 11t-47 27t-44 34t-30.5 33q-21 -2 -51 -12t-62.5 -21t-62 -20t-48.5 -9q-26 0 -37 9.5t-11 23.5q0 26 20 46.5t62 34.5q10 3 27.5 8.5t37 10.5t39.5 9.5t36 6.5q-5 7 -12.5 20.5t-15 31t-13 37t-5.5 38.5q0 53 19.5 104.5t50 91.5
t67.5 64.5t73 24.5q34 0 53 -12.5t34 -30.5t31 -39.5t44 -39.5q13 -8 29 -10.5t23 -2.5zM487 -160l-34 -55q-18 -29 -49 -29q-25 0 -44 17.5t-19 42.5q0 16 10 33l34 55q18 29 49 29q25 0 44 -17.5t19 -42.5q0 -16 -10 -33z" />
    <glyph glyph-name="uniFCE2" unicode="&#xfe92;&#xfeec;" horiz-adv-x="1044" arabic-form="medial" 
d="M834 325h4q82 0 106 -64q20 -96 42 -96q15 -10 41 -10h19q4 0 4 -3v-112q0 -4 -4 -4h-6q-152 0 -186 108q-6 58 -29 58h-12q-116 0 -298 -181q-103 -93 -133 -177q-73 -153 -116 -206q-46 -54 -86 -54q-60 0 -83 64q-8 29 -8 55v12q0 123 70 345q-71 -24 -160 -24l-2 4
v112q0 4 4 4h4q166 0 232 94q20 19 45 19h4q52 0 52 -55v-4q0 -17 -43 -114q-81 -251 -81 -312q-2 0 -2 -6v-1h2q96 201 127 233q68 86 147 140q186 175 346 175zM892 -260l-34 -55q-18 -29 -49 -29q-25 0 -44 17.5t-19 42.5q0 16 10 33l34 55q18 29 49 29q25 0 44 -17.5
t19 -42.5q0 -16 -10 -33z" />
    <glyph glyph-name="uniFCE3" unicode="&#xfe98;&#xfee4;" horiz-adv-x="518" arabic-form="medial" 
d="M518 312q-28 0 -60 13.5t-66 60.5q-17 23 -28 37.5t-20.5 22.5t-19.5 11t-23 4q-18 -2 -39.5 -10.5t-41 -24t-32.5 -37t-13 -48.5q0 -25 13 -51t31 -50t38.5 -43t35.5 -29q15 -5 31 -10.5t29.5 -11t24 -10t14.5 -7.5q20 -13 26.5 -30t6.5 -40q0 -11 -4.5 -28t-11 -33.5
t-13 -28.5t-10.5 -12q-17 0 -40.5 11t-47 27t-44 34t-30.5 33q-21 -2 -51 -12t-62.5 -21t-62 -20t-48.5 -9q-26 0 -37 9.5t-11 23.5q0 26 20 46.5t62 34.5q10 3 27.5 8.5t37 10.5t39.5 9.5t36 6.5q-5 7 -12.5 20.5t-15 31t-13 37t-5.5 38.5q0 53 19.5 104.5t50 91.5
t67.5 64.5t73 24.5q34 0 53 -12.5t34 -30.5t31 -39.5t44 -39.5q13 -8 29 -10.5t23 -2.5zM442 712q-84 -36 -202 -36q-107 0 -107 45q0 32 91 46q62 9 171 55q13 6 26 6q58 0 58 -63q0 -38 -37 -53z" />
    <glyph glyph-name="uniFCE4" unicode="&#xfe98;&#xfeec;" horiz-adv-x="1044" arabic-form="medial" 
d="M834 325h4q82 0 106 -64q20 -96 42 -96q15 -10 41 -10h19q4 0 4 -3v-112q0 -4 -4 -4h-6q-152 0 -186 108q-6 58 -29 58h-12q-116 0 -298 -181q-103 -93 -133 -177q-73 -153 -116 -206q-46 -54 -86 -54q-60 0 -83 64q-8 29 -8 55v12q0 123 70 345q-71 -24 -160 -24l-2 4
v112q0 4 4 4h4q166 0 232 94q20 19 45 19h4q52 0 52 -55v-4q0 -17 -43 -114q-81 -251 -81 -312q-2 0 -2 -6v-1h2q96 201 127 233q68 86 147 140q186 175 346 175zM907 630q-84 -36 -202 -36q-107 0 -107 45q0 32 91 46q62 9 171 55q13 6 26 6q58 0 58 -63q0 -38 -37 -53z
" />
    <glyph glyph-name="uniFCE5" unicode="&#xfe9c;&#xfee4;" horiz-adv-x="518" arabic-form="medial" 
d="M518 312q-28 0 -60 13.5t-66 60.5q-17 23 -28 37.5t-20.5 22.5t-19.5 11t-23 4q-18 -2 -39.5 -10.5t-41 -24t-32.5 -37t-13 -48.5q0 -25 13 -51t31 -50t38.5 -43t35.5 -29q15 -5 31 -10.5t29.5 -11t24 -10t14.5 -7.5q20 -13 26.5 -30t6.5 -40q0 -11 -4.5 -28t-11 -33.5
t-13 -28.5t-10.5 -12q-17 0 -40.5 11t-47 27t-44 34t-30.5 33q-21 -2 -51 -12t-62.5 -21t-62 -20t-48.5 -9q-26 0 -37 9.5t-11 23.5q0 26 20 46.5t62 34.5q10 3 27.5 8.5t37 10.5t39.5 9.5t36 6.5q-5 7 -12.5 20.5t-15 31t-13 37t-5.5 38.5q0 53 19.5 104.5t50 91.5
t67.5 64.5t73 24.5q34 0 53 -12.5t34 -30.5t31 -39.5t44 -39.5q13 -8 29 -10.5t23 -2.5zM529 879q11 -17 11 -34q0 -25 -19 -42.5t-44 -17.5q-30 0 -48 27q-36 54 -61 54q-24 0 -72 -42q-39 -35 -60 -65q-42 -57 -69 -57q-16 0 -16 24q0 31 27 81q94 175 203 175
q79 0 148 -103z" />
    <glyph glyph-name="uniFCE6" unicode="&#xfe9c;&#xfeec;" horiz-adv-x="1044" arabic-form="medial" 
d="M834 325h4q82 0 106 -64q20 -96 42 -96q15 -10 41 -10h19q4 0 4 -3v-112q0 -4 -4 -4h-6q-152 0 -186 108q-6 58 -29 58h-12q-116 0 -298 -181q-103 -93 -133 -177q-73 -153 -116 -206q-46 -54 -86 -54q-60 0 -83 64q-8 29 -8 55v12q0 123 70 345q-71 -24 -160 -24l-2 4
v112q0 4 4 4h4q166 0 232 94q20 19 45 19h4q52 0 52 -55v-4q0 -17 -43 -114q-81 -251 -81 -312q-2 0 -2 -6v-1h2q96 201 127 233q68 86 147 140q186 175 346 175zM974 677q11 -17 11 -34q0 -25 -19 -42.5t-44 -17.5q-30 0 -48 27q-36 54 -61 54q-24 0 -72 -42
q-39 -35 -60 -65q-42 -57 -69 -57q-16 0 -16 24q0 31 27 81q94 175 203 175q79 0 148 -103z" />
    <glyph glyph-name="uniFCEB" unicode="&#xfb91;&#xfee0;" horiz-adv-x="917" arabic-form="medial" 
d="M886 1140h18q43 0 43 -48q-9 -64 -140 -234q-114 -124 -160 -148q-165 -106 -208 -106h-18q-14 0 -18 10v13q0 25 104 96q154 125 244 247q49 64 97 152q20 18 38 18zM263 937q46 0 46 -97l38 -391q124 101 236 101q136 0 183 -127q11 -26 11 -61v-23q0 -80 -56 -157
q28 -28 86 -28h109q5 -1 5 -5v-102q0 -5 -5 -5h-124q-97 0 -160 66q-97 -66 -181 -66h-38q-103 0 -140 74q-120 -74 -249 -74h-38q-5 0 -5 5v102q1 5 5 5h23q150 0 231 84q9 10 13 51q-23 276 -61 579q18 69 69 69h2zM360 317q15 -153 23 -153q23 -10 43 -10h7
q109 0 204 109q28 44 28 87v2q0 84 -79 84h-8q-80 0 -211 -117q-2 0 -7 -2z" />
    <glyph glyph-name="uniFCEC" unicode="&#xfb91;&#xfee4;" horiz-adv-x="1100" arabic-form="medial" 
d="M1346 1464q55 0 55 -39v-21q-17 -66 -218 -242q-154 -111 -273 -163q-74 -31 -97 -31q-24 5 -24 21q0 34 118 102q142 93 323 265q85 105 100 105zM755 915q60 0 60 -89q19 -266 66 -656q20 -16 55 -16h150q57 0 57 -58q0 -49 -42 -57h-178q-112 0 -152 89
q-21 87 -40 320q-162 -19 -215.5 -33t-125.5 -50q79 -23 79 -78q0 -127 -247 -203q-120 -44 -189 -44h-40q-50 0 -50 60q5 55 50 55h24q69 0 181 50l-2 13v13q0 180 200.5 254t324.5 81l-3 5l-23 294q0 50 60 50z" />
    <glyph glyph-name="uniFCEE" unicode="&#xfee8;&#xfee4;" horiz-adv-x="518" arabic-form="medial" 
d="M518 312q-28 0 -60 13.5t-66 60.5q-17 23 -28 37.5t-20.5 22.5t-19.5 11t-23 4q-18 -2 -39.5 -10.5t-41 -24t-32.5 -37t-13 -48.5q0 -25 13 -51t31 -50t38.5 -43t35.5 -29q15 -5 31 -10.5t29.5 -11t24 -10t14.5 -7.5q20 -13 26.5 -30t6.5 -40q0 -11 -4.5 -28t-11 -33.5
t-13 -28.5t-10.5 -12q-17 0 -40.5 11t-47 27t-44 34t-30.5 33q-21 -2 -51 -12t-62.5 -21t-62 -20t-48.5 -9q-26 0 -37 9.5t-11 23.5q0 26 20 46.5t62 34.5q10 3 27.5 8.5t37 10.5t39.5 9.5t36 6.5q-5 7 -12.5 20.5t-15 31t-13 37t-5.5 38.5q0 53 19.5 104.5t50 91.5
t67.5 64.5t73 24.5q34 0 53 -12.5t34 -30.5t31 -39.5t44 -39.5q13 -8 29 -10.5t23 -2.5zM363 785l-34 -55q-18 -29 -49 -29q-25 0 -44 17.5t-19 42.5q0 16 10 33l34 55q18 29 49 29q25 0 44 -17.5t19 -42.5q0 -16 -10 -33z" />
    <glyph glyph-name="uniFCEF" unicode="&#xfee8;&#xfeec;" horiz-adv-x="1044" arabic-form="medial" 
d="M834 325h4q82 0 106 -64q20 -96 42 -96q15 -10 41 -10h19q4 0 4 -3v-112q0 -4 -4 -4h-6q-152 0 -186 108q-6 58 -29 58h-12q-116 0 -298 -181q-103 -93 -133 -177q-73 -153 -116 -206q-46 -54 -86 -54q-60 0 -83 64q-8 29 -8 55v12q0 123 70 345q-71 -24 -160 -24l-2 4
v112q0 4 4 4h4q166 0 232 94q20 19 45 19h4q52 0 52 -55v-4q0 -17 -43 -114q-81 -251 -81 -312q-2 0 -2 -6v-1h2q96 201 127 233q68 86 147 140q186 175 346 175zM896 595l-34 -55q-18 -29 -49 -29q-25 0 -44 17.5t-19 42.5q0 16 10 33l34 55q18 29 49 29q25 0 44 -17.5
t19 -42.5q0 -16 -10 -33z" />
    <glyph glyph-name="uniFCF0" unicode="&#xfbff;&#xfee4;" horiz-adv-x="518" arabic-form="medial" 
d="M518 312q-28 0 -60 13.5t-66 60.5q-17 23 -28 37.5t-20.5 22.5t-19.5 11t-23 4q-18 -2 -39.5 -10.5t-41 -24t-32.5 -37t-13 -48.5q0 -25 13 -51t31 -50t38.5 -43t35.5 -29q15 -5 31 -10.5t29.5 -11t24 -10t14.5 -7.5q20 -13 26.5 -30t6.5 -40q0 -11 -4.5 -28t-11 -33.5
t-13 -28.5t-10.5 -12q-17 0 -40.5 11t-47 27t-44 34t-30.5 33q-21 -2 -51 -12t-62.5 -21t-62 -20t-48.5 -9q-26 0 -37 9.5t-11 23.5q0 26 20 46.5t62 34.5q10 3 27.5 8.5t37 10.5t39.5 9.5t36 6.5q-5 7 -12.5 20.5t-15 31t-13 37t-5.5 38.5q0 53 19.5 104.5t50 91.5
t67.5 64.5t73 24.5q34 0 53 -12.5t34 -30.5t31 -39.5t44 -39.5q13 -8 29 -10.5t23 -2.5zM560 -209q-84 -36 -202 -36q-107 0 -107 45q0 32 91 46q62 9 171 55q13 6 26 6q58 0 58 -63q0 -38 -37 -53z" />
    <glyph glyph-name="uniFCF1" unicode="&#xfbff;&#xfeec;" horiz-adv-x="1044" arabic-form="medial" 
d="M834 325h4q82 0 106 -64q20 -96 42 -96q15 -10 41 -10h19q4 0 4 -3v-112q0 -4 -4 -4h-6q-152 0 -186 108q-6 58 -29 58h-12q-116 0 -298 -181q-103 -93 -133 -177q-73 -153 -116 -206q-46 -54 -86 -54q-60 0 -83 64q-8 29 -8 55v12q0 123 70 345q-71 -24 -160 -24l-2 4
v112q0 4 4 4h4q166 0 232 94q20 19 45 19h4q52 0 52 -55v-4q0 -17 -43 -114q-81 -251 -81 -312q-2 0 -2 -6v-1h2q96 201 127 233q68 86 147 140q186 175 346 175zM1009 -263q-84 -36 -202 -36q-107 0 -107 45q0 32 91 46q62 9 171 55q13 6 26 6q58 0 58 -63q0 -38 -37 -53z
" />
    <glyph glyph-name="uniFCFB" unicode="&#xfeb3;&#xfef0;" horiz-adv-x="2221" arabic-form="isolated" 
d="M2151 636h4q57 0 57 -59q-8 -57 -66 -140q-78 -85 -177 -85q-57 0 -120 31q-73 -55 -175 -55q-114 0 -161 140q-18 15 -35 15h-15q-94 -5 -238 -109q-67 -61 -88 -94v-2q223 -30 223 -48q50 -27 50 -75q0 -209 -421 -349q-183 -59 -393 -59q-437 6 -544 216
q-22 49 -22 103q0 267 487 380q129 26 269 26q100 0 118 -22v-11q0 -31 -138 -37q-155 -24 -269 -57q-353 -109 -353 -286q0 -104 222 -172q108 -22 201 -22h13q9 0 18 -2q8 2 17 2h11q259 0 520 131q119 75 133 124v7q0 16 -129 28q-159 30 -159 88v15q9 49 111 162
q117 108 221 146q89 35 146 35q106 0 142 -81q44 -72 88 -72h8q95 0 162 164q19 17 35 17h15q55 0 55 -56q0 -22 -44 -97v-2q26 -4 41 -4h3q91 0 129 142q18 24 48 24z" />
    <glyph glyph-name="uniFCFC" unicode="&#xfeb3;&#xfef2;" horiz-adv-x="2226" arabic-form="isolated" 
d="M2151 636h4q57 0 57 -59q-8 -57 -66 -140q-78 -85 -177 -85q-57 0 -120 31q-73 -55 -175 -55q-114 0 -161 140q-18 15 -35 15h-15q-94 -5 -238 -109q-67 -61 -88 -94v-2q223 -30 223 -48q50 -27 50 -75q0 -209 -421 -349q-183 -59 -393 -59q-437 6 -544 216
q-22 49 -22 103q0 267 487 380q129 26 269 26q100 0 118 -22v-11q0 -31 -138 -37q-155 -24 -269 -57q-353 -109 -353 -286q0 -104 222 -172q108 -22 201 -22h13q9 0 18 -2q8 2 17 2h11q259 0 520 131q119 75 133 124v7q0 16 -129 28q-159 30 -159 88v15q9 49 111 162
q117 108 221 146q89 35 146 35q106 0 142 -81q44 -72 88 -72h8q95 0 162 164q19 17 35 17h15q55 0 55 -56q0 -22 -44 -97v-2q26 -4 41 -4h3q91 0 129 142q18 24 48 24zM859 -513q-84 -36 -202 -36q-107 0 -107 45q0 32 91 46q62 9 171 55q13 6 26 6q58 0 58 -63
q0 -38 -37 -53z" />
    <glyph glyph-name="uniFCFD" unicode="&#xfeb7;&#xfef0;" horiz-adv-x="2216" arabic-form="isolated" 
d="M2151 636h4q57 0 57 -59q-8 -57 -66 -140q-78 -85 -177 -85q-57 0 -120 31q-73 -55 -175 -55q-114 0 -161 140q-18 15 -35 15h-15q-94 -5 -238 -109q-67 -61 -88 -94v-2q223 -30 223 -48q50 -27 50 -75q0 -209 -421 -349q-183 -59 -393 -59q-437 6 -544 216
q-22 49 -22 103q0 267 487 380q129 26 269 26q100 0 118 -22v-11q0 -31 -138 -37q-155 -24 -269 -57q-353 -109 -353 -286q0 -104 222 -172q108 -22 201 -22h13q9 0 18 -2q8 2 17 2h11q259 0 520 131q119 75 133 124v7q0 16 -129 28q-159 30 -159 88v15q9 49 111 162
q117 108 221 146q89 35 146 35q106 0 142 -81q44 -72 88 -72h8q95 0 162 164q19 17 35 17h15q55 0 55 -56q0 -22 -44 -97v-2q26 -4 41 -4h3q91 0 129 142q18 24 48 24zM2096 1096q11 -17 11 -34q0 -25 -19 -42.5t-44 -17.5q-30 0 -48 27q-36 54 -61 54q-24 0 -72 -42
q-39 -35 -60 -65q-42 -57 -69 -57q-16 0 -16 24q0 31 27 81q94 175 203 175q79 0 148 -103z" />
    <glyph glyph-name="uniFCFE" unicode="&#xfeb7;&#xfef2;" horiz-adv-x="2226" arabic-form="isolated" 
d="M2151 636h4q57 0 57 -59q-8 -57 -66 -140q-78 -85 -177 -85q-57 0 -120 31q-73 -55 -175 -55q-114 0 -161 140q-18 15 -35 15h-15q-94 -5 -238 -109q-67 -61 -88 -94v-2q223 -30 223 -48q50 -27 50 -75q0 -209 -421 -349q-183 -59 -393 -59q-437 6 -544 216
q-22 49 -22 103q0 267 487 380q129 26 269 26q100 0 118 -22v-11q0 -31 -138 -37q-155 -24 -269 -57q-353 -109 -353 -286q0 -104 222 -172q108 -22 201 -22h13q9 0 18 -2q8 2 17 2h11q259 0 520 131q119 75 133 124v7q0 16 -129 28q-159 30 -159 88v15q9 49 111 162
q117 108 221 146q89 35 146 35q106 0 142 -81q44 -72 88 -72h8q95 0 162 164q19 17 35 17h15q55 0 55 -56q0 -22 -44 -97v-2q26 -4 41 -4h3q91 0 129 142q18 24 48 24zM2136 952q11 -17 11 -34q0 -25 -19 -42.5t-44 -17.5q-30 0 -48 27q-36 54 -61 54q-24 0 -72 -42
q-39 -35 -60 -65q-42 -57 -69 -57q-16 0 -16 24q0 31 27 81q94 175 203 175q79 0 148 -103zM945 -472q-84 -36 -202 -36q-107 0 -107 45q0 32 91 46q62 9 171 55q13 6 26 6q58 0 58 -63q0 -38 -37 -53z" />
    <glyph glyph-name="uniFD05" unicode="&#xfebb;&#xfef0;" horiz-adv-x="2369" arabic-form="isolated" 
d="M2168 866h31q125 0 155 -81q4 -18 4 -36q0 -93 -121 -188q-74 -47 -190 -85q-167 -49 -282 -49h-16q-173 0 -231 110q-15 51 -49 51q0 2 -14 2h-4q-101 0 -258 -116q-64 -64 -78 -87q228 -31 228 -52q43 -24 43 -67v-14q0 -191 -399 -331q-192 -63 -376 -63h-63
q-422 11 -515 226q-16 36 -16 79v24q0 177 264 296q220 94 484 94q119 0 119 -24v-14q0 -23 -184 -38q-571 -105 -571 -336q0 -101 217 -168q111 -25 236 -25q301 0 557 141q109 70 119 117v4q0 16 -136 30q-153 28 -153 94q0 40 112 168q122 112 236 150q84 33 141 33h15
q97 0 133 -107q44 -61 127 -61h5q56 78 163 184q160 139 267 139zM1879 557q158 33 242 71q110 59 110 101q0 32 -70 32q-88 0 -282 -204z" />
    <glyph glyph-name="uniFD06" unicode="&#xfebb;&#xfef2;" horiz-adv-x="2369" arabic-form="isolated" 
d="M2168 866h31q125 0 155 -81q4 -18 4 -36q0 -93 -121 -188q-74 -47 -190 -85q-167 -49 -282 -49h-16q-173 0 -231 110q-15 51 -49 51q0 2 -14 2h-4q-101 0 -258 -116q-64 -64 -78 -87q228 -31 228 -52q43 -24 43 -67v-14q0 -191 -399 -331q-192 -63 -376 -63h-63
q-422 11 -515 226q-16 36 -16 79v24q0 177 264 296q220 94 484 94q119 0 119 -24v-14q0 -23 -184 -38q-571 -105 -571 -336q0 -101 217 -168q111 -25 236 -25q301 0 557 141q109 70 119 117v4q0 16 -136 30q-153 28 -153 94q0 40 112 168q122 112 236 150q84 33 141 33h15
q97 0 133 -107q44 -61 127 -61h5q56 78 163 184q160 139 267 139zM1879 557q158 33 242 71q110 59 110 101q0 32 -70 32q-88 0 -282 -204zM823 -391q-84 -36 -202 -36q-107 0 -107 45q0 32 91 46q62 9 171 55q13 6 26 6q58 0 58 -63q0 -38 -37 -53z" />
    <glyph glyph-name="uniFD07" unicode="&#xfebf;&#xfef0;" horiz-adv-x="2369" arabic-form="isolated" 
d="M2168 866h31q125 0 155 -81q4 -18 4 -36q0 -93 -121 -188q-74 -47 -190 -85q-167 -49 -282 -49h-16q-173 0 -231 110q-15 51 -49 51q0 2 -14 2h-4q-101 0 -258 -116q-64 -64 -78 -87q228 -31 228 -52q43 -24 43 -67v-14q0 -191 -399 -331q-192 -63 -376 -63h-63
q-422 11 -515 226q-16 36 -16 79v24q0 177 264 296q220 94 484 94q119 0 119 -24v-14q0 -23 -184 -38q-571 -105 -571 -336q0 -101 217 -168q111 -25 236 -25q301 0 557 141q109 70 119 117v4q0 16 -136 30q-153 28 -153 94q0 40 112 168q122 112 236 150q84 33 141 33h15
q97 0 133 -107q44 -61 127 -61h5q56 78 163 184q160 139 267 139zM1879 557q158 33 242 71q110 59 110 101q0 32 -70 32q-88 0 -282 -204zM1866 1092l-34 -55q-18 -29 -49 -29q-25 0 -44 17.5t-19 42.5q0 16 10 33l34 55q18 29 49 29q25 0 44 -17.5t19 -42.5q0 -16 -10 -33z
M819 835q0 -42 -7 -71q-10 -41 -25 -41t-15 35q0 58 -14 89q-15 23 -39 66q-4 10 -4 19q0 31 27 31q16 0 32 -16q45 -46 45 -112z" />
    <glyph glyph-name="uniFD08" unicode="&#xfebf;&#xfef2;" horiz-adv-x="2369" arabic-form="isolated" 
d="M2168 866h31q125 0 155 -81q4 -18 4 -36q0 -93 -121 -188q-74 -47 -190 -85q-167 -49 -282 -49h-16q-173 0 -231 110q-15 51 -49 51q0 2 -14 2h-4q-101 0 -258 -116q-64 -64 -78 -87q228 -31 228 -52q43 -24 43 -67v-14q0 -191 -399 -331q-192 -63 -376 -63h-63
q-422 11 -515 226q-16 36 -16 79v24q0 177 264 296q220 94 484 94q119 0 119 -24v-14q0 -23 -184 -38q-571 -105 -571 -336q0 -101 217 -168q111 -25 236 -25q301 0 557 141q109 70 119 117v4q0 16 -136 30q-153 28 -153 94q0 40 112 168q122 112 236 150q84 33 141 33h15
q97 0 133 -107q44 -61 127 -61h5q56 78 163 184q160 139 267 139zM1879 557q158 33 242 71q110 59 110 101q0 32 -70 32q-88 0 -282 -204zM1858 1040l-34 -55q-18 -29 -49 -29q-25 0 -44 17.5t-19 42.5q0 16 10 33l34 55q18 29 49 29q25 0 44 -17.5t19 -42.5q0 -16 -10 -33z
M823 -508q-84 -36 -202 -36q-107 0 -107 45q0 32 91 46q62 9 171 55q13 6 26 6q58 0 58 -63q0 -38 -37 -53z" />
    <glyph glyph-name="uniFD09" unicode="&#xfeb7;&#xfe9e;" horiz-adv-x="1421" arabic-form="isolated" 
d="M1348 520h17q39 0 50 -36v-25q-8 -53 -63 -129q-71 -80 -169 -80q-49 0 -118 27h-2q-66 -51 -157 -51q-114 0 -158 133q-16 17 -44 17q-81 0 -224 -99q-35 -26 -72 -70v-2q116 -12 154 -33q51 -17 68 -49q17 -33 17 -55q0 -88 -205 -209q-179 -118 -211 -145
q-99 -88 -99 -171q0 -171 304 -171q225 0 565 59q0 3 38 4h15q19 -1 19 -11q0 -22 -122 -69q-71 -30 -296 -74q-135 -21 -217 -21q-300 0 -391 167q-25 51 -25 107v21q0 199 384 412q76 38 127 89q2 7 2 8q-64 23 -243 44q-40 13 -40 55q2 40 101 150q90 87 188 131
q98 42 154 42h24q89 0 130 -88q33 -57 81 -57h2q92 0 154 154q18 19 34 19h17q42 0 50 -40v-19q0 -12 -40 -89h2q18 -4 28 -4h14q83 0 119 133q19 25 38 25zM658 -390l-34 -55q-18 -29 -49 -29q-25 0 -44 17.5t-19 42.5q0 16 10 33l34 55q18 29 49 29q25 0 44 -17.5
t19 -42.5q0 -16 -10 -33zM1357 984q11 -17 11 -34q0 -25 -19 -42.5t-44 -17.5q-30 0 -48 27q-36 54 -61 54q-24 0 -72 -42q-39 -35 -60 -65q-42 -57 -69 -57q-16 0 -16 24q0 31 27 81q94 175 203 175q79 0 148 -103z" />
    <glyph glyph-name="uniFD0A" unicode="&#xfeb7;&#xfea2;" horiz-adv-x="1431" arabic-form="isolated" 
d="M1348 520h17q39 0 50 -36v-25q-8 -53 -63 -129q-71 -80 -169 -80q-49 0 -118 27h-2q-66 -51 -157 -51q-114 0 -158 133q-16 17 -44 17q-81 0 -224 -99q-35 -26 -72 -70v-2q116 -12 154 -33q51 -17 68 -49q17 -33 17 -55q0 -88 -205 -209q-179 -118 -211 -145
q-99 -88 -99 -171q0 -171 304 -171q225 0 565 59q0 3 38 4h15q19 -1 19 -11q0 -22 -122 -69q-71 -30 -296 -74q-135 -21 -217 -21q-300 0 -391 167q-25 51 -25 107v21q0 199 384 412q76 38 127 89q2 7 2 8q-64 23 -243 44q-40 13 -40 55q2 40 101 150q90 87 188 131
q98 42 154 42h24q89 0 130 -88q33 -57 81 -57h2q92 0 154 154q18 19 34 19h17q42 0 50 -40v-19q0 -12 -40 -89h2q18 -4 28 -4h14q83 0 119 133q19 25 38 25zM1337 903q11 -17 11 -34q0 -25 -19 -42.5t-44 -17.5q-30 0 -48 27q-36 54 -61 54q-24 0 -72 -42q-39 -35 -60 -65
q-42 -57 -69 -57q-16 0 -16 24q0 31 27 81q94 175 203 175q79 0 148 -103z" />
    <glyph glyph-name="uniFD0B" unicode="&#xfeb7;&#xfea6;" horiz-adv-x="1431" arabic-form="isolated" 
d="M1348 520h17q39 0 50 -36v-25q-8 -53 -63 -129q-71 -80 -169 -80q-49 0 -118 27h-2q-66 -51 -157 -51q-114 0 -158 133q-16 17 -44 17q-81 0 -224 -99q-35 -26 -72 -70v-2q116 -12 154 -33q51 -17 68 -49q17 -33 17 -55q0 -88 -205 -209q-179 -118 -211 -145
q-99 -88 -99 -171q0 -171 304 -171q225 0 565 59q0 3 38 4h15q19 -1 19 -11q0 -22 -122 -69q-71 -30 -296 -74q-135 -21 -217 -21q-300 0 -391 167q-25 51 -25 107v21q0 199 384 412q76 38 127 89q2 7 2 8q-64 23 -243 44q-40 13 -40 55q2 40 101 150q90 87 188 131
q98 42 154 42h24q89 0 130 -88q33 -57 81 -57h2q92 0 154 154q18 19 34 19h17q42 0 50 -40v-19q0 -12 -40 -89h2q18 -4 28 -4h14q83 0 119 133q19 25 38 25zM448 665l-34 -55q-18 -29 -49 -29q-25 0 -44 17.5t-19 42.5q0 16 10 33l34 55q18 29 49 29q25 0 44 -17.5t19 -42.5
q0 -16 -10 -33zM1394 872q11 -17 11 -34q0 -25 -19 -42.5t-44 -17.5q-30 0 -48 27q-36 54 -61 54q-24 0 -72 -42q-39 -35 -60 -65q-42 -57 -69 -57q-16 0 -16 24q0 31 27 81q94 175 203 175q79 0 148 -103z" />
    <glyph glyph-name="uniFD0C" unicode="&#xfeb7;&#xfee2;" horiz-adv-x="1676" arabic-form="isolated" 
d="M1598 746q63 0 63 -58q-12 -68 -65 -141q-78 -93 -185 -93q-53 0 -129 30q-70 -54 -153 -54h-28q-109 0 -159 141q-17 18 -42 18h-4q-83 0 -228 -95q-38 -30 -58 -50v-2q33 0 58 -38q6 -13 6 -28v-12q0 -107 -80 -135q-118 -66 -270 -101q-181 -40 -181 -177v-10
q0 -88 96 -320q27 -93 27 -187q0 -116 -33 -135h-8q-20 0 -20 52q0 102 -127 411q-54 150 -54 215q0 142 165 228q87 24 201 72v4q0 147 214 316q177 113 292 113q110 0 147 -85q44 -70 82 -70q0 -2 12 -2h4q97 0 163 163q18 24 49 24q62 0 62 -58q0 -23 -44 -101
q14 -6 40 -6h4q94 0 133 145q18 26 50 26zM1560 1146q11 -17 11 -34q0 -25 -19 -42.5t-44 -17.5q-30 0 -48 27q-36 54 -61 54q-24 0 -72 -42q-39 -35 -60 -65q-42 -57 -69 -57q-16 0 -16 24q0 31 27 81q94 175 203 175q79 0 148 -103z" />
    <glyph glyph-name="uniFD0D" unicode="&#xfeb7;&#xfeae;" horiz-adv-x="1456" arabic-form="isolated" 
d="M1373 373h17q54 0 54 -54v-6q-8 -74 -87 -167q-80 -77 -169 -77h-12q-54 0 -130 35q-80 -58 -170 -58h-6q-92 0 -121 69q-20 79 -29 79h-7q-69 0 -206 -94q-71 -58 -81 -98q-31 -58 -90 -114q-92 -73 -374 -73h-9q-60 0 -60 31v11q0 38 115 50q160 31 226 62q65 28 65 54
q38 75 69 111q93 91 212 141q100 50 181 50h9q72 0 72 -79q0 -67 25 -67q7 -6 27 -6h13q75 0 160 125q26 63 61 63h6q62 0 62 -59q-3 -35 -52 -106v-2q23 -6 38 -6h10q96 0 142 162q19 23 39 23zM1413 760q11 -17 11 -34q0 -25 -19 -42.5t-44 -17.5q-30 0 -48 27
q-36 54 -61 54q-24 0 -72 -42q-39 -35 -60 -65q-42 -57 -69 -57q-16 0 -16 24q0 31 27 81q94 175 203 175q79 0 148 -103z" />
    <glyph glyph-name="uniFD0E" unicode="&#xfeb3;&#xfeae;" horiz-adv-x="1456" arabic-form="isolated" 
d="M1373 373h17q54 0 54 -54v-6q-8 -74 -87 -167q-80 -77 -169 -77h-12q-54 0 -130 35q-80 -58 -170 -58h-6q-92 0 -121 69q-20 79 -29 79h-7q-69 0 -206 -94q-71 -58 -81 -98q-31 -58 -90 -114q-92 -73 -374 -73h-9q-60 0 -60 31v11q0 38 115 50q160 31 226 62q65 28 65 54
q38 75 69 111q93 91 212 141q100 50 181 50h9q72 0 72 -79q0 -67 25 -67q7 -6 27 -6h13q75 0 160 125q26 63 61 63h6q62 0 62 -59q-3 -35 -52 -106v-2q23 -6 38 -6h10q96 0 142 162q19 23 39 23z" />
    <glyph glyph-name="uniFD0F" unicode="&#xfebb;&#xfeae;" horiz-adv-x="1602" arabic-form="isolated" 
d="M1412 488q122 0 163 -57q17 -24 17 -56v-12q0 -86 -117 -182q-72 -47 -151 -74q-207 -69 -371 -69q-139 0 -182 118q-9 33 -12 39q-148 -30 -195 -61q-79 -57 -110 -135q-30 -52 -84 -102q-100 -68 -334 -68h-49q-49 0 -49 37q0 43 131 55q153 31 227 68q36 14 62 84
q87 154 221 196q89 31 243 57q32 0 43 -41q12 -110 31 -110q19 -21 65 -21q56 78 154 176q170 158 297 158zM1107 173h4q132 26 204 55q76 28 131 86q15 18 15 33v4q0 29 -64 29h-4q-91 0 -286 -207z" />
    <glyph glyph-name="uniFD10" unicode="&#xfebf;&#xfeae;" horiz-adv-x="1601" arabic-form="isolated" 
d="M1412 488q122 0 163 -57q17 -24 17 -56v-12q0 -86 -117 -182q-72 -47 -151 -74q-207 -69 -371 -69q-139 0 -182 118q-9 33 -12 39q-148 -30 -195 -61q-79 -57 -110 -135q-30 -52 -84 -102q-100 -68 -334 -68h-49q-49 0 -49 37q0 43 131 55q153 31 227 68q36 14 62 84
q87 154 221 196q89 31 243 57q32 0 43 -41q12 -110 31 -110q19 -21 65 -21q56 78 154 176q170 158 297 158zM1107 173h4q132 26 204 55q76 28 131 86q15 18 15 33v4q0 29 -64 29h-4q-91 0 -286 -207zM1235 659l-34 -55q-18 -29 -49 -29q-25 0 -44 17.5t-19 42.5q0 16 10 33
l34 55q18 29 49 29q25 0 44 -17.5t19 -42.5q0 -16 -10 -33z" />
    <glyph glyph-name="uniFD17" unicode="&#xfeb4;&#xfef0;" horiz-adv-x="2252" arabic-form="final" 
d="M2088 315h4q60 0 60 -55q-1 -33 -36 -92q28 -15 65 -15h53q44 0 53 -36q2 -3 2 -11v-19q0 -36 -41 -48h-70q-87 0 -140 43q-62 -43 -131 -43q-35 0 -98 19q-68 -55 -169 -55q-114 0 -160 134q-14 19 -55 19q-99 0 -255 -120q-52 -48 -71 -78v-5q217 -27 217 -45
q50 -23 50 -79q0 -208 -451 -350q-171 -45 -345 -45q-384 0 -517 178q-41 61 -41 136q0 258 472 369q120 27 257 27h36q93 -3 93 -24v-12q0 -24 -181 -38q-565 -105 -565 -331q0 -96 193 -160q105 -31 253 -31q320 0 581 157q88 72 88 98q0 20 -128 31q-158 26 -158 95
q0 49 131 181q195 170 386 170q80 0 136 -117q35 -41 60 -41h12q60 0 140 129q17 48 50 48h19q36 0 48 -41v-17q0 -18 -38 -85h14q64 0 100 59q14 10 34 76q18 24 43 24z" />
    <glyph glyph-name="uniFD18" unicode="&#xfeb4;&#xfef2;" horiz-adv-x="2252" arabic-form="final" 
d="M2088 315h4q60 0 60 -55q-1 -33 -36 -92q28 -15 65 -15h53q44 0 53 -36q2 -3 2 -11v-19q0 -36 -41 -48h-70q-87 0 -140 43q-62 -43 -131 -43q-35 0 -98 19q-68 -55 -169 -55q-114 0 -160 134q-14 19 -55 19q-99 0 -255 -120q-52 -48 -71 -78v-5q217 -27 217 -45
q50 -23 50 -79q0 -208 -451 -350q-171 -45 -345 -45q-384 0 -517 178q-41 61 -41 136q0 258 472 369q120 27 257 27h36q93 -3 93 -24v-12q0 -24 -181 -38q-565 -105 -565 -331q0 -96 193 -160q105 -31 253 -31q320 0 581 157q88 72 88 98q0 20 -128 31q-158 26 -158 95
q0 49 131 181q195 170 386 170q80 0 136 -117q35 -41 60 -41h12q60 0 140 129q17 48 50 48h19q36 0 48 -41v-17q0 -18 -38 -85h14q64 0 100 59q14 10 34 76q18 24 43 24zM711 -831q-84 -36 -202 -36q-107 0 -107 45q0 32 91 46q62 9 171 55q13 6 26 6q58 0 58 -63
q0 -38 -37 -53z" />
    <glyph glyph-name="uniFD19" unicode="&#xfeb8;&#xfef0;" horiz-adv-x="2252" arabic-form="final" 
d="M2088 315h4q60 0 60 -55q-1 -33 -36 -92q28 -15 65 -15h53q44 0 53 -36q2 -3 2 -11v-19q0 -36 -41 -48h-70q-87 0 -140 43q-62 -43 -131 -43q-35 0 -98 19q-68 -55 -169 -55q-114 0 -160 134q-14 19 -55 19q-99 0 -255 -120q-52 -48 -71 -78v-5q217 -27 217 -45
q50 -23 50 -79q0 -208 -451 -350q-171 -45 -345 -45q-384 0 -517 178q-41 61 -41 136q0 258 472 369q120 27 257 27h36q93 -3 93 -24v-12q0 -24 -181 -38q-565 -105 -565 -331q0 -96 193 -160q105 -31 253 -31q320 0 581 157q88 72 88 98q0 20 -128 31q-158 26 -158 95
q0 49 131 181q195 170 386 170q80 0 136 -117q35 -41 60 -41h12q60 0 140 129q17 48 50 48h19q36 0 48 -41v-17q0 -18 -38 -85h14q64 0 100 59q14 10 34 76q18 24 43 24zM2114 792q11 -17 11 -34q0 -25 -19 -42.5t-44 -17.5q-30 0 -48 27q-36 54 -61 54q-24 0 -72 -42
q-39 -35 -60 -65q-42 -57 -69 -57q-16 0 -16 24q0 31 27 81q94 175 203 175q79 0 148 -103z" />
    <glyph glyph-name="uniFD1A" unicode="&#xfeb8;&#xfef2;" horiz-adv-x="2252" arabic-form="final" 
d="M2088 315h4q60 0 60 -55q-1 -33 -36 -92q28 -15 65 -15h53q44 0 53 -36q2 -3 2 -11v-19q0 -36 -41 -48h-70q-87 0 -140 43q-62 -43 -131 -43q-35 0 -98 19q-68 -55 -169 -55q-114 0 -160 134q-14 19 -55 19q-99 0 -255 -120q-52 -48 -71 -78v-5q217 -27 217 -45
q50 -23 50 -79q0 -208 -451 -350q-171 -45 -345 -45q-384 0 -517 178q-41 61 -41 136q0 258 472 369q120 27 257 27h36q93 -3 93 -24v-12q0 -24 -181 -38q-565 -105 -565 -331q0 -96 193 -160q105 -31 253 -31q320 0 581 157q88 72 88 98q0 20 -128 31q-158 26 -158 95
q0 49 131 181q195 170 386 170q80 0 136 -117q35 -41 60 -41h12q60 0 140 129q17 48 50 48h19q36 0 48 -41v-17q0 -18 -38 -85h14q64 0 100 59q14 10 34 76q18 24 43 24zM2129 771q11 -17 11 -34q0 -25 -19 -42.5t-44 -17.5q-30 0 -48 27q-36 54 -61 54q-24 0 -72 -42
q-39 -35 -60 -65q-42 -57 -69 -57q-16 0 -16 24q0 31 27 81q94 175 203 175q79 0 148 -103zM716 -765q-84 -36 -202 -36q-107 0 -107 45q0 32 91 46q62 9 171 55q13 6 26 6q58 0 58 -63q0 -38 -37 -53z" />
    <glyph glyph-name="uniFD21" unicode="&#xfebc;&#xfef0;" horiz-adv-x="2389" arabic-form="final" 
d="M2199 743q179 0 179 -117q0 -107 -137 -195q-62 -43 -225 -97q-148 -40 -208 -40v-22q0 -119 198 -119q101 -9 205 -9q105 0 214 9q24 0 24 -62q0 -55 -76 -55q-167 -11 -287 -11q-60 0 -108 3q-146 8 -198 63q-84 52 -84 176v27q-71 0 -146 57q-32 31 -52 85
q-20 17 -52 17q-94 0 -253 -114q-65 -62 -80 -89q224 -32 224 -50q47 -25 47 -74q0 -222 -476 -362q-158 -40 -310 -40h-38q-364 0 -505 183q-35 64 -35 117v30q0 205 352 327q178 60 402 60q109 0 109 -25v-13q0 -24 -191 -39q-560 -106 -560 -333q0 -109 238 -173
q112 -20 210 -20q321 0 585 159q85 64 90 96q0 25 -70 25q-218 27 -218 102q15 83 174 221q171 128 285 128h34q101 0 139 -84q45 -67 85 -67q0 -7 59 -7q79 115 270 265q125 67 186 67zM1887 423h5q145 32 230 70q127 62 127 116q-11 27 -67 27q-83 0 -295 -213z" />
    <glyph glyph-name="uniFD22" unicode="&#xfebc;&#xfef2;" horiz-adv-x="2389" arabic-form="final" 
d="M2199 743q179 0 179 -117q0 -107 -137 -195q-62 -43 -225 -97q-148 -40 -208 -40v-22q0 -119 198 -119q101 -9 205 -9q105 0 214 9q24 0 24 -62q0 -55 -76 -55q-167 -11 -287 -11q-60 0 -108 3q-146 8 -198 63q-84 52 -84 176v27q-71 0 -146 57q-32 31 -52 85
q-20 17 -52 17q-94 0 -253 -114q-65 -62 -80 -89q224 -32 224 -50q47 -25 47 -74q0 -222 -476 -362q-158 -40 -310 -40h-38q-364 0 -505 183q-35 64 -35 117v30q0 205 352 327q178 60 402 60q109 0 109 -25v-13q0 -24 -191 -39q-560 -106 -560 -333q0 -109 238 -173
q112 -20 210 -20q321 0 585 159q85 64 90 96q0 25 -70 25q-218 27 -218 102q15 83 174 221q171 128 285 128h34q101 0 139 -84q45 -67 85 -67q0 -7 59 -7q79 115 270 265q125 67 186 67zM1887 423h5q145 32 230 70q127 62 127 116q-11 27 -67 27q-83 0 -295 -213zM792 -545
q-84 -36 -202 -36q-107 0 -107 45q0 32 91 46q62 9 171 55q13 6 26 6q58 0 58 -63q0 -38 -37 -53z" />
    <glyph glyph-name="uniFD23" unicode="&#xfec0;&#xfef0;" horiz-adv-x="2389" arabic-form="final" 
d="M2199 743q179 0 179 -117q0 -107 -137 -195q-62 -43 -225 -97q-148 -40 -208 -40v-22q0 -119 198 -119q101 -9 205 -9q105 0 214 9q24 0 24 -62q0 -55 -76 -55q-167 -11 -287 -11q-60 0 -108 3q-146 8 -198 63q-84 52 -84 176v27q-71 0 -146 57q-32 31 -52 85
q-20 17 -52 17q-94 0 -253 -114q-65 -62 -80 -89q224 -32 224 -50q47 -25 47 -74q0 -222 -476 -362q-158 -40 -310 -40h-38q-364 0 -505 183q-35 64 -35 117v30q0 205 352 327q178 60 402 60q109 0 109 -25v-13q0 -24 -191 -39q-560 -106 -560 -333q0 -109 238 -173
q112 -20 210 -20q321 0 585 159q85 64 90 96q0 25 -70 25q-218 27 -218 102q15 83 174 221q171 128 285 128h34q101 0 139 -84q45 -67 85 -67q0 -7 59 -7q79 115 270 265q125 67 186 67zM1887 423h5q145 32 230 70q127 62 127 116q-11 27 -67 27q-83 0 -295 -213zM1931 891
l-34 -55q-18 -29 -49 -29q-25 0 -44 17.5t-19 42.5q0 16 10 33l34 55q18 29 49 29q25 0 44 -17.5t19 -42.5q0 -16 -10 -33zM804 815q0 -42 -7 -71q-10 -41 -25 -41t-15 35q0 58 -14 89q-15 23 -39 66q-4 10 -4 19q0 31 27 31q16 0 32 -16q45 -46 45 -112z" />
    <glyph glyph-name="uniFD24" unicode="&#xfec0;&#xfef2;" horiz-adv-x="2389" arabic-form="final" 
d="M2199 743q179 0 179 -117q0 -107 -137 -195q-62 -43 -225 -97q-148 -40 -208 -40v-22q0 -119 198 -119q101 -9 205 -9q105 0 214 9q24 0 24 -62q0 -55 -76 -55q-167 -11 -287 -11q-60 0 -108 3q-146 8 -198 63q-84 52 -84 176v27q-71 0 -146 57q-32 31 -52 85
q-20 17 -52 17q-94 0 -253 -114q-65 -62 -80 -89q224 -32 224 -50q47 -25 47 -74q0 -222 -476 -362q-158 -40 -310 -40h-38q-364 0 -505 183q-35 64 -35 117v30q0 205 352 327q178 60 402 60q109 0 109 -25v-13q0 -24 -191 -39q-560 -106 -560 -333q0 -109 238 -173
q112 -20 210 -20q321 0 585 159q85 64 90 96q0 25 -70 25q-218 27 -218 102q15 83 174 221q171 128 285 128h34q101 0 139 -84q45 -67 85 -67q0 -7 59 -7q79 115 270 265q125 67 186 67zM1887 423h5q145 32 230 70q127 62 127 116q-11 27 -67 27q-83 0 -295 -213zM716 -713
q-84 -36 -202 -36q-107 0 -107 45q0 32 91 46q62 9 171 55q13 6 26 6q58 0 58 -63q0 -38 -37 -53zM1885 881l-34 -55q-18 -29 -49 -29q-25 0 -44 17.5t-19 42.5q0 16 10 33l34 55q18 29 49 29q25 0 44 -17.5t19 -42.5q0 -16 -10 -33z" />
    <glyph glyph-name="uniFD29" unicode="&#xfeb8;&#xfeae;" horiz-adv-x="1588" arabic-form="final" 
d="M1423 320q60 0 60 -58q-1 -23 -35 -95q21 -15 101 -15h28q35 -8 35 -18v-77q-14 -20 -46 -20h-50q-95 0 -151 43q-62 -41 -120 -41h-27q-39 0 -95 23q-84 -63 -171 -63q-108 0 -133 67q-11 56 -18 60q-8 6 -15 6h-2q-130 -25 -227 -104q-30 -26 -64 -97
q-55 -86 -112 -111q-103 -48 -306 -48h-37q-44 0 -52 27v10q0 43 124 54q163 33 232 68q43 28 43 48q32 72 83 122q138 114 296 159q33 8 60 8h20q60 0 60 -74q8 -73 35 -73l13 -2h10q79 0 168 110q37 74 57 74h21q56 0 56 -57q0 -22 -41 -89h8q63 0 95 43q30 31 43 85
q16 35 52 35h2zM1418 663q11 -17 11 -34q0 -25 -19 -42.5t-44 -17.5q-30 0 -48 27q-36 54 -61 54q-24 0 -72 -42q-39 -35 -60 -65q-42 -57 -69 -57q-16 0 -16 24q0 31 27 81q94 175 203 175q79 0 148 -103z" />
    <glyph glyph-name="uniFD2A" unicode="&#xfeb4;&#xfeae;" horiz-adv-x="1588" arabic-form="final" 
d="M1423 320q60 0 60 -58q-1 -23 -35 -95q21 -15 101 -15h28q35 -8 35 -18v-77q-14 -20 -46 -20h-50q-95 0 -151 43q-62 -41 -120 -41h-27q-39 0 -95 23q-84 -63 -171 -63q-108 0 -133 67q-11 56 -18 60q-8 6 -15 6h-2q-130 -25 -227 -104q-30 -26 -64 -97
q-55 -86 -112 -111q-103 -48 -306 -48h-37q-44 0 -52 27v10q0 43 124 54q163 33 232 68q43 28 43 48q32 72 83 122q138 114 296 159q33 8 60 8h20q60 0 60 -74q8 -73 35 -73l13 -2h10q79 0 168 110q37 74 57 74h21q56 0 56 -57q0 -22 -41 -89h8q63 0 95 43q30 31 43 85
q16 35 52 35h2z" />
    <glyph glyph-name="uniFD2B" unicode="&#xfebc;&#xfeae;" horiz-adv-x="1617" arabic-form="final" 
d="M1421 735q127 0 164 -64q10 -26 10 -46v-10q0 -79 -94 -162q-94 -68 -250 -124q-176 -54 -220 -54q0 -101 136 -120q87 -12 211 -12q100 0 224 8q21 0 36 -20v-72q0 -12 -36 -20q-114 -9 -230 -9q-86 0 -173 5q-206 11 -268 154q-10 46 -10 78h-10q-124 0 -152 68
q-8 13 -20 56q-32 -2 -150 -50q-107 -51 -171 -190q-47 -84 -136 -118q-104 -34 -270 -34h-36q-42 0 -50 26v14q0 37 126 50q172 36 230 70q21 8 52 76q76 162 321 264q65 20 102 20h22q70 0 70 -76q0 -62 62 -62h34q12 0 28 34q41 62 140 148q101 98 130 108q112 64 178 64
zM1101 409h2q182 48 280 100q86 52 86 90q0 30 -60 30h-10q-83 -5 -284 -204z" />
    <glyph glyph-name="uniFD2C" unicode="&#xfec0;&#xfeae;" horiz-adv-x="1617" arabic-form="final" 
d="M1421 735q127 0 164 -64q10 -26 10 -46v-10q0 -79 -94 -162q-94 -68 -250 -124q-176 -54 -220 -54q0 -101 136 -120q87 -12 211 -12q100 0 224 8q21 0 36 -20v-72q0 -12 -36 -20q-114 -9 -230 -9q-86 0 -173 5q-206 11 -268 154q-10 46 -10 78h-10q-124 0 -152 68
q-8 13 -20 56q-32 -2 -150 -50q-107 -51 -171 -190q-47 -84 -136 -118q-104 -34 -270 -34h-36q-42 0 -50 26v14q0 37 126 50q172 36 230 70q21 8 52 76q76 162 321 264q65 20 102 20h22q70 0 70 -76q0 -62 62 -62h34q12 0 28 34q41 62 140 148q101 98 130 108q112 64 178 64
zM1101 409h2q182 48 280 100q86 52 86 90q0 30 -60 30h-10q-83 -5 -284 -204zM1103 858l-34 -55q-18 -29 -49 -29q-25 0 -44 17.5t-19 42.5q0 16 10 33l34 55q18 29 49 29q25 0 44 -17.5t19 -42.5q0 -16 -10 -33z" />
    <glyph glyph-name="uniFD2D" unicode="&#xfeb7;&#xfea0;" horiz-adv-x="1447" arabic-form="initial" 
d="M1379 775q56 -6 56 -45v-15q0 -45 -64 -135q-74 -86 -174 -86q-54 0 -124 30q-67 -55 -167 -55q-115 0 -161 137q-19 19 -45 19q-88 -8 -204 -83q-37 -21 -104 -93q87 -10 150 -30q94 -37 94 -113q0 -62 -88 -131q-70 -45 -217 -94q-147 -43 -265 -43h-54q-55 0 -55 51
v13q0 39 40 50h41q164 0 399 94q52 25 83 56q-47 19 -257 47q-32 15 -32 57q0 21 38 71q113 172 348 249q45 13 85 13q102 0 137 -75q43 -73 80 -73q0 -2 12 -2h9q89 0 156 160q18 20 45 20q60 0 60 -56q0 -21 -44 -96v-1q20 -6 40 -6h4q87 0 123 131q14 34 55 34zM498 -162
l-34 -55q-18 -29 -49 -29q-25 0 -44 17.5t-19 42.5q0 16 10 33l34 55q18 29 49 29q25 0 44 -17.5t19 -42.5q0 -16 -10 -33zM1363 1091q11 -17 11 -34q0 -25 -19 -42.5t-44 -17.5q-30 0 -48 27q-36 54 -61 54q-24 0 -72 -42q-39 -35 -60 -65q-42 -57 -69 -57q-16 0 -16 24
q0 31 27 81q94 175 203 175q79 0 148 -103z" />
    <glyph glyph-name="uniFD2E" unicode="&#xfeb7;&#xfea4;" horiz-adv-x="1447" arabic-form="initial" 
d="M1379 775q56 -6 56 -45v-15q0 -45 -64 -135q-74 -86 -174 -86q-54 0 -124 30q-67 -55 -167 -55q-115 0 -161 137q-19 19 -45 19q-88 -8 -204 -83q-37 -21 -104 -93q87 -10 150 -30q94 -37 94 -113q0 -62 -88 -131q-70 -45 -217 -94q-147 -43 -265 -43h-54q-55 0 -55 51
v13q0 39 40 50h41q164 0 399 94q52 25 83 56q-47 19 -257 47q-32 15 -32 57q0 21 38 71q113 172 348 249q45 13 85 13q102 0 137 -75q43 -73 80 -73q0 -2 12 -2h9q89 0 156 160q18 20 45 20q60 0 60 -56q0 -21 -44 -96v-1q20 -6 40 -6h4q87 0 123 131q14 34 55 34z
M1424 1082q11 -17 11 -34q0 -25 -19 -42.5t-44 -17.5q-30 0 -48 27q-36 54 -61 54q-24 0 -72 -42q-39 -35 -60 -65q-42 -57 -69 -57q-16 0 -16 24q0 31 27 81q94 175 203 175q79 0 148 -103z" />
    <glyph glyph-name="uniFD2F" unicode="&#xfeb7;&#xfea8;" horiz-adv-x="1452" arabic-form="initial" 
d="M1379 775q56 -6 56 -45v-15q0 -45 -64 -135q-74 -86 -174 -86q-54 0 -124 30q-67 -55 -167 -55q-115 0 -161 137q-19 19 -45 19q-88 -8 -204 -83q-37 -21 -104 -93q87 -10 150 -30q94 -37 94 -113q0 -62 -88 -131q-70 -45 -217 -94q-147 -43 -265 -43h-54q-55 0 -55 51
v13q0 39 40 50h41q164 0 399 94q52 25 83 56q-47 19 -257 47q-32 15 -32 57q0 21 38 71q113 172 348 249q45 13 85 13q102 0 137 -75q43 -73 80 -73q0 -2 12 -2h9q89 0 156 160q18 20 45 20q60 0 60 -56q0 -21 -44 -96v-1q20 -6 40 -6h4q87 0 123 131q14 34 55 34zM312 884
l-34 -55q-18 -29 -49 -29q-25 0 -44 17.5t-19 42.5q0 16 10 33l34 55q18 29 49 29q25 0 44 -17.5t19 -42.5q0 -16 -10 -33zM1389 1105q11 -17 11 -34q0 -25 -19 -42.5t-44 -17.5q-30 0 -48 27q-36 54 -61 54q-24 0 -72 -42q-39 -35 -60 -65q-42 -57 -69 -57q-16 0 -16 24
q0 31 27 81q94 175 203 175q79 0 148 -103z" />
    <glyph glyph-name="uniFD30" unicode="&#xfeb7;&#xfee4;" horiz-adv-x="1513" arabic-form="initial" 
d="M1434 701h3q61 0 61 -58q-27 -111 -96 -173q-69 -59 -153 -59q-55 0 -127 29q-72 -54 -169 -54h-4q-121 0 -167 142q-16 17 -47 17q-75 0 -215 -87q-49 -34 -94 -86q0 -2 2 -2q80 -25 80 -71v-18q0 -119 -255 -200q-123 -45 -192 -45h-62q-52 0 -52 56v8q4 55 52 55h52
q51 0 171 44q0 2 10 6l-2 20v15q0 75 60 154q116 177 364 258q43 12 74 12h19q99 0 140 -89q40 -66 90 -66h3q96 0 164 163q16 23 46 23h2q61 0 61 -54v-2q0 -27 -45 -103q42 -6 43 -6q95 0 136 148q17 23 47 23zM1441 1111q11 -17 11 -34q0 -25 -19 -42.5t-44 -17.5
q-30 0 -48 27q-36 54 -61 54q-24 0 -72 -42q-39 -35 -60 -65q-42 -57 -69 -57q-16 0 -16 24q0 31 27 81q94 175 203 175q79 0 148 -103z" />
    <glyph glyph-name="uniFD86" unicode="&#xfedf;&#xfea8;&#xfee4;" horiz-adv-x="958" arabic-form="initial" 
d="M715 1412h12q26 0 31 -66q50 -372 50 -433q0 -59 -45 -111q179 -25 179 -133q0 -109 -224 -184l-255 -89q-91 -41 -100 -52q51 -21 51 -70q0 -109 -196 -177q-125 -59 -224 -59h14q-66 0 -66 55v4q0 54 61 54h4q51 0 144 44q2 4 2 6q0 11 -2 27q0 70 47 127
q86 83 179 119q99 45 293 108q139 50 159 84v3q-83 23 -257 47q-27 14 -27 53q0 46 80 72q72 42 72 80l-2 9q-10 77 -48 400v2q0 48 59 78q3 2 9 2zM550 1031l-34 -55q-18 -29 -49 -29q-25 0 -44 17.5t-19 42.5q0 16 10 33l34 55q18 29 49 29q25 0 44 -17.5t19 -42.5
q0 -16 -10 -33z" />
    <glyph glyph-name="uniFD88" unicode="&#xfedf;&#xfee4;&#xfea4;" horiz-adv-x="927" arabic-form="initial" 
d="M606 1413q25 0 34 -22q4 -26 23 -288q13 -120 13 -184q0 -40 -5 -58q149 -16 149 -94q0 -107 -163 -172q-54 -24 -142.5 -47.5t-159.5 -85.5q108 -12 173 -41q69 -37 69 -106q0 -76 -117 -151q-262 -125 -473 -125h-4q0 1 111 1h-127q-30 0 -44 36q-2 12 -2 19v10
q0 54 63 54q133 0 370 87q61 25 105 67q-33 14 -155 31q-130 15 -130 32q-14 13 -14 36v5q0 49 120 155q14 18 102 56q126 48 141 58q0 4 -2 19q0 73 34 134q5 20 7 46q-50 395 -50 453q0 51 65 75h9z" />
    <glyph glyph-name="uniFD8A" unicode="&#xfee3;&#xfea4;&#xfee4;" horiz-adv-x="1355" arabic-form="initial" 
d="M1211 1268h16q87 0 109 -66l2 -24q0 -93 -49 -126q-58 -38 -224 -90q-180 -50 -242 -102q0 -3 -6 -3v-4h2q103 -5 195 -51q49 -40 49 -88v-13q0 -94 -169 -166q-119 -47 -316 -111q-83 -33 -131 -65q57 -21 57 -74q0 -122 -242 -201q-121 -39 -174 -43.5t-64 -4.5h-31
q-45 7 -45 42q-2 0 -2 14v4q0 40 31 55q25 4 41 4h39q49 0 170 48l-2 24v6q0 111 91 177q69 55 152 92q95 39 375 136q98 45 103 66q-74 24 -269 49q-35 16 -35 53v8q14 62 121 148q82 56 189 93l103 32v4q0 114 86 163q34 14 70 14z" />
    <glyph glyph-name="uniFD8D" unicode="&#xfee3;&#xfea0;&#xfee4;" horiz-adv-x="1345" arabic-form="initial" 
d="M1211 1268h16q87 0 109 -66l2 -24q0 -93 -49 -126q-58 -38 -224 -90q-180 -50 -242 -102q0 -3 -6 -3v-4h2q103 -5 195 -51q49 -40 49 -88v-13q0 -94 -169 -166q-119 -47 -316 -111q-83 -33 -131 -65q57 -21 57 -74q0 -122 -242 -201q-121 -39 -174 -43.5t-64 -4.5h-31
q-45 7 -45 42q-2 0 -2 14v4q0 40 31 55q25 4 41 4h39q49 0 170 48l-2 24v6q0 111 91 177q69 55 152 92q95 39 375 136q98 45 103 66q-74 24 -269 49q-35 16 -35 53v8q14 62 121 148q82 56 189 93l103 32v4q0 114 86 163q34 14 70 14zM934 272l-34 -55q-18 -29 -49 -29
q-25 0 -44 17.5t-19 42.5q0 16 10 33l34 55q18 29 49 29q25 0 44 -17.5t19 -42.5q0 -16 -10 -33z" />
    <glyph glyph-name="uniFD8F" unicode="&#xfee3;&#xfea8;&#xfee4;" horiz-adv-x="1355" arabic-form="initial" 
d="M1211 1268h16q87 0 109 -66l2 -24q0 -93 -49 -126q-58 -38 -224 -90q-180 -50 -242 -102q0 -3 -6 -3v-4h2q103 -5 195 -51q49 -40 49 -88v-13q0 -94 -169 -166q-119 -47 -316 -111q-83 -33 -131 -65q57 -21 57 -74q0 -122 -242 -201q-121 -39 -174 -43.5t-64 -4.5h-31
q-45 7 -45 42q-2 0 -2 14v4q0 40 31 55q25 4 41 4h39q49 0 170 48l-2 24v6q0 111 91 177q69 55 152 92q95 39 375 136q98 45 103 66q-74 24 -269 49q-35 16 -35 53v8q14 62 121 148q82 56 189 93l103 32v4q0 114 86 163q34 14 70 14zM747 1148l-34 -55q-18 -29 -49 -29
q-25 0 -44 17.5t-19 42.5q0 16 10 33l34 55q18 29 49 29q25 0 44 -17.5t19 -42.5q0 -16 -10 -33z" />
    <glyph glyph-name="uniFDB5" unicode="&#xfedf;&#xfea4;&#xfee4;" horiz-adv-x="957" arabic-form="initial" 
d="M715 1412h12q26 0 31 -66q50 -372 50 -433q0 -59 -45 -111q179 -25 179 -133q0 -109 -224 -184l-255 -89q-91 -41 -100 -52q51 -21 51 -70q0 -109 -196 -177q-125 -59 -224 -59h14q-66 0 -66 55v4q0 54 61 54h4q51 0 144 44q2 4 2 6q0 11 -2 27q0 70 47 127
q86 83 179 119q99 45 293 108q139 50 159 84v3q-83 23 -257 47q-27 14 -27 53q0 46 80 72q72 42 72 80l-2 9q-10 77 -48 400v2q0 48 59 78q3 2 9 2z" />
    <glyph glyph-name="uniFDBA" unicode="&#xfedf;&#xfea0;&#xfee4;" horiz-adv-x="958" arabic-form="initial" 
d="M715 1412h12q26 0 31 -66q50 -372 50 -433q0 -59 -45 -111q179 -25 179 -133q0 -109 -224 -184l-255 -89q-91 -41 -100 -52q51 -21 51 -70q0 -109 -196 -177q-125 -59 -224 -59h14q-66 0 -66 55v4q0 54 61 54h4q51 0 144 44q2 4 2 6q0 11 -2 27q0 70 47 127
q86 83 179 119q99 45 293 108q139 50 159 84v3q-83 23 -257 47q-27 14 -27 53q0 46 80 72q72 42 72 80l-2 9q-10 77 -48 400v2q0 48 59 78q3 2 9 2zM809 318l-34 -55q-18 -29 -49 -29q-25 0 -44 17.5t-19 42.5q0 16 10 33l34 55q18 29 49 29q25 0 44 -17.5t19 -42.5
q0 -16 -10 -33z" />
    <glyph glyph-name="uniFDF2" unicode="&#x627;&#xfedf;&#xfee0;&#xfeea;" horiz-adv-x="1207" arabic-form="isolated" 
d="M875 732q28 0 37 -31q54 -369 54 -433q0 -156 -107 -196q-49 -17 -107 -17h-28q-98 0 -130 97q-4 13 -8 35q-61 -60 -130 -60h-14q-58 6 -76 6h-12q-112 0 -242 -209q-45 -78 -73 -78q-11 4 -11 20q10 102 126 270q90 113 197 113h15q14 0 90 -11h3q76 0 106 66q1 8 1 14
q-32 279 -32 297v5q0 42 51 64l14 1q42 0 42 -63q42 -354 52 -422q15 -38 53 -38q84 0 104 28q11 17 11 36v6q0 88 -45 393q-6 21 -6 35v3q0 54 60 69h5zM1142 355q2 -22 2 -43q0 -133 -43 -133q-32 0 -53 103q-11 55 -34 253q-15 130 -34 328v7q0 45 23 76q22 30 50 30
q34 0 38 -45q19 -202 51 -576zM873 1026q0 -49 -29 -87q-32 -41 -83 -41q-19 0 -48 22q-18 -24 -55 -44t-59 -20q-20 0 -35 24q-13 22 -13 46q0 28 11 56q12 33 32 33q18 0 22 -29q1 -16 2 -33q4 -7 13 -7q11 0 29 11q22 13 46 51q20 31 31 31q14 0 15.5 -34.5t20.5 -34.5
q15 0 32 12t17 24q0 51 28 51q23 0 23 -31zM755 1220q0 -42 -7 -71q-10 -41 -25 -41t-15 35q0 58 -14 89q-15 23 -39 66q-4 10 -4 19q0 31 27 31q16 0 32 -16q45 -46 45 -112z" />
    <glyph glyph-name="uniFEF7" unicode="&#xfedf;&#xfe84;" horiz-adv-x="1141" arabic-form="isolated" 
d="M593 790q0 -58 -62.5 -108.5t-121.5 -50.5q-33 0 -33 31q0 25 27 35q86 31 104 80q-73 18 -73 61q0 35 35 79q30 38 66 60q12 7 25 7q37 0 37 -31q0 -16 -17 -30q-47 -37 -61 -73q43 -12 50 -16q24 -13 24 -44zM691 299q5 -40 5 -75q0 -104 -31 -104q-30 0 -56 106
q-16 66 -75 243q-7 21 -7 40q0 71 58 71q37 0 52 -44q40 -119 54 -237zM1117 303q-8 -97 -146 -196q-130 -94 -340 -163q-255 -84 -519 -84q-85 0 -85 31q0 33 85 50q218 44 443 118q418 136 441 266q2 9 2 20q0 70 -77 227q-8 16 -8 33q0 28 19.5 48.5t43.5 20.5
q27 0 44 -27q37 -58 67 -151q31 -98 31 -170q0 -12 -1 -23z" />
    <glyph glyph-name="uniFEF8" unicode="&#xfee0;&#xfe84;" horiz-adv-x="1299" arabic-form="final" 
d="M712 384q2 -27 2 -51q0 -128 -38 -128q-31 0 -53 106q-18 87 -66 253q-6 19 -6 36q0 75 61 75q37 0 50 -44q41 -139 50 -247zM1293 35q-164 0 -185 131q-9 62 -37 357q-67 -205 -179 -330q-136 -151 -362 -217q-188 -54 -370 -54q-109 0 -109 39q0 30 77 44
q329 58 496 139q160 78 261 241q47 76 118 260q47 122 87 122q79 0 103 -272q4 -107 32 -298q12 -42 68 -42q60 0 60 -60t-60 -60zM605 937q0 -58 -62.5 -108.5t-121.5 -50.5q-33 0 -33 31q0 25 27 35q86 31 104 80q-73 18 -73 61q0 35 35 79q30 38 66 60q12 7 25 7
q37 0 37 -31q0 -16 -17 -30q-47 -37 -61 -73q43 -12 50 -16q24 -13 24 -44z" />
    <glyph glyph-name="uniFEF9" unicode="&#xfedf;&#xfe88;" horiz-adv-x="1121" arabic-form="isolated" 
d="M681 299q5 -40 5 -75q0 -104 -31 -104q-30 0 -56 106q-16 66 -75 243q-7 21 -7 40q0 71 58 71q37 0 52 -44q40 -119 54 -237zM1107 303q-8 -97 -146 -196q-130 -94 -340 -163q-255 -84 -519 -84q-85 0 -85 31q0 33 85 50q218 44 443 118q418 136 441 266q2 9 2 20
q0 70 -77 227q-8 16 -8 33q0 28 19.5 48.5t43.5 20.5q27 0 44 -27q37 -58 67 -151q31 -98 31 -170q0 -12 -1 -23zM280 -439q0 -58 -62.5 -108.5t-121.5 -50.5q-33 0 -33 31q0 25 27 35q86 31 104 80q-73 18 -73 61q0 35 35 79q30 38 66 60q12 7 25 7q37 0 37 -31
q0 -16 -17 -30q-47 -37 -61 -73q43 -12 50 -16q24 -13 24 -44z" />
    <glyph glyph-name="uniFEFA" unicode="&#xfee0;&#xfe88;" horiz-adv-x="1212" arabic-form="final" 
d="M652 384q2 -27 2 -51q0 -128 -38 -128q-31 0 -53 106q-18 87 -66 253q-6 19 -6 36q0 75 61 75q37 0 50 -44q41 -139 50 -247zM1233 35q-164 0 -185 131q-9 62 -37 357q-67 -205 -179 -330q-136 -151 -362 -217q-188 -54 -370 -54q-109 0 -109 39q0 30 77 44
q329 58 496 139q160 78 261 241q47 76 118 260q47 122 87 122q79 0 103 -272q4 -107 32 -298q12 -42 68 -42q60 0 60 -60t-60 -60zM336 -295q0 -58 -62.5 -108.5t-121.5 -50.5q-33 0 -33 31q0 25 27 35q86 31 104 80q-73 18 -73 61q0 35 35 79q30 38 66 60q12 7 25 7
q37 0 37 -31q0 -16 -17 -30q-47 -37 -61 -73q43 -12 50 -16q24 -13 24 -44z" />
    <glyph glyph-name="uniFEFB" unicode="&#xfedf;&#xfe8e;" horiz-adv-x="1131" arabic-form="isolated" 
d="M681 299q5 -40 5 -75q0 -104 -31 -104q-30 0 -56 106q-16 66 -75 243q-7 21 -7 40q0 71 58 71q37 0 52 -44q40 -119 54 -237zM1107 303q-8 -97 -146 -196q-130 -94 -340 -163q-255 -84 -519 -84q-85 0 -85 31q0 33 85 50q218 44 443 118q418 136 441 266q2 9 2 20
q0 70 -77 227q-8 16 -8 33q0 28 19.5 48.5t43.5 20.5q27 0 44 -27q37 -58 67 -151q31 -98 31 -170q0 -12 -1 -23z" />
    <glyph glyph-name="uniFEFC" unicode="&#xfee0;&#xfe8e;" horiz-adv-x="1238" arabic-form="final" 
d="M652 384q2 -27 2 -51q0 -128 -38 -128q-31 0 -53 106q-18 87 -66 253q-6 19 -6 36q0 75 61 75q37 0 50 -44q41 -139 50 -247zM1233 35q-164 0 -185 131q-9 62 -37 357q-67 -205 -179 -330q-136 -151 -362 -217q-188 -54 -370 -54q-109 0 -109 39q0 30 77 44
q329 58 496 139q160 78 261 241q47 76 118 260q47 122 87 122q79 0 103 -272q4 -107 32 -298q12 -42 68 -42q60 0 60 -60t-60 -60z" />
    <glyph glyph-name="t_t" unicode="tt" horiz-adv-x="824" 
d="M23 546l91 3v160l-1 11q15 6 31 12.5t30.5 12.5t26 11.5t17.5 9.5l11 -6q-3 -18 -4.5 -47t-1.5 -80v-82l282 4v87q0 25 -0.5 51t-0.5 50q15 6 31 12.5t31 12.5t26.5 11.5t17.5 9.5l11 -6q-2 -25 -3.5 -56.5t-2.5 -63t-1.5 -60t-0.5 -46.5l171 4l8 -7l-3 -51h-176v-322
q0 -39 7.5 -64t21 -40t31.5 -20.5t39 -5.5q22 0 46 5t47 10l7 -36q-39 -19 -84 -32.5t-87 -13.5q-29 0 -53.5 7.5t-43.5 25.5t-29.5 47.5t-10.5 72.5v27q0 18 0.5 58t0.5 107v174h-282v-322q0 -39 7.5 -64t21 -40t31.5 -20.5t39 -5.5q22 0 46 5t47 10l7 -36
q-39 -19 -84 -32.5t-87 -13.5q-29 0 -53.5 7.5t-43.5 25.5t-29.5 47.5t-10.5 72.5v27q0 18 0.5 58t0.5 107v174h-90l-7 7z" />
    <glyph glyph-name="uni062706440627.isol" unicode="&#x627;&#xfefb;" horiz-adv-x="1264" 
d="M621 299q5 -40 5 -75q0 -104 -31 -104q-30 0 -56 106q-16 66 -75 243q-7 21 -7 40q0 71 58 71q37 0 52 -44q40 -119 54 -237zM1047 303q-8 -97 -146 -196q-130 -94 -340 -163q-255 -84 -519 -84q-85 0 -85 31q0 33 85 50q218 44 443 118q418 136 441 266q2 9 2 20
q0 70 -77 227q-8 16 -8 33q0 28 19.5 48.5t43.5 20.5q27 0 44 -27q37 -58 67 -151q31 -98 31 -170q0 -12 -1 -23zM1239 284q2 -22 2 -43q0 -133 -43 -133q-32 0 -53 103q-11 55 -34 253q-15 130 -34 328v7q0 45 23 76q22 30 50 30q34 0 38 -45q19 -202 51 -576z" />
    <glyph glyph-name="uni062B062D.isol" unicode="&#xfe9b;&#xfea2;" horiz-adv-x="861" 
d="M755 520q109 0 109 -67v-2q0 -52 -51 -72q-32 -8 -83 -8q-85 2 -85 5q-4 3 -12 5q-66 -24 -148 -89q-54 -49 -70 -72v-1q84 -8 119 -19q35 -10 61 -24q16 -7 34 -27q23 -33 23 -64q0 -79 -158 -178l-222 -146q-67 -55 -92 -95q-31 -47 -31 -89v-10q0 -84 87 -129
q78 -35 212 -35q162 0 444 39q93 17 124 22q9 1 22 1h9q1 0 1 -1v-32q-40 -27 -145 -62q-276 -76 -455 -76q-265 0 -365 133q-43 62 -43 138v12q0 146 203 299q77 56 151 98q76 39 131 82q17 16 19 25q-29 15 -185 37q-50 6 -64 11q-17 8 -23 22q-7 12 -7 25q0 21 25 55
q24 42 85 110q64 62 95 80q144 99 285 99zM796 1042q11 -17 11 -34q0 -25 -19 -42.5t-44 -17.5q-30 0 -48 27q-36 54 -61 54q-24 0 -72 -42q-39 -35 -60 -65q-42 -57 -69 -57q-16 0 -16 24q0 31 27 81q94 175 203 175q79 0 148 -103z" />
    <glyph glyph-name="uni0626062E.isol" unicode="&#xfe8b;&#xfea6;" horiz-adv-x="861" 
d="M755 520q109 0 109 -67v-2q0 -52 -51 -72q-32 -8 -83 -8q-85 2 -85 5q-4 3 -12 5q-66 -24 -148 -89q-54 -49 -70 -72v-1q84 -8 119 -19q35 -10 61 -24q16 -7 34 -27q23 -33 23 -64q0 -79 -158 -178l-222 -146q-67 -55 -92 -95q-31 -47 -31 -89v-10q0 -84 87 -129
q78 -35 212 -35q162 0 444 39q93 17 124 22q9 1 22 1h9q1 0 1 -1v-32q-40 -27 -145 -62q-276 -76 -455 -76q-265 0 -365 133q-43 62 -43 138v12q0 146 203 299q77 56 151 98q76 39 131 82q17 16 19 25q-29 15 -185 37q-50 6 -64 11q-17 8 -23 22q-7 12 -7 25q0 21 25 55
q24 42 85 110q64 62 95 80q144 99 285 99zM674 1030q0 -58 -62.5 -108.5t-121.5 -50.5q-33 0 -33 31q0 25 27 35q86 31 104 80q-73 18 -73 61q0 35 35 79q30 38 66 60q12 7 25 7q37 0 37 -31q0 -16 -17 -30q-47 -37 -61 -73q43 -12 50 -16q24 -13 24 -44zM279 601l-34 -55
q-18 -29 -49 -29q-25 0 -44 17.5t-19 42.5q0 16 10 33l34 55q18 29 49 29q25 0 44 -17.5t19 -42.5q0 -16 -10 -33z" />
    <glyph glyph-name="uni062B062E.isol" unicode="&#xfe9b;&#xfea6;" horiz-adv-x="861" 
d="M755 520q109 0 109 -67v-2q0 -52 -51 -72q-32 -8 -83 -8q-85 2 -85 5q-4 3 -12 5q-66 -24 -148 -89q-54 -49 -70 -72v-1q84 -8 119 -19q35 -10 61 -24q16 -7 34 -27q23 -33 23 -64q0 -79 -158 -178l-222 -146q-67 -55 -92 -95q-31 -47 -31 -89v-10q0 -84 87 -129
q78 -35 212 -35q162 0 444 39q93 17 124 22q9 1 22 1h9q1 0 1 -1v-32q-40 -27 -145 -62q-276 -76 -455 -76q-265 0 -365 133q-43 62 -43 138v12q0 146 203 299q77 56 151 98q76 39 131 82q17 16 19 25q-29 15 -185 37q-50 6 -64 11q-17 8 -23 22q-7 12 -7 25q0 21 25 55
q24 42 85 110q64 62 95 80q144 99 285 99zM803 1031q11 -17 11 -34q0 -25 -19 -42.5t-44 -17.5q-30 0 -48 27q-36 54 -61 54q-24 0 -72 -42q-39 -35 -60 -65q-42 -57 -69 -57q-16 0 -16 24q0 31 27 81q94 175 203 175q79 0 148 -103zM287 597l-34 -55q-18 -29 -49 -29
q-25 0 -44 17.5t-19 42.5q0 16 10 33l34 55q18 29 49 29q25 0 44 -17.5t19 -42.5q0 -16 -10 -33z" />
    <glyph glyph-name="uni062B062C.init" unicode="&#xfe9b;&#xfea0;" 
d="M687 781q117 0 117 -66v-14q0 -67 -80 -78q-34 -5 -66 -5q-77 0 -102 10q-89 -22 -224 -156q0 -5 -10 -15v-2q108 -6 192 -49q56 -35 56 -90v-12q0 -66 -104 -139q-258 -131 -492 -131q-12 3 -12 7v107q1 5 5 5q165 0 411 100q54 29 73 54q-43 17 -263 48q-31 18 -31 54
q7 59 136 194q195 178 394 178zM812 1098q11 -17 11 -34q0 -25 -19 -42.5t-44 -17.5q-30 0 -48 27q-36 54 -61 54q-24 0 -72 -42q-39 -35 -60 -65q-42 -57 -69 -57q-16 0 -16 24q0 31 27 81q94 175 203 175q79 0 148 -103zM405 -169l-34 -55q-18 -29 -49 -29q-25 0 -44 17.5
t-19 42.5q0 16 10 33l34 55q18 29 49 29q25 0 44 -17.5t19 -42.5q0 -16 -10 -33z" />
    <glyph glyph-name="uni062B062D.init" unicode="&#xfe9b;&#xfea4;" 
d="M687 781q117 0 117 -66v-14q0 -67 -80 -78q-34 -5 -66 -5q-77 0 -102 10q-89 -22 -224 -156q0 -5 -10 -15v-2q108 -6 192 -49q56 -35 56 -90v-12q0 -66 -104 -139q-258 -131 -492 -131q-12 3 -12 7v107q1 5 5 5q165 0 411 100q54 29 73 54q-43 17 -263 48q-31 18 -31 54
q7 59 136 194q195 178 394 178zM812 1098q11 -17 11 -34q0 -25 -19 -42.5t-44 -17.5q-30 0 -48 27q-36 54 -61 54q-24 0 -72 -42q-39 -35 -60 -65q-42 -57 -69 -57q-16 0 -16 24q0 31 27 81q94 175 203 175q79 0 148 -103z" />
    <glyph glyph-name="uni062B062E.init" unicode="&#xfe9b;&#xfea8;" 
d="M687 781q117 0 117 -66v-14q0 -67 -80 -78q-34 -5 -66 -5q-77 0 -102 10q-89 -22 -224 -156q0 -5 -10 -15v-2q108 -6 192 -49q56 -35 56 -90v-12q0 -66 -104 -139q-258 -131 -492 -131q-12 3 -12 7v107q1 5 5 5q165 0 411 100q54 29 73 54q-43 17 -263 48q-31 18 -31 54
q7 59 136 194q195 178 394 178zM812 1098q11 -17 11 -34q0 -25 -19 -42.5t-44 -17.5q-30 0 -48 27q-36 54 -61 54q-24 0 -72 -42q-39 -35 -60 -65q-42 -57 -69 -57q-16 0 -16 24q0 31 27 81q94 175 203 175q79 0 148 -103zM276 699l-34 -55q-18 -29 -49 -29q-25 0 -44 17.5
t-19 42.5q0 16 10 33l34 55q18 29 49 29q25 0 44 -17.5t19 -42.5q0 -16 -10 -33z" />
    <glyph glyph-name="uni06260683.init" unicode="&#xfe8b;&#xfb79;" 
d="M687 781q117 0 117 -66v-14q0 -67 -80 -78q-34 -5 -66 -5q-77 0 -102 10q-89 -22 -224 -156q0 -5 -10 -15v-2q108 -6 192 -49q56 -35 56 -90v-12q0 -66 -104 -139q-258 -131 -492 -131q-12 3 -12 7v107q1 5 5 5q165 0 411 100q54 29 73 54q-43 17 -263 48q-31 18 -31 54
q7 59 136 194q195 178 394 178zM681 1060q0 -58 -62.5 -108.5t-121.5 -50.5q-33 0 -33 31q0 25 27 35q86 31 104 80q-73 18 -73 61q0 35 35 79q30 38 66 60q12 7 25 7q37 0 37 -31q0 -16 -17 -30q-47 -37 -61 -73q43 -12 50 -16q24 -13 24 -44zM526 -253q-84 -36 -202 -36
q-107 0 -107 45q0 32 91 46q62 9 171 55q13 6 26 6q58 0 58 -63q0 -38 -37 -53z" />
    <glyph glyph-name="uni06280683.init" unicode="&#xfe91;&#xfb79;" 
d="M687 781q117 0 117 -66v-14q0 -67 -80 -78q-34 -5 -66 -5q-77 0 -102 10q-89 -22 -224 -156q0 -5 -10 -15v-2q108 -6 192 -49q56 -35 56 -90v-12q0 -66 -104 -139q-258 -131 -492 -131q-12 3 -12 7v107q1 5 5 5q165 0 411 100q54 29 73 54q-43 17 -263 48q-31 18 -31 54
q7 59 136 194q195 178 394 178zM721 -63l-34 -55q-18 -29 -49 -29q-25 0 -44 17.5t-19 42.5q0 16 10 33l34 55q18 29 49 29q25 0 44 -17.5t19 -42.5q0 -16 -10 -33zM496 -253q-84 -36 -202 -36q-107 0 -107 45q0 32 91 46q62 9 171 55q13 6 26 6q58 0 58 -63q0 -38 -37 -53z
" />
    <glyph glyph-name="uni062A0683.init" unicode="&#xfe97;&#xfb79;" 
d="M687 781q117 0 117 -66v-14q0 -67 -80 -78q-34 -5 -66 -5q-77 0 -102 10q-89 -22 -224 -156q0 -5 -10 -15v-2q108 -6 192 -49q56 -35 56 -90v-12q0 -66 -104 -139q-258 -131 -492 -131q-12 3 -12 7v107q1 5 5 5q165 0 411 100q54 29 73 54q-43 17 -263 48q-31 18 -31 54
q7 59 136 194q195 178 394 178zM726 929q-84 -36 -202 -36q-107 0 -107 45q0 32 91 46q62 9 171 55q13 6 26 6q58 0 58 -63q0 -38 -37 -53zM526 -253q-84 -36 -202 -36q-107 0 -107 45q0 32 91 46q62 9 171 55q13 6 26 6q58 0 58 -63q0 -38 -37 -53z" />
    <glyph glyph-name="uni062B0683.init" unicode="&#xfe9b;&#xfb79;" 
d="M687 781q117 0 117 -66v-14q0 -67 -80 -78q-34 -5 -66 -5q-77 0 -102 10q-89 -22 -224 -156q0 -5 -10 -15v-2q108 -6 192 -49q56 -35 56 -90v-12q0 -66 -104 -139q-258 -131 -492 -131q-12 3 -12 7v107q1 5 5 5q165 0 411 100q54 29 73 54q-43 17 -263 48q-31 18 -31 54
q7 59 136 194q195 178 394 178zM812 1098q11 -17 11 -34q0 -25 -19 -42.5t-44 -17.5q-30 0 -48 27q-36 54 -61 54q-24 0 -72 -42q-39 -35 -60 -65q-42 -57 -69 -57q-16 0 -16 24q0 31 27 81q94 175 203 175q79 0 148 -103zM526 -253q-84 -36 -202 -36q-107 0 -107 45
q0 32 91 46q62 9 171 55q13 6 26 6q58 0 58 -63q0 -38 -37 -53z" />
    <glyph glyph-name="uni06460683.init" unicode="&#xfee7;&#xfb79;" 
d="M687 781q117 0 117 -66v-14q0 -67 -80 -78q-34 -5 -66 -5q-77 0 -102 10q-89 -22 -224 -156q0 -5 -10 -15v-2q108 -6 192 -49q56 -35 56 -90v-12q0 -66 -104 -139q-258 -131 -492 -131q-12 3 -12 7v107q1 5 5 5q165 0 411 100q54 29 73 54q-43 17 -263 48q-31 18 -31 54
q7 59 136 194q195 178 394 178zM661 989l-34 -55q-18 -29 -49 -29q-25 0 -44 17.5t-19 42.5q0 16 10 33l34 55q18 29 49 29q25 0 44 -17.5t19 -42.5q0 -16 -10 -33zM526 -253q-84 -36 -202 -36q-107 0 -107 45q0 32 91 46q62 9 171 55q13 6 26 6q58 0 58 -63q0 -38 -37 -53z
" />
    <glyph glyph-name="uni064A0683.init" unicode="&#xfbfe;&#xfb79;" 
d="M687 781q117 0 117 -66v-14q0 -67 -80 -78q-34 -5 -66 -5q-77 0 -102 10q-89 -22 -224 -156q0 -5 -10 -15v-2q108 -6 192 -49q56 -35 56 -90v-12q0 -66 -104 -139q-258 -131 -492 -131q-12 3 -12 7v107q1 5 5 5q165 0 411 100q54 29 73 54q-43 17 -263 48q-31 18 -31 54
q7 59 136 194q195 178 394 178zM816 -101q-84 -36 -202 -36q-107 0 -107 45q0 32 91 46q62 9 171 55q13 6 26 6q58 0 58 -63q0 -38 -37 -53zM496 -253q-84 -36 -202 -36q-107 0 -107 45q0 32 91 46q62 9 171 55q13 6 26 6q58 0 58 -63q0 -38 -37 -53z" />
    <glyph glyph-name="uniFC9B.alt" unicode="&#xfe8b;&#xfeec;" horiz-adv-x="678" 
d="M724 747q0 -5 -6 -22.5t-14 -36.5t-26 -51q-14 -4 -37.5 -11t-51 -16t-55 -20t-48.5 -21q-28 -14 -54.5 -30t-46.5 -31t-32.5 -27.5t-12.5 -20.5q0 -6 8 -22q19 -35 58 -56t81 -37q13 -5 26.5 -9.5t24 -13.5t17 -24.5t6.5 -43.5q0 -29 -12.5 -61.5t-29 -61t-31.5 -48.5
t-20 -24q-6 -6 -26.5 -12.5t-47 -11t-55 -7.5t-50.5 -3q-36 0 -75.5 2t-73.5 11q-38 -20 -74 -29t-66 -9q-16 2 -25.5 6.5t-17.5 15t-8 30.5q0 26 24.5 43t60.5 19q8 0 13 0.5t10 1.5v6q0 32 9.5 70t26.5 76t39 74t47 64t51 44.5t51 16.5h21q6 20 20.5 44t28.5 40
q28 30 75 60t100 57t105 48t93 31zM241 328q-15 0 -39 -12t-46.5 -30t-38.5 -38.5t-16 -36.5q0 -11 10.5 -21.5t24.5 -19.5t27 -14.5t19 -5.5q10 0 27.5 8t34 21.5t28.5 32t12 38.5q0 18 -5 32.5t-11.5 24.5t-14 15.5t-12.5 5.5zM332 310q-2 -18 -7 -44t-12 -47
q-6 -21 -16.5 -42.5t-19.5 -36.5q45 0 86.5 5t73.5 12.5t51 15.5t19 13q0 14 -27.5 36t-75.5 36q-11 3 -21 9.5t-19.5 14t-17.5 15t-14 13.5zM638 1014q0 -58 -62.5 -108.5t-121.5 -50.5q-33 0 -33 31q0 25 27 35q86 31 104 80q-73 18 -73 61q0 35 35 79q30 38 66 60
q12 7 25 7q37 0 37 -31q0 -16 -17 -30q-47 -37 -61 -73q43 -12 50 -16q24 -13 24 -44z" />
    <glyph glyph-name="uniFCA0.alt" unicode="&#xfe91;&#xfeec;" horiz-adv-x="721" 
d="M724 747q0 -5 -6 -22.5t-14 -36.5t-26 -51q-14 -4 -37.5 -11t-51 -16t-55 -20t-48.5 -21q-28 -14 -54.5 -30t-46.5 -31t-32.5 -27.5t-12.5 -20.5q0 -6 8 -22q19 -35 58 -56t81 -37q13 -5 26.5 -9.5t24 -13.5t17 -24.5t6.5 -43.5q0 -29 -12.5 -61.5t-29 -61t-31.5 -48.5
t-20 -24q-6 -6 -26.5 -12.5t-47 -11t-55 -7.5t-50.5 -3q-36 0 -75.5 2t-73.5 11q-38 -20 -74 -29t-66 -9q-16 2 -25.5 6.5t-17.5 15t-8 30.5q0 26 24.5 43t60.5 19q8 0 13 0.5t10 1.5v6q0 32 9.5 70t26.5 76t39 74t47 64t51 44.5t51 16.5h21q6 20 20.5 44t28.5 40
q28 30 75 60t100 57t105 48t93 31zM241 328q-15 0 -39 -12t-46.5 -30t-38.5 -38.5t-16 -36.5q0 -11 10.5 -21.5t24.5 -19.5t27 -14.5t19 -5.5q10 0 27.5 8t34 21.5t28.5 32t12 38.5q0 18 -5 32.5t-11.5 24.5t-14 15.5t-12.5 5.5zM332 310q-2 -18 -7 -44t-12 -47
q-6 -21 -16.5 -42.5t-19.5 -36.5q45 0 86.5 5t73.5 12.5t51 15.5t19 13q0 14 -27.5 36t-75.5 36q-11 3 -21 9.5t-19.5 14t-17.5 15t-14 13.5zM721 426l-34 -55q-18 -29 -49 -29q-25 0 -44 17.5t-19 42.5q0 16 10 33l34 55q18 29 49 29q25 0 44 -17.5t19 -42.5q0 -16 -10 -33
z" />
    <glyph glyph-name="uniFCA5.alt" unicode="&#xfe97;&#xfeec;" horiz-adv-x="725" 
d="M724 747q0 -5 -6 -22.5t-14 -36.5t-26 -51q-14 -4 -37.5 -11t-51 -16t-55 -20t-48.5 -21q-28 -14 -54.5 -30t-46.5 -31t-32.5 -27.5t-12.5 -20.5q0 -6 8 -22q19 -35 58 -56t81 -37q13 -5 26.5 -9.5t24 -13.5t17 -24.5t6.5 -43.5q0 -29 -12.5 -61.5t-29 -61t-31.5 -48.5
t-20 -24q-6 -6 -26.5 -12.5t-47 -11t-55 -7.5t-50.5 -3q-36 0 -75.5 2t-73.5 11q-38 -20 -74 -29t-66 -9q-16 2 -25.5 6.5t-17.5 15t-8 30.5q0 26 24.5 43t60.5 19q8 0 13 0.5t10 1.5v6q0 32 9.5 70t26.5 76t39 74t47 64t51 44.5t51 16.5h21q6 20 20.5 44t28.5 40
q28 30 75 60t100 57t105 48t93 31zM241 328q-15 0 -39 -12t-46.5 -30t-38.5 -38.5t-16 -36.5q0 -11 10.5 -21.5t24.5 -19.5t27 -14.5t19 -5.5q10 0 27.5 8t34 21.5t28.5 32t12 38.5q0 18 -5 32.5t-11.5 24.5t-14 15.5t-12.5 5.5zM332 310q-2 -18 -7 -44t-12 -47
q-6 -21 -16.5 -42.5t-19.5 -36.5q45 0 86.5 5t73.5 12.5t51 15.5t19 13q0 14 -27.5 36t-75.5 36q-11 3 -21 9.5t-19.5 14t-17.5 15t-14 13.5zM707 876q-84 -36 -202 -36q-107 0 -107 45q0 32 91 46q62 9 171 55q13 6 26 6q58 0 58 -63q0 -38 -37 -53z" />
    <glyph glyph-name="uni062B0647.init" unicode="&#xfe9b;&#xfeec;" horiz-adv-x="881" 
d="M754 293q116 0 116 -71v-3q0 -59 -55 -77q-31 -9 -86 -9q-83 0 -103 9h-2q-200 -77 -305 -287q-113 -263 -198 -263q-91 0 -91 126q0 116 68 337h-2q-74 -19 -108 -19l-2 4v108q0 4 51 10q92 23 128 72q26 32 53 32q56 0 56 -55v-4q0 -15 -40 -108q-77 -234 -77 -282
q-2 0 -5 -31v-1h2q81 180 150 266q68 82 128 126q168 120 322 120zM840 639q11 -17 11 -34q0 -25 -19 -42.5t-44 -17.5q-30 0 -48 27q-36 54 -61 54q-24 0 -72 -42q-39 -35 -60 -65q-42 -57 -69 -57q-16 0 -16 24q0 31 27 81q94 175 203 175q79 0 148 -103z" />
    <glyph glyph-name="uni062B0647.initalt" unicode="&#xfe9b;&#xfeec;" horiz-adv-x="725" 
d="M724 747q0 -5 -6 -22.5t-14 -36.5t-26 -51q-14 -4 -37.5 -11t-51 -16t-55 -20t-48.5 -21q-28 -14 -54.5 -30t-46.5 -31t-32.5 -27.5t-12.5 -20.5q0 -6 8 -22q19 -35 58 -56t81 -37q13 -5 26.5 -9.5t24 -13.5t17 -24.5t6.5 -43.5q0 -29 -12.5 -61.5t-29 -61t-31.5 -48.5
t-20 -24q-6 -6 -26.5 -12.5t-47 -11t-55 -7.5t-50.5 -3q-36 0 -75.5 2t-73.5 11q-38 -20 -74 -29t-66 -9q-16 2 -25.5 6.5t-17.5 15t-8 30.5q0 26 24.5 43t60.5 19q8 0 13 0.5t10 1.5v6q0 32 9.5 70t26.5 76t39 74t47 64t51 44.5t51 16.5h21q6 20 20.5 44t28.5 40
q28 30 75 60t100 57t105 48t93 31zM241 328q-15 0 -39 -12t-46.5 -30t-38.5 -38.5t-16 -36.5q0 -11 10.5 -21.5t24.5 -19.5t27 -14.5t19 -5.5q10 0 27.5 8t34 21.5t28.5 32t12 38.5q0 18 -5 32.5t-11.5 24.5t-14 15.5t-12.5 5.5zM332 310q-2 -18 -7 -44t-12 -47
q-6 -21 -16.5 -42.5t-19.5 -36.5q45 0 86.5 5t73.5 12.5t51 15.5t19 13q0 14 -27.5 36t-75.5 36q-11 3 -21 9.5t-19.5 14t-17.5 15t-14 13.5zM798 1044q11 -17 11 -34q0 -25 -19 -42.5t-44 -17.5q-30 0 -48 27q-36 54 -61 54q-24 0 -72 -42q-39 -35 -60 -65q-42 -57 -69 -57
q-16 0 -16 24q0 31 27 81q94 175 203 175q79 0 148 -103z" />
    <glyph glyph-name="uniFCD6.alt" unicode="&#xfee7;&#xfeec;" horiz-adv-x="725" 
d="M724 747q0 -5 -6 -22.5t-14 -36.5t-26 -51q-14 -4 -37.5 -11t-51 -16t-55 -20t-48.5 -21q-28 -14 -54.5 -30t-46.5 -31t-32.5 -27.5t-12.5 -20.5q0 -6 8 -22q19 -35 58 -56t81 -37q13 -5 26.5 -9.5t24 -13.5t17 -24.5t6.5 -43.5q0 -29 -12.5 -61.5t-29 -61t-31.5 -48.5
t-20 -24q-6 -6 -26.5 -12.5t-47 -11t-55 -7.5t-50.5 -3q-36 0 -75.5 2t-73.5 11q-38 -20 -74 -29t-66 -9q-16 2 -25.5 6.5t-17.5 15t-8 30.5q0 26 24.5 43t60.5 19q8 0 13 0.5t10 1.5v6q0 32 9.5 70t26.5 76t39 74t47 64t51 44.5t51 16.5h21q6 20 20.5 44t28.5 40
q28 30 75 60t100 57t105 48t93 31zM241 328q-15 0 -39 -12t-46.5 -30t-38.5 -38.5t-16 -36.5q0 -11 10.5 -21.5t24.5 -19.5t27 -14.5t19 -5.5q10 0 27.5 8t34 21.5t28.5 32t12 38.5q0 18 -5 32.5t-11.5 24.5t-14 15.5t-12.5 5.5zM332 310q-2 -18 -7 -44t-12 -47
q-6 -21 -16.5 -42.5t-19.5 -36.5q45 0 86.5 5t73.5 12.5t51 15.5t19 13q0 14 -27.5 36t-75.5 36q-11 3 -21 9.5t-19.5 14t-17.5 15t-14 13.5zM657 931l-34 -55q-18 -29 -49 -29q-25 0 -44 17.5t-19 42.5q0 16 10 33l34 55q18 29 49 29q25 0 44 -17.5t19 -42.5q0 -16 -10 -33
z" />
    <glyph glyph-name="uniFCDE.alt" unicode="&#xfbfe;&#xfeec;" horiz-adv-x="793" 
d="M724 747q0 -5 -6 -22.5t-14 -36.5t-26 -51q-14 -4 -37.5 -11t-51 -16t-55 -20t-48.5 -21q-28 -14 -54.5 -30t-46.5 -31t-32.5 -27.5t-12.5 -20.5q0 -6 8 -22q19 -35 58 -56t81 -37q13 -5 26.5 -9.5t24 -13.5t17 -24.5t6.5 -43.5q0 -29 -12.5 -61.5t-29 -61t-31.5 -48.5
t-20 -24q-6 -6 -26.5 -12.5t-47 -11t-55 -7.5t-50.5 -3q-36 0 -75.5 2t-73.5 11q-38 -20 -74 -29t-66 -9q-16 2 -25.5 6.5t-17.5 15t-8 30.5q0 26 24.5 43t60.5 19q8 0 13 0.5t10 1.5v6q0 32 9.5 70t26.5 76t39 74t47 64t51 44.5t51 16.5h21q6 20 20.5 44t28.5 40
q28 30 75 60t100 57t105 48t93 31zM241 328q-15 0 -39 -12t-46.5 -30t-38.5 -38.5t-16 -36.5q0 -11 10.5 -21.5t24.5 -19.5t27 -14.5t19 -5.5q10 0 27.5 8t34 21.5t28.5 32t12 38.5q0 18 -5 32.5t-11.5 24.5t-14 15.5t-12.5 5.5zM332 310q-2 -18 -7 -44t-12 -47
q-6 -21 -16.5 -42.5t-19.5 -36.5q45 0 86.5 5t73.5 12.5t51 15.5t19 13q0 14 -27.5 36t-75.5 36q-11 3 -21 9.5t-19.5 14t-17.5 15t-14 13.5zM822 413q-84 -36 -202 -36q-107 0 -107 45q0 32 91 46q62 9 171 55q13 6 26 6q58 0 58 -63q0 -38 -37 -53z" />
    <glyph glyph-name="uni06260626.isol" unicode="&#xfe8b;&#xfe8a;" horiz-adv-x="1325" 
d="M1093 773q55 0 80 -104q21 -66 21 -162v-8q0 -97 -49 -133q0 -4 -19 -20q138 -20 138 -31q54 -25 54 -68v-21q0 -96 -137 -192q-76 -53 -219 -106q-193 -63 -374 -63h-38q-327 0 -461 158q-46 61 -46 136q0 244 445 350q117 25 245 25h24q95 0 95 -29q0 -30 -135 -36
q-164 -26 -269 -61q-299 -99 -299 -250v-8q0 -79 150 -139q112 -40 270 -40q287 0 532 139q99 72 99 103q0 18 -105 26q-165 25 -165 91q12 67 63 67q116 40 116 101v3q0 40 -69 198q-4 7 -4 15v10q0 49 57 49zM799 902q0 -58 -62.5 -108.5t-121.5 -50.5q-33 0 -33 31
q0 25 27 35q86 31 104 80q-73 18 -73 61q0 35 35 79q30 38 66 60q12 7 25 7q37 0 37 -31q0 -16 -17 -30q-47 -37 -61 -73q43 -12 50 -16q24 -13 24 -44zM612 201q0 -58 -62.5 -108.5t-121.5 -50.5q-33 0 -33 31q0 25 27 35q86 31 104 80q-73 18 -73 61q0 35 35 79
q30 38 66 60q12 7 25 7q37 0 37 -31q0 -16 -17 -30q-47 -37 -61 -73q43 -12 50 -16q24 -13 24 -44z" />
    <glyph glyph-name="uni062A0626.isol" unicode="&#xfe97;&#xfe8a;" horiz-adv-x="987" 
d="M1093 773q55 0 80 -104q21 -66 21 -162v-8q0 -97 -49 -133q0 -4 -19 -20q138 -20 138 -31q54 -25 54 -68v-21q0 -96 -137 -192q-76 -53 -219 -106q-193 -63 -374 -63h-38q-327 0 -461 158q-46 61 -46 136q0 244 445 350q117 25 245 25h24q95 0 95 -29q0 -30 -135 -36
q-164 -26 -269 -61q-299 -99 -299 -250v-8q0 -79 150 -139q112 -40 270 -40q287 0 532 139q99 72 99 103q0 18 -105 26q-165 25 -165 91q12 67 63 67q116 40 116 101v3q0 40 -69 198q-4 7 -4 15v10q0 49 57 49zM862 758q-84 -36 -202 -36q-107 0 -107 45q0 32 91 46
q62 9 171 55q13 6 26 6q58 0 58 -63q0 -38 -37 -53zM506 593q0 -58 -62.5 -108.5t-121.5 -50.5q-33 0 -33 31q0 25 27 35q86 31 104 80q-73 18 -73 61q0 35 35 79q30 38 66 60q12 7 25 7q37 0 37 -31q0 -16 -17 -30q-47 -37 -61 -73q43 -12 50 -16q24 -13 24 -44z" />
    <glyph glyph-name="uni062B0626.isol" unicode="&#xfe9b;&#xfe8a;" horiz-adv-x="987" 
d="M1093 773q55 0 80 -104q21 -66 21 -162v-8q0 -97 -49 -133q0 -4 -19 -20q138 -20 138 -31q54 -25 54 -68v-21q0 -96 -137 -192q-76 -53 -219 -106q-193 -63 -374 -63h-38q-327 0 -461 158q-46 61 -46 136q0 244 445 350q117 25 245 25h24q95 0 95 -29q0 -30 -135 -36
q-164 -26 -269 -61q-299 -99 -299 -250v-8q0 -79 150 -139q112 -40 270 -40q287 0 532 139q99 72 99 103q0 18 -105 26q-165 25 -165 91q12 67 63 67q116 40 116 101v3q0 40 -69 198q-4 7 -4 15v10q0 49 57 49zM939 887q11 -17 11 -34q0 -25 -19 -42.5t-44 -17.5
q-30 0 -48 27q-36 54 -61 54q-24 0 -72 -42q-39 -35 -60 -65q-42 -57 -69 -57q-16 0 -16 24q0 31 27 81q94 175 203 175q79 0 148 -103zM503 588q0 -58 -62.5 -108.5t-121.5 -50.5q-33 0 -33 31q0 25 27 35q86 31 104 80q-73 18 -73 61q0 35 35 79q30 38 66 60q12 7 25 7
q37 0 37 -31q0 -16 -17 -30q-47 -37 -61 -73q43 -12 50 -16q24 -13 24 -44z" />
    <glyph glyph-name="uni06460626.isol" unicode="&#xfee7;&#xfe8a;" horiz-adv-x="987" 
d="M1093 773q55 0 80 -104q21 -66 21 -162v-8q0 -97 -49 -133q0 -4 -19 -20q138 -20 138 -31q54 -25 54 -68v-21q0 -96 -137 -192q-76 -53 -219 -106q-193 -63 -374 -63h-38q-327 0 -461 158q-46 61 -46 136q0 244 445 350q117 25 245 25h24q95 0 95 -29q0 -30 -135 -36
q-164 -26 -269 -61q-299 -99 -299 -250v-8q0 -79 150 -139q112 -40 270 -40q287 0 532 139q99 72 99 103q0 18 -105 26q-165 25 -165 91q12 67 63 67q116 40 116 101v3q0 40 -69 198q-4 7 -4 15v10q0 49 57 49zM783 819l-34 -55q-18 -29 -49 -29q-25 0 -44 17.5t-19 42.5
q0 16 10 33l34 55q18 29 49 29q25 0 44 -17.5t19 -42.5q0 -16 -10 -33zM505 602q0 -58 -62.5 -108.5t-121.5 -50.5q-33 0 -33 31q0 25 27 35q86 31 104 80q-73 18 -73 61q0 35 35 79q30 38 66 60q12 7 25 7q37 0 37 -31q0 -16 -17 -30q-47 -37 -61 -73q43 -12 50 -16
q24 -13 24 -44z" />
    <glyph glyph-name="uni062606450627.fina" unicode="&#xfe8c;&#xfee4;&#xfe8e;" horiz-adv-x="1248" 
d="M104 781q40 0 40 -83l74 -721q17 -18 62 -18q45 -10 84 -10q53 0 92 19l-1 22v9q0 166 269 272q105 31 203 31q44 0 86 -6q76 0 103 -51q20 -71 31 -99q22 -11 82 -11h32q3 0 3 -3v-110q0 -4 -3 -4h-44q-14 -1 -26 -1q-122 0 -156 86q-13 68 -30 68l-12 2q-27 4 -56 4
q-105 0 -246 -55l-40 -39q51 -14 72 -46q9 -38 9 -56q0 -124 -241 -130q-73 -28 -128 -28q-44 0 -77 18h-9q-147 0 -173 95q-6 31 -20 250q-28 269 -59 523q0 50 62 72h17zM987 722q0 -58 -62.5 -108.5t-121.5 -50.5q-33 0 -33 31q0 25 27 35q86 31 104 80q-73 18 -73 61
q0 35 35 79q30 38 66 60q12 7 25 7q37 0 37 -31q0 -16 -17 -30q-47 -37 -61 -73q43 -12 50 -16q24 -13 24 -44z" />
    <glyph glyph-name="uni062806450627.fina" unicode="&#xfe92;&#xfee4;&#xfe8e;" horiz-adv-x="1248" 
d="M104 781q40 0 40 -83l74 -721q17 -18 62 -18q45 -10 84 -10q53 0 92 19l-1 22v9q0 166 269 272q105 31 203 31q44 0 86 -6q76 0 103 -51q20 -71 31 -99q22 -11 82 -11h32q3 0 3 -3v-110q0 -4 -3 -4h-44q-14 -1 -26 -1q-122 0 -156 86q-13 68 -30 68l-12 2q-27 4 -56 4
q-105 0 -246 -55l-40 -39q51 -14 72 -46q9 -38 9 -56q0 -124 -241 -130q-73 -28 -128 -28q-44 0 -77 18h-9q-147 0 -173 95q-6 31 -20 250q-28 269 -59 523q0 50 62 72h17zM1081 -319l-34 -55q-18 -29 -49 -29q-25 0 -44 17.5t-19 42.5q0 16 10 33l34 55q18 29 49 29
q25 0 44 -17.5t19 -42.5q0 -16 -10 -33z" />
    <glyph glyph-name="uni062A06450627.fina" unicode="&#xfe98;&#xfee4;&#xfe8e;" horiz-adv-x="1248" 
d="M104 781q40 0 40 -83l74 -721q17 -18 62 -18q45 -10 84 -10q53 0 92 19l-1 22v9q0 166 269 272q105 31 203 31q44 0 86 -6q76 0 103 -51q20 -71 31 -99q22 -11 82 -11h32q3 0 3 -3v-110q0 -4 -3 -4h-44q-14 -1 -26 -1q-122 0 -156 86q-13 68 -30 68l-12 2q-27 4 -56 4
q-105 0 -246 -55l-40 -39q51 -14 72 -46q9 -38 9 -56q0 -124 -241 -130q-73 -28 -128 -28q-44 0 -77 18h-9q-147 0 -173 95q-6 31 -20 250q-28 269 -59 523q0 50 62 72h17zM1092 521q-84 -36 -202 -36q-107 0 -107 45q0 32 91 46q62 9 171 55q13 6 26 6q58 0 58 -63
q0 -38 -37 -53z" />
    <glyph glyph-name="uni064606450627.fina" unicode="&#xfee8;&#xfee4;&#xfe8e;" horiz-adv-x="1248" 
d="M104 781q40 0 40 -83l74 -721q17 -18 62 -18q45 -10 84 -10q53 0 92 19l-1 22v9q0 166 269 272q105 31 203 31q44 0 86 -6q76 0 103 -51q20 -71 31 -99q22 -11 82 -11h32q3 0 3 -3v-110q0 -4 -3 -4h-44q-14 -1 -26 -1q-122 0 -156 86q-13 68 -30 68l-12 2q-27 4 -56 4
q-105 0 -246 -55l-40 -39q51 -14 72 -46q9 -38 9 -56q0 -124 -241 -130q-73 -28 -128 -28q-44 0 -77 18h-9q-147 0 -173 95q-6 31 -20 250q-28 269 -59 523q0 50 62 72h17zM1041 640l-34 -55q-18 -29 -49 -29q-25 0 -44 17.5t-19 42.5q0 16 10 33l34 55q18 29 49 29
q25 0 44 -17.5t19 -42.5q0 -16 -10 -33z" />
    <glyph glyph-name="uni064A06450627.fina" unicode="&#xfbff;&#xfee4;&#xfe8e;" horiz-adv-x="1248" 
d="M104 781q40 0 40 -83l74 -721q17 -18 62 -18q45 -10 84 -10q53 0 92 19l-1 22v9q0 166 269 272q105 31 203 31q44 0 86 -6q76 0 103 -51q20 -71 31 -99q22 -11 82 -11h32q3 0 3 -3v-110q0 -4 -3 -4h-44q-14 -1 -26 -1q-122 0 -156 86q-13 68 -30 68l-12 2q-27 4 -56 4
q-105 0 -246 -55l-40 -39q51 -14 72 -46q9 -38 9 -56q0 -124 -241 -130q-73 -28 -128 -28q-44 0 -77 18h-9q-147 0 -173 95q-6 31 -20 250q-28 269 -59 523q0 50 62 72h17zM1114 -334q-84 -36 -202 -36q-107 0 -107 45q0 32 91 46q62 9 171 55q13 6 26 6q58 0 58 -63
q0 -38 -37 -53z" />
    <glyph glyph-name="uni06260626.fina" unicode="&#xfe8c;&#xfe8a;" horiz-adv-x="1671" 
d="M1504 318h13q86 0 107 -81q9 -81 52 -81q22 -3 22 -8v-108q0 -4 -4 -4q-113 0 -157 85q-14 53 -22 70q-11 7 -24 7q-134 0 -333 -173l-32 -39q220 -29 220 -46q51 -26 51 -72v-13q0 -192 -398 -333q-194 -63 -378 -63h-68q-292 0 -452 138q-77 76 -77 179q0 267 496 380
q121 22 223 22h68q83 0 83 -28v-2q0 -33 -151 -40q-605 -103 -605 -341q0 -96 194 -162q108 -30 230 -30h50q274 0 535 138q106 69 123 118q0 19 -66 26q-225 21 -225 103q9 66 142 188q211 170 383 170zM1481 723q0 -58 -62.5 -108.5t-121.5 -50.5q-33 0 -33 31q0 25 27 35
q86 31 104 80q-73 18 -73 61q0 35 35 79q30 38 66 60q12 7 25 7q37 0 37 -31q0 -16 -17 -30q-47 -37 -61 -73q43 -12 50 -16q24 -13 24 -44zM667 363q0 -58 -62.5 -108.5t-121.5 -50.5q-33 0 -33 31q0 25 27 35q86 31 104 80q-73 18 -73 61q0 35 35 79q30 38 66 60
q12 7 25 7q37 0 37 -31q0 -16 -17 -30q-47 -37 -61 -73q43 -12 50 -16q24 -13 24 -44z" />
    <glyph glyph-name="uni062A0626.fina" unicode="&#xfe98;&#xfe8a;" horiz-adv-x="1671" 
d="M1504 318h13q86 0 107 -81q9 -81 52 -81q22 -3 22 -8v-108q0 -4 -4 -4q-113 0 -157 85q-14 53 -22 70q-11 7 -24 7q-134 0 -333 -173l-32 -39q220 -29 220 -46q51 -26 51 -72v-13q0 -192 -398 -333q-194 -63 -378 -63h-68q-292 0 -452 138q-77 76 -77 179q0 267 496 380
q121 22 223 22h68q83 0 83 -28v-2q0 -33 -151 -40q-605 -103 -605 -341q0 -96 194 -162q108 -30 230 -30h50q274 0 535 138q106 69 123 118q0 19 -66 26q-225 21 -225 103q9 66 142 188q211 170 383 170zM1528 608q-84 -36 -202 -36q-107 0 -107 45q0 32 91 46q62 9 171 55
q13 6 26 6q58 0 58 -63q0 -38 -37 -53zM511 482q0 -58 -62.5 -108.5t-121.5 -50.5q-33 0 -33 31q0 25 27 35q86 31 104 80q-73 18 -73 61q0 35 35 79q30 38 66 60q12 7 25 7q37 0 37 -31q0 -16 -17 -30q-47 -37 -61 -73q43 -12 50 -16q24 -13 24 -44z" />
    <glyph glyph-name="uni062B0626.fina" unicode="&#xfe9c;&#xfe8a;" horiz-adv-x="1671" 
d="M1504 318h13q86 0 107 -81q9 -81 52 -81q22 -3 22 -8v-108q0 -4 -4 -4q-113 0 -157 85q-14 53 -22 70q-11 7 -24 7q-134 0 -333 -173l-32 -39q220 -29 220 -46q51 -26 51 -72v-13q0 -192 -398 -333q-194 -63 -378 -63h-68q-292 0 -452 138q-77 76 -77 179q0 267 496 380
q121 22 223 22h68q83 0 83 -28v-2q0 -33 -151 -40q-605 -103 -605 -341q0 -96 194 -162q108 -30 230 -30h50q274 0 535 138q106 69 123 118q0 19 -66 26q-225 21 -225 103q9 66 142 188q211 170 383 170zM1541 798q11 -17 11 -34q0 -25 -19 -42.5t-44 -17.5q-30 0 -48 27
q-36 54 -61 54q-24 0 -72 -42q-39 -35 -60 -65q-42 -57 -69 -57q-16 0 -16 24q0 31 27 81q94 175 203 175q79 0 148 -103zM511 476q0 -58 -62.5 -108.5t-121.5 -50.5q-33 0 -33 31q0 25 27 35q86 31 104 80q-73 18 -73 61q0 35 35 79q30 38 66 60q12 7 25 7q37 0 37 -31
q0 -16 -17 -30q-47 -37 -61 -73q43 -12 50 -16q24 -13 24 -44z" />
    <glyph glyph-name="uni06460626.fina" unicode="&#xfee8;&#xfe8a;" horiz-adv-x="1671" 
d="M1504 318h13q86 0 107 -81q9 -81 52 -81q22 -3 22 -8v-108q0 -4 -4 -4q-113 0 -157 85q-14 53 -22 70q-11 7 -24 7q-134 0 -333 -173l-32 -39q220 -29 220 -46q51 -26 51 -72v-13q0 -192 -398 -333q-194 -63 -378 -63h-68q-292 0 -452 138q-77 76 -77 179q0 267 496 380
q121 22 223 22h68q83 0 83 -28v-2q0 -33 -151 -40q-605 -103 -605 -341q0 -96 194 -162q108 -30 230 -30h50q274 0 535 138q106 69 123 118q0 19 -66 26q-225 21 -225 103q9 66 142 188q211 170 383 170zM1500 685l-34 -55q-18 -29 -49 -29q-25 0 -44 17.5t-19 42.5
q0 16 10 33l34 55q18 29 49 29q25 0 44 -17.5t19 -42.5q0 -16 -10 -33zM505 488q0 -58 -62.5 -108.5t-121.5 -50.5q-33 0 -33 31q0 25 27 35q86 31 104 80q-73 18 -73 61q0 35 35 79q30 38 66 60q12 7 25 7q37 0 37 -31q0 -16 -17 -30q-47 -37 -61 -73q43 -12 50 -16
q24 -13 24 -44z" />
    <glyph glyph-name="uni06830645.isol" unicode="&#xfb78;&#xfee2;" horiz-adv-x="981" 
d="M977 783h12q166 0 217 -85q9 -21 9 -41q0 -145 -440 -370q-110 -57 -166 -102l-5 -7q34 0 59 -39q8 -13 8 -36q0 -94 -50 -124q-59 -38 -194 -89q-177 -47 -210 -66q-85 -54 -85 -143v-14q0 -85 85 -290q39 -100 39 -220q-7 -128 -22 -128q0 -8 -17 -11h-2q-20 0 -20 50
q0 107 -123 405q-61 166 -61 229q0 149 167 234q108 32 205 74v2q0 206 360 392v2q-89 80 -89 162v7q0 125 178 190q70 18 145 18zM775 575q0 -45 83 -104q207 112 207 160q0 33 -97 33q-131 0 -188 -63q-5 -14 -5 -26zM842 -118q-84 -36 -202 -36q-107 0 -107 45
q0 32 91 46q62 9 171 55q13 6 26 6q58 0 58 -63q0 -38 -37 -53z" />
    <glyph glyph-name="uni06830645.init" unicode="&#xfb78;&#xfee4;" horiz-adv-x="936" 
d="M822 1019q174 0 225 -91q7 -25 7 -36q0 -128 -336 -315q-213 -112 -270 -156q-41 -39 -41 -42q89 -25 89 -87q0 -117 -203 -190q-172 -69 -263 -69h-20q-56 0 -56 60v3q0 43 33 55q12 5 49 5h-6q2 0 2 -2q36 0 164 46q13 7 13 9q-2 25 -2 31q0 160 245 326q125 70 125 72
q-91 78 -91 162v11q0 126 189 192q69 16 147 16zM608 812v-3q0 -47 85 -105q207 111 207 161v2q0 32 -93 32q-111 0 -179 -49q-20 -20 -20 -38zM841 -125q-84 -36 -202 -36q-107 0 -107 45q0 32 91 46q62 9 171 55q13 6 26 6q58 0 58 -63q0 -38 -37 -53z" />
    <glyph glyph-name="uni062C0647.init" unicode="&#xfe9f;&#xfeec;" horiz-adv-x="1020" 
d="M813 579q164 0 209 -85q8 -19 8 -35q0 -118 -321 -297q-183 -91 -252 -148q-77 -77 -137 -217q-90 -190 -160 -190h-14q-58 0 -74 78q-4 19 -4 45q0 115 67 329h-2q-66 -20 -133 -20h-18q-4 0 -4 4v105q1 4 4 4h18q145 0 213 92q18 16 33 16h18q37 0 43 -49v-8
q0 -14 -37 -99q-34 -84 -75 -260q-8 -46 -8 -51v-2h2q87 186 120 219q43 63 127 123q45 32 152 92v2q-84 73 -84 152q0 114 149 174q68 26 160 26zM618 385v-4q0 -41 80 -94q189 102 189 149v2q0 29 -88 29q-120 0 -176 -59q-5 -17 -5 -23zM917 -38l-34 -55q-18 -29 -49 -29
q-25 0 -44 17.5t-19 42.5q0 16 10 33l34 55q18 29 49 29q25 0 44 -17.5t19 -42.5q0 -16 -10 -33z" />
    <glyph glyph-name="uni062D0647.init" unicode="&#xfea3;&#xfeec;" horiz-adv-x="1034" 
d="M813 579q164 0 209 -85q8 -19 8 -35q0 -118 -321 -297q-183 -91 -252 -148q-77 -77 -137 -217q-90 -190 -160 -190h-14q-58 0 -74 78q-4 19 -4 45q0 115 67 329h-2q-66 -20 -133 -20h-18q-4 0 -4 4v105q1 4 4 4h18q145 0 213 92q18 16 33 16h18q37 0 43 -49v-8
q0 -14 -37 -99q-34 -84 -75 -260q-8 -46 -8 -51v-2h2q87 186 120 219q43 63 127 123q45 32 152 92v2q-84 73 -84 152q0 114 149 174q68 26 160 26zM618 385v-4q0 -41 80 -94q189 102 189 149v2q0 29 -88 29q-120 0 -176 -59q-5 -17 -5 -23z" />
    <glyph glyph-name="uni062C0649.isol" unicode="&#xfe9f;&#xfef0;" horiz-adv-x="1701" 
d="M1475 969q169 0 207 -92q2 -12 2 -20v-8q0 -109 -292 -275q-191 -101 -256 -147q-54 -54 -65 -73v-2q211 -27 211 -43q52 -24 52 -75q0 -215 -469 -352q-162 -37 -307 -37q-418 5 -523 206q-21 52 -21 99q0 249 447 359q123 28 243 28h64q82 0 82 -28v-6q0 -23 -187 -39
q-539 -103 -539 -320q0 -98 197 -159q98 -28 237 -28q321 0 574 159q77 61 77 92q0 16 -127 28q-150 26 -150 93q21 84 154 193q83 57 166 99q-82 78 -82 144v19q0 104 161 168q69 17 144 17zM1280 778q0 -42 77 -95h2q187 104 187 146q0 30 -83 30q-145 0 -181 -68z
M1597 330l-34 -55q-18 -29 -49 -29q-25 0 -44 17.5t-19 42.5q0 16 10 33l34 55q18 29 49 29q25 0 44 -17.5t19 -42.5q0 -16 -10 -33z" />
    <glyph glyph-name="uni062D0649.isol" unicode="&#xfea3;&#xfef0;" horiz-adv-x="1701" 
d="M1475 969q169 0 207 -92q2 -12 2 -20v-8q0 -109 -292 -275q-191 -101 -256 -147q-54 -54 -65 -73v-2q211 -27 211 -43q52 -24 52 -75q0 -215 -469 -352q-162 -37 -307 -37q-418 5 -523 206q-21 52 -21 99q0 249 447 359q123 28 243 28h64q82 0 82 -28v-6q0 -23 -187 -39
q-539 -103 -539 -320q0 -98 197 -159q98 -28 237 -28q321 0 574 159q77 61 77 92q0 16 -127 28q-150 26 -150 93q21 84 154 193q83 57 166 99q-82 78 -82 144v19q0 104 161 168q69 17 144 17zM1280 778q0 -42 77 -95h2q187 104 187 146q0 30 -83 30q-145 0 -181 -68z" />
    <glyph glyph-name="uni062E0649.isol" unicode="&#xfea7;&#xfef0;" horiz-adv-x="1701" 
d="M1475 969q169 0 207 -92q2 -12 2 -20v-8q0 -109 -292 -275q-191 -101 -256 -147q-54 -54 -65 -73v-2q211 -27 211 -43q52 -24 52 -75q0 -215 -469 -352q-162 -37 -307 -37q-418 5 -523 206q-21 52 -21 99q0 249 447 359q123 28 243 28h64q82 0 82 -28v-6q0 -23 -187 -39
q-539 -103 -539 -320q0 -98 197 -159q98 -28 237 -28q321 0 574 159q77 61 77 92q0 16 -127 28q-150 26 -150 93q21 84 154 193q83 57 166 99q-82 78 -82 144v19q0 104 161 168q69 17 144 17zM1280 778q0 -42 77 -95h2q187 104 187 146q0 30 -83 30q-145 0 -181 -68z
M1335 1206l-34 -55q-18 -29 -49 -29q-25 0 -44 17.5t-19 42.5q0 16 10 33l34 55q18 29 49 29q25 0 44 -17.5t19 -42.5q0 -16 -10 -33z" />
    <glyph glyph-name="uni062C064A.isol" unicode="&#xfe9f;&#xfef2;" horiz-adv-x="1701" 
d="M1475 969q169 0 207 -92q2 -12 2 -20v-8q0 -109 -292 -275q-191 -101 -256 -147q-54 -54 -65 -73v-2q211 -27 211 -43q52 -24 52 -75q0 -215 -469 -352q-162 -37 -307 -37q-418 5 -523 206q-21 52 -21 99q0 249 447 359q123 28 243 28h64q82 0 82 -28v-6q0 -23 -187 -39
q-539 -103 -539 -320q0 -98 197 -159q98 -28 237 -28q321 0 574 159q77 61 77 92q0 16 -127 28q-150 26 -150 93q21 84 154 193q83 57 166 99q-82 78 -82 144v19q0 104 161 168q69 17 144 17zM1280 778q0 -42 77 -95h2q187 104 187 146q0 30 -83 30q-145 0 -181 -68z
M1683 406l-34 -55q-18 -29 -49 -29q-25 0 -44 17.5t-19 42.5q0 16 10 33l34 55q18 29 49 29q25 0 44 -17.5t19 -42.5q0 -16 -10 -33zM882 -448q-84 -36 -202 -36q-107 0 -107 45q0 32 91 46q62 9 171 55q13 6 26 6q58 0 58 -63q0 -38 -37 -53z" />
    <glyph glyph-name="uni062D064A.isol" unicode="&#xfea3;&#xfef2;" horiz-adv-x="1701" 
d="M1475 969q169 0 207 -92q2 -12 2 -20v-8q0 -109 -292 -275q-191 -101 -256 -147q-54 -54 -65 -73v-2q211 -27 211 -43q52 -24 52 -75q0 -215 -469 -352q-162 -37 -307 -37q-418 5 -523 206q-21 52 -21 99q0 249 447 359q123 28 243 28h64q82 0 82 -28v-6q0 -23 -187 -39
q-539 -103 -539 -320q0 -98 197 -159q98 -28 237 -28q321 0 574 159q77 61 77 92q0 16 -127 28q-150 26 -150 93q21 84 154 193q83 57 166 99q-82 78 -82 144v19q0 104 161 168q69 17 144 17zM1280 778q0 -42 77 -95h2q187 104 187 146q0 30 -83 30q-145 0 -181 -68z
M790 -438q-84 -36 -202 -36q-107 0 -107 45q0 32 91 46q62 9 171 55q13 6 26 6q58 0 58 -63q0 -38 -37 -53z" />
    <glyph glyph-name="uni062E064A.isol" unicode="&#xfea7;&#xfef2;" horiz-adv-x="1701" 
d="M1475 969q169 0 207 -92q2 -12 2 -20v-8q0 -109 -292 -275q-191 -101 -256 -147q-54 -54 -65 -73v-2q211 -27 211 -43q52 -24 52 -75q0 -215 -469 -352q-162 -37 -307 -37q-418 5 -523 206q-21 52 -21 99q0 249 447 359q123 28 243 28h64q82 0 82 -28v-6q0 -23 -187 -39
q-539 -103 -539 -320q0 -98 197 -159q98 -28 237 -28q321 0 574 159q77 61 77 92q0 16 -127 28q-150 26 -150 93q21 84 154 193q83 57 166 99q-82 78 -82 144v19q0 104 161 168q69 17 144 17zM1280 778q0 -42 77 -95h2q187 104 187 146q0 30 -83 30q-145 0 -181 -68z
M810 -413q-84 -36 -202 -36q-107 0 -107 45q0 32 91 46q62 9 171 55q13 6 26 6q58 0 58 -63q0 -38 -37 -53zM1375 1230l-34 -55q-18 -29 -49 -29q-25 0 -44 17.5t-19 42.5q0 16 10 33l34 55q18 29 49 29q25 0 44 -17.5t19 -42.5q0 -16 -10 -33z" />
    <glyph glyph-name="uni06330632.isol" unicode="&#xfeb3;&#xfeb0;" horiz-adv-x="1456" 
d="M1373 373h17q54 0 54 -54v-6q-8 -74 -87 -167q-80 -77 -169 -77h-12q-54 0 -130 35q-80 -58 -170 -58h-6q-92 0 -121 69q-20 79 -29 79h-7q-69 0 -206 -94q-71 -58 -81 -98q-31 -58 -90 -114q-92 -73 -374 -73h-9q-60 0 -60 31v11q0 38 115 50q160 31 226 62q65 28 65 54
q38 75 69 111q93 91 212 141q100 50 181 50h9q72 0 72 -79q0 -67 25 -67q7 -6 27 -6h13q75 0 160 125q26 63 61 63h6q62 0 62 -59q-3 -35 -52 -106v-2q23 -6 38 -6h10q96 0 142 162q19 23 39 23zM486 528l-34 -55q-18 -29 -49 -29q-25 0 -44 17.5t-19 42.5q0 16 10 33l34 55
q18 29 49 29q25 0 44 -17.5t19 -42.5q0 -16 -10 -33z" />
    <glyph glyph-name="uni06340632.isol" unicode="&#xfeb7;&#xfeb0;" horiz-adv-x="1456" 
d="M1373 373h17q54 0 54 -54v-6q-8 -74 -87 -167q-80 -77 -169 -77h-12q-54 0 -130 35q-80 -58 -170 -58h-6q-92 0 -121 69q-20 79 -29 79h-7q-69 0 -206 -94q-71 -58 -81 -98q-31 -58 -90 -114q-92 -73 -374 -73h-9q-60 0 -60 31v11q0 38 115 50q160 31 226 62q65 28 65 54
q38 75 69 111q93 91 212 141q100 50 181 50h9q72 0 72 -79q0 -67 25 -67q7 -6 27 -6h13q75 0 160 125q26 63 61 63h6q62 0 62 -59q-3 -35 -52 -106v-2q23 -6 38 -6h10q96 0 142 162q19 23 39 23zM515 507l-34 -55q-18 -29 -49 -29q-25 0 -44 17.5t-19 42.5q0 16 10 33l34 55
q18 29 49 29q25 0 44 -17.5t19 -42.5q0 -16 -10 -33zM1394 739q11 -17 11 -34q0 -25 -19 -42.5t-44 -17.5q-30 0 -48 27q-36 54 -61 54q-24 0 -72 -42q-39 -35 -60 -65q-42 -57 -69 -57q-16 0 -16 24q0 31 27 81q94 175 203 175q79 0 148 -103z" />
    <glyph glyph-name="uni06330632.fina" unicode="&#xfeb4;&#xfeb0;" horiz-adv-x="1588" 
d="M1423 320q60 0 60 -58q-1 -23 -35 -95q21 -15 101 -15h28q35 -8 35 -18v-77q-14 -20 -46 -20h-50q-95 0 -151 43q-62 -41 -120 -41h-27q-39 0 -95 23q-84 -63 -171 -63q-108 0 -133 67q-11 56 -18 60q-8 6 -15 6h-2q-130 -25 -227 -104q-30 -26 -64 -97
q-55 -86 -112 -111q-103 -48 -306 -48h-37q-44 0 -52 27v10q0 43 124 54q163 33 232 68q43 28 43 48q32 72 83 122q138 114 296 159q33 8 60 8h20q60 0 60 -74q8 -73 35 -73l13 -2h10q79 0 168 110q37 74 57 74h21q56 0 56 -57q0 -22 -41 -89h8q63 0 95 43q30 31 43 85
q16 35 52 35h2zM526 467l-34 -55q-18 -29 -49 -29q-25 0 -44 17.5t-19 42.5q0 16 10 33l34 55q18 29 49 29q25 0 44 -17.5t19 -42.5q0 -16 -10 -33z" />
    <glyph glyph-name="uni06340632.fina" unicode="&#xfeb8;&#xfeb0;" horiz-adv-x="1588" 
d="M1423 320q60 0 60 -58q-1 -23 -35 -95q21 -15 101 -15h28q35 -8 35 -18v-77q-14 -20 -46 -20h-50q-95 0 -151 43q-62 -41 -120 -41h-27q-39 0 -95 23q-84 -63 -171 -63q-108 0 -133 67q-11 56 -18 60q-8 6 -15 6h-2q-130 -25 -227 -104q-30 -26 -64 -97
q-55 -86 -112 -111q-103 -48 -306 -48h-37q-44 0 -52 27v10q0 43 124 54q163 33 232 68q43 28 43 48q32 72 83 122q138 114 296 159q33 8 60 8h20q60 0 60 -74q8 -73 35 -73l13 -2h10q79 0 168 110q37 74 57 74h21q56 0 56 -57q0 -22 -41 -89h8q63 0 95 43q30 31 43 85
q16 35 52 35h2zM526 462l-34 -55q-18 -29 -49 -29q-25 0 -44 17.5t-19 42.5q0 16 10 33l34 55q18 29 49 29q25 0 44 -17.5t19 -42.5q0 -16 -10 -33zM1413 658q11 -17 11 -34q0 -25 -19 -42.5t-44 -17.5q-30 0 -48 27q-36 54 -61 54q-24 0 -72 -42q-39 -35 -60 -65
q-42 -57 -69 -57q-16 0 -16 24q0 31 27 81q94 175 203 175q79 0 148 -103z" />
    <glyph glyph-name="uni0635062C.isol" unicode="&#xfebb;&#xfe9e;" horiz-adv-x="1742" 
d="M1536 757h17q177 0 177 -125q0 -93 -118 -192q-81 -53 -181 -86q-193 -64 -338 -64q-206 0 -259 133q0 22 -34 38q-5 0 -32 5q-92 0 -253 -110q-62 -55 -78 -78q122 -8 215 -57q49 -43 49 -95q0 -95 -220 -226q-204 -135 -223 -150q-123 -103 -123 -202q0 -119 148 -165
q80 -21 177 -21h19q240 0 644 70h17q29 0 29 -13q0 -30 -194 -97q-306 -82 -491 -82h-28q-346 5 -426 209q-17 44 -17 101q0 246 468 492q59 31 95 75l2 5q-49 21 -274 50q-38 19 -38 57q0 49 129 184q102 93 207 133q105 46 170 46h24q98 0 137 -112q47 -67 141 -67
q45 70 179 202q165 142 283 142zM1224 430h2q142 29 232 65q135 64 135 114v4q0 30 -57 30h-21q-89 0 -291 -213zM645 -394l-34 -55q-18 -29 -49 -29q-25 0 -44 17.5t-19 42.5q0 16 10 33l34 55q18 29 49 29q25 0 44 -17.5t19 -42.5q0 -16 -10 -33z" />
    <glyph glyph-name="uni0635062E.isol" unicode="&#xfebb;&#xfea6;" horiz-adv-x="1747" 
d="M1536 757h17q177 0 177 -125q0 -93 -118 -192q-81 -53 -181 -86q-193 -64 -338 -64q-206 0 -259 133q0 22 -34 38q-5 0 -32 5q-92 0 -253 -110q-62 -55 -78 -78q122 -8 215 -57q49 -43 49 -95q0 -95 -220 -226q-204 -135 -223 -150q-123 -103 -123 -202q0 -119 148 -165
q80 -21 177 -21h19q240 0 644 70h17q29 0 29 -13q0 -30 -194 -97q-306 -82 -491 -82h-28q-346 5 -426 209q-17 44 -17 101q0 246 468 492q59 31 95 75l2 5q-49 21 -274 50q-38 19 -38 57q0 49 129 184q102 93 207 133q105 46 170 46h24q98 0 137 -112q47 -67 141 -67
q45 70 179 202q165 142 283 142zM1224 430h2q142 29 232 65q135 64 135 114v4q0 30 -57 30h-21q-89 0 -291 -213zM413 761l-34 -55q-18 -29 -49 -29q-25 0 -44 17.5t-19 42.5q0 16 10 33l34 55q18 29 49 29q25 0 44 -17.5t19 -42.5q0 -16 -10 -33z" />
    <glyph glyph-name="uni0635062C.init" unicode="&#xfebb;&#xfea0;" horiz-adv-x="1574" 
d="M1375 894h28q126 -3 152 -76q6 -24 6 -38q0 -91 -112 -182q-73 -48 -173 -82q-184 -58 -310 -58q-182 0 -240 112q-12 48 -42 48q0 3 -24 4q-86 0 -237 -102q-61 -55 -74 -74q111 -7 191 -49q52 -35 52 -90v-4q0 -70 -106 -142q-240 -124 -503 -124h28q-66 0 -66 52v12
q0 52 66 52h10q134 0 370 90q53 26 87 58q-59 20 -255 46q-32 16 -32 42v20q4 38 116 163q78 67 140 100q141 70 231 70q101 0 136 -106q43 -62 130 -62h2q47 68 156 176q159 144 273 144zM1095 588q108 22 194 52q153 63 153 118v2q0 28 -54 28h-16q-87 0 -277 -198v-2z
M450 -154l-34 -55q-18 -29 -49 -29q-25 0 -44 17.5t-19 42.5q0 16 10 33l34 55q18 29 49 29q25 0 44 -17.5t19 -42.5q0 -16 -10 -33z" />
    </font>
</defs>
</svg>
